<?xml version="1.0" encoding="utf-8"?>
<!-- Generator: Adobe Illustrator 22.1.0, SVG Export Plug-In . SVG Version: 6.00 Build 0)  -->
<svg version="1.1" id="Layer_1" xmlns="http://www.w3.org/2000/svg" xmlns:xlink="http://www.w3.org/1999/xlink" x="0px" y="0px"
	 viewBox="0 0 1055 1055" style="enable-background:new 0 0 1055 1055;" xml:space="preserve">
<style type="text/css">
	.st0{opacity:0.1;}
	.st1{fill:none;stroke:#000000;stroke-width:15;stroke-linecap:round;stroke-miterlimit:10;}
	.st2{fill:none;stroke:#000000;stroke-width:15;stroke-linecap:round;stroke-miterlimit:10;stroke-dasharray:37.14,55.71;}
	.st3{fill:none;stroke:#000000;stroke-width:15;stroke-linecap:round;stroke-miterlimit:10;stroke-dasharray:0,55.71,37.14,55.71;}
	.st4{fill:none;stroke:#000000;stroke-width:15;stroke-linecap:round;stroke-miterlimit:10;stroke-dasharray:0,55.56;}
	.st5{fill:none;stroke:#000000;stroke-width:15;stroke-linecap:round;stroke-miterlimit:10;stroke-dasharray:37.04,55.56,0,55.56;}
</style>
<title>Asset 1</title>
<g id="Layer_2_1_" class="st0">
	<g id="Layer_1-2">
		<line class="st1" x1="527.5" y1="7.5" x2="527.5" y2="7.5"/>
		<line class="st2" x1="527.5" y1="63.2" x2="527.5" y2="128.2"/>
		<line class="st3" x1="527.5" y1="156.1" x2="527.5" y2="1019.6"/>
		<line class="st1" x1="527.5" y1="1047.5" x2="527.5" y2="1047.5"/>
		<line class="st1" x1="77.2" y1="267.5" x2="77.2" y2="267.5"/>
		<line class="st2" x1="125.4" y1="295.4" x2="181.7" y2="327.9"/>
		<line class="st3" x1="205.8" y1="341.8" x2="953.7" y2="773.6"/>
		<line class="st1" x1="977.8" y1="787.5" x2="977.8" y2="787.5"/>
		<line class="st1" x1="77.2" y1="787.5" x2="77.2" y2="787.5"/>
		<line class="st2" x1="125.4" y1="759.6" x2="181.7" y2="727.1"/>
		<line class="st3" x1="205.8" y1="713.2" x2="953.7" y2="281.4"/>
		<line class="st1" x1="977.8" y1="267.5" x2="977.8" y2="267.5"/>
		<line class="st1" x1="267.5" y1="77.2" x2="277.5" y2="94.5"/>
		<line class="st4" x1="305.3" y1="142.6" x2="319.2" y2="166.7"/>
		<line class="st5" x1="333.1" y1="190.7" x2="763.6" y2="936.5"/>
		<line class="st1" x1="777.5" y1="960.5" x2="787.5" y2="977.8"/>
		<line class="st1" x1="1047.5" y1="527.5" x2="1027.5" y2="527.5"/>
		<line class="st4" x1="971.9" y1="527.5" x2="944.2" y2="527.5"/>
		<line class="st5" x1="916.4" y1="527.5" x2="55.3" y2="527.5"/>
		<line class="st1" x1="27.5" y1="527.5" x2="7.5" y2="527.5"/>
		<line class="st1" x1="267.5" y1="977.8" x2="277.5" y2="960.5"/>
		<line class="st4" x1="305.3" y1="912.4" x2="319.2" y2="888.3"/>
		<line class="st5" x1="333.1" y1="864.3" x2="763.6" y2="118.5"/>
		<line class="st1" x1="777.5" y1="94.5" x2="787.5" y2="77.2"/>
	</g>
</g>
</svg>
