<?xml version="1.0" encoding="utf-8"?>
<!-- Generator: Adobe Illustrator 22.1.0, SVG Export Plug-In . SVG Version: 6.00 Build 0)  -->
<svg version="1.1" id="Layer_1" xmlns="http://www.w3.org/2000/svg" xmlns:xlink="http://www.w3.org/1999/xlink" x="0px" y="0px"
	 viewBox="0 0 73.8 50.7" style="enable-background:new 0 0 73.8 50.7;" xml:space="preserve">
<style type="text/css">
	.st0{fill:#93E5DD;}
</style>
<title>Asset 2</title>
<g id="Layer_2_1_">
	<g id="Layer_1-2">
		<path class="st0" d="M26.5,16.9L26.5,16.9C26.6,16.8,26.6,16.9,26.5,16.9L26.5,16.9L26.5,16.9z M25.4,18.4
			c0.4,0.2,0.8,0.5,1.2,0.6c0.1-0.2,0.3-0.4,0.5-0.6c-0.1-0.2-0.2-0.4-0.3-0.6c-0.1,0.1-0.3,0.1-0.5,0.1
			C25.8,18,25.4,18.3,25.4,18.4z M29.8,34.1c-0.2,0.5-0.6,0.9-0.9,1.2c-0.4,0.4-0.8,0.8-1.1,1.3c-0.2,0.2-0.4,0.5-0.5,0.8
			c-0.2,0.3-0.4,0.6-0.7,0.9c-0.7,0.5-1.5,0.9-2.2,1.3c-0.1,0-0.2,0.1-0.3,0.1c0,0-0.1-0.2,0.3-1.1c0.5-1.2,0.9-2.5,1.1-3.8v-0.2
			c0.1-0.6,0.1-1.2,0-1.7c-0.1-0.3-0.1-0.7-0.1-1c0-0.3,0-0.6,0-0.9v-0.3c-0.1-0.9-0.2-1.7-0.5-2.5c-0.3-0.8-1.1-1.9-1.6-1.9
			c0,0-0.1,0-0.1,0c-0.3,0.1-0.2,0.5-0.1,1.2c0.1,0.7,0.2,1.3,0.2,2v0.5c0,1.3,0.1,1.9,0.1,2.7v0.3c0.1,0.4,0.1,0.9,0,1.3
			c0,0.5,0,2.2,0,2.2c0,0.3-0.2,1.6-0.3,2.2c0,0.2-0.1,0.4-0.1,0.5c0,0.2-0.1,0.4-0.3,0.6L22.4,40c-0.4,0.2-1.1,0.7-1.4,0.8
			l-0.6,0.3c-0.8,0.3-1.5,0.7-2.2,1.1c-0.4,0.2-0.9,0.3-1.4,0.3l0.2-0.3c0.4-0.5,0.7-1.1,0.9-1.7c0.1-0.5,0.2-0.8,0.3-1.2
			s0.2-0.8,0.4-1.4c0.1-0.4,0.2-0.9,0.2-1.4c0-0.2,0-0.3,0-0.4s0-0.4,0-0.7c0-0.5,0-1.1,0.1-1.6c0.1-1-0.1-1.9-0.6-2.8
			c0-0.1-0.1-0.1-0.2-0.1h-0.1c-0.3,0.1-0.6,0.7-0.7,1.7c-0.1,0.9-0.1,1.8-0.1,2.8c0,0.6,0,1,0,1.3c-0.1,0.4-0.1,0.7-0.3,1.1
			c-0.1,0.3-0.2,0.7-0.2,1c-0.3,0.9-0.7,1.7-1.3,2.5c-0.2,0.3-0.2,0.4-0.3,0.5c-0.2,0.3-0.4,0.5-0.6,0.7c-0.1,0.1-0.2,0.1-0.2,0.1
			c-0.1,0-0.3,0-0.4-0.1l-0.4-0.1c-0.6-0.1-1.1-0.1-1.7-0.1c-0.6,0-1.2,0-1.8-0.1c-0.1,0-0.2,0-0.3,0c-0.8,0.1-1.6,0.2-2.4,0.3
			c-0.3,0.1-0.6,0.1-0.8,0.1H6.3c-0.4,0-0.5,0.1-0.7-0.1C5.3,42.4,5.1,42,5,41.6c-0.2-0.6-0.6-1.9-0.7-2.2C4.2,39.2,4.1,39,4,38.9
			c-0.4-0.4-0.7-0.9-1-1.4c-0.3-0.5-0.6-1.1-0.7-1.7c0-0.1-0.1-0.2-0.2-0.3c-0.2-0.3-0.5-0.9-0.2-1.3c0.6-0.4,1.3-0.7,2.1-0.9
			c0.5-0.2,1-0.3,1.3-0.5C6,32.5,6.6,32.2,7.2,32c0.3-0.2,0.6-0.3,0.9-0.4l1-0.4c0.7-0.2,1.3-0.5,1.9-0.8c0.2-0.2,0.3-0.5,0.3-0.8
			C11.1,29.2,10.7,29,10,29H9.5c-1.2,0-2.3,0.2-3.4,0.6c-0.6,0.2-1.1,0.5-1.6,0.9c-0.2,0.2-0.5,0.3-0.7,0.5
			c-0.5,0.3-0.9,0.7-1.2,1.1c-0.2,0.2-0.4,0.4-0.5,0.6c-0.2,0.1-0.3,0.3-0.4,0.5c0,0-0.1,0.1-0.1,0.2l-0.1-0.2L1.4,33
			c-0.4-0.7-0.6-1.6-0.5-2.4c0.1-0.5,0.2-1,0.2-1.5c0-0.2,0-0.5,0.1-0.7c0-0.1,0-0.2,0-0.3c0.1-0.5,0.2-1.2,0.7-1.5
			c0.4-0.2,0.9-0.3,1.3-0.4c0.3-0.1,0.9-0.3,1.5-0.5s1.2-0.4,1.4-0.5c0.3-0.1,0.6-0.2,1-0.2c0.9-0.2,1.4-0.3,1.3-0.6
			c-0.1-0.6-1.6-0.6-1.8-0.6c-1,0.1-2.1,0.2-3.1,0.5c-0.4,0.1-0.9,0.4-1.3,0.5s-0.9,0.4-1.1,0.4l-0.4,0.1c-0.2,0.1-0.5,0.2-0.8,0.3
			H0c0,0,0,0,0-0.2s0.1-0.4,0.2-0.7c0.2-0.8,0.5-1.7,0.8-2.5L1.1,22c0.5-1.1,1.1-2.1,1.9-3c0.6-0.5,1.3-0.8,2.1-0.9
			C5.6,18.1,7,18,8,18c0.6,0,0.9,0,1.2,0.1c0.4,0,0.9,0,1.3,0c1,0,1.9,0.1,2.9,0.3l0.4,0.1c0.5,0.1,1.1,0.3,1.6,0.4l0.3,0.1
			c0.7,0.1,1.3,0.2,2,0.3c0.2,0,0.5,0,0.7-0.2c0.1-0.1,0.1-0.2,0.1-0.2c0-0.7-4.7-2.1-6-2.1h-0.1c-0.6,0-1.4,0-2.1-0.1
			c-0.8,0-1.6,0-2.4,0c-1.3,0.2-2.6,0.5-3.9,0.9l-0.5,0.2c-0.2,0.1-0.4,0.2-0.6,0.2c0,0,0,0,0,0c0.6-1.4,1.4-2.7,2.3-3.9
			c0.9-1.2,2-2.2,3.3-3.1c0.4-0.3,0.9-0.4,1.4-0.4c0.1,0,0.3,0,0.4-0.1c1.1,0.3,2.1,0.7,3.1,1.1c0.8,0.3,1.5,0.6,2.3,0.8l1,0.3
			l1.6,0.9l0,0l0,0c0.4,0.3,0.8,0.6,1.1,0.9c0.8,0.7,1.1,0.9,1.2,0.9h0.1v-0.1c0.2-0.2,0.2-0.5,0.1-0.8c-0.1-0.5-0.7-2.3-4-3.8
			c-2.1-0.8-4.3-1.4-6.5-1.6h-0.2C10.5,9,10.7,8.7,11,8.5c0.3-0.3,0.6-0.6,1-0.9c1.2-1,2.7-1.7,4.2-1.9c1.1,0,2.2,0.3,3.2,0.7
			c0.6,0.3,1.2,0.4,1.9,0.5c0.2,0,0.4,0,0.6-0.1c0.4-0.1,0.8-0.1,1.2-0.1c0.7,0,1.4,0.2,1.9,0.7c0.7,0.6,1.2,1.4,1.5,2.2
			c0.1,0.1,0.1,0.3,0.2,0.4c0.4,0.7,0.5,1.4,0.5,2.2c0,0.1-0.1,0.4-0.2,0.7c-0.2,0.7-0.4,1.3-0.7,1.9c-0.1,0.2-0.2,0.4-0.3,0.7v0.1
			c-0.1,0.3-0.2,0.6-0.4,0.8c0-0.1,0-0.4,0-0.6c0.1-0.7,0.1-1.4,0-2.1c0-1.1-0.4-2.1-1.1-2.9c0,0-0.1-0.1-0.1-0.2
			c-0.3-0.4-0.4-0.5-0.5-0.5H24V10c-0.1,0.1-0.1,0.1,0.6,1.4c0.3,0.7,0.5,1.4,0.5,2.2v0.1c0,1-0.1,2.1-0.3,3.1
			c-0.1-0.2-0.1-0.5-0.2-0.7c-0.1-0.5-0.3-1-0.5-1.4c-0.1-0.2-0.2-0.4-0.3-0.6c-0.2-0.4-0.4-0.7-0.7-1.1c-0.1-0.2-0.3-0.5-0.5-0.7
			c-0.2-0.4-0.5-0.8-0.8-1.2c-1.6-1.4-3.4-2.4-5.4-3.2l0,0h-0.1V8c0,0.1,0,0.1,0.5,0.4c0.9,0.4,1.7,0.9,2.5,1.5
			c0.2,0.2,0.5,0.4,0.9,0.7c0.5,0.3,1,0.7,1.4,1.2c0.7,0.9,1.2,1.9,1.8,2.9c0.4,0.9,0.6,1.9,0.6,2.9c0,0.4-0.5,1.1-0.8,1l-0.4-0.2
			c-0.2-0.1-0.5-0.3-1.2-0.6s-1.3-0.8-2.1-1.3s-1.4-0.9-1.8-1.1L17.3,15c-0.5-0.3-1.1-0.6-1.7-0.8L15,13.9c-0.9-0.4-1.8-0.6-2.7-0.7
			h-0.9c-1.8,0-1.9,0.1-1.9,0.2l-0.1,0.1v0.1c0.1,0.1,0.2,0.2,1.1,0.2c0.9,0,1.9,0.2,2.8,0.4c0.6,0.2,1.2,0.4,1.7,0.8l0.3,0.2
			l0.2,0.1c0.7,0.2,1.4,0.5,2,0.9l1.7,1.1l2,1.3l0.8,0.5l0.4,0.3c0.1,0,0.1,0.1,0.1,0.1s0,0.1-0.2,0.3s-1.2,1.5-1.3,1.7
			S20.5,22,20.3,22l0,0l-0.6-0.2c-0.5-0.1-1.1-0.3-1.5-0.4l-0.5-0.1c-0.6-0.1-1.2-0.2-1.7-0.4c-1-0.3-2.1-0.5-3.2-0.6l0,0
			c-0.4,0-1.2,0-1.9-0.1l-1.3-0.1H9.1H8.4c-0.2,0-0.4,0-0.6,0l-0.7,0.1c-0.6,0-1.2,0.1-1.8,0.2l-0.1,0.1v0.1c0,0.1,0.2,0.2,0.5,0.2
			h0.7c0.4,0,0.9,0,1.2,0h1.1c1.2,0,2.4,0,3.5,0.1c0.9,0.1,1.9,0.2,2.8,0.5c0.8,0.3,1.5,0.5,2.3,0.6c0.5,0.1,1,0.2,1.5,0.4l0.2,0.1
			c0.2,0,0.3,0.2,0.4,0.4c0,0.1,0,0.3-0.1,0.4c-0.3,0.3-0.5,0.6-0.8,1c-0.1,0.1-0.2,0.3-0.3,0.4l-0.7,0.8c-0.3,0.3-0.5,0.6-0.6,0.8
			c-0.2,0.2-0.5,0.3-0.9,0.3H16c-0.6,0-1.6,0-2-0.1s-1,0-1.5,0h-0.6l0,0c-0.4,0-2,0.2-2.3,0.2c0,0-2.3,0.5-2.3,0.9
			c0,0,0,0.2,0.2,0.2c0.3,0,0.7-0.1,1-0.2c0.4-0.1,0.8-0.2,1.2-0.3c0.3,0,0.8-0.1,1.2-0.1c0.6-0.1,1.4-0.1,1.6-0.1h0.7
			c0.4,0,0.8,0,1,0c0.6,0,1.1,0.1,1.6,0.3c0,0.1-0.4,0.7-0.6,0.9l-0.1,0.1l-0.8,0.9l-0.8,1c-0.2,0.2-0.4,0.4-0.6,0.6
			c-0.1,0.1-0.2,0.2-0.3,0.2c-0.4,0.2-0.7,0.3-1.1,0.3c-0.7,0.3-1.5,0.6-2.1,1c-1.1,0.8-2.1,1.8-2.9,2.9v0.1l0.1,0.1h0.1
			c0.1,0,0.4-0.2,2.2-1.6c0.5-0.4,1-0.8,1.1-0.8c0.7-0.4,1.5-0.7,2.3-0.9c-0.1,0.2-0.2,0.3-0.3,0.4c-0.5,0.5-1.1,1.4-1.4,1.8
			l-0.1,0.1L10,35.4c-0.4,0.4-0.7,0.9-0.9,1.1l-0.2,0.3c-0.2,0.3-0.4,0.6-0.8,1.1C8,38.2,7.9,38.3,8,38.4l0,0.1h0.1
			c0.2,0,0.8-0.7,1-1c0.7-0.8,3-3.7,3.6-4.4c0.3-0.4,0.7-0.9,1.1-1.3l0.2-0.2l0.3-0.3c0.1,1,0.2,2.1,0.1,3.1c-0.1,1.3-0.4,2.5-1,3.7
			l-0.1,0.2c0,0.1,0,0.2,0,0.2l0.1,0.1h0.1c0.2,0,0.6-0.5,0.8-1l0.2-0.4c0.4-0.8,0.6-1.7,0.7-2.6c0.1-1.1,0.1-2.2,0-3.4
			c0-0.2,0-0.3,0-0.5c0.1-0.4,0.3-0.8,0.6-1.1l0.2-0.2c0.1-0.2,0.6-0.7,1-1.2l0.6-0.7l0.9-1c0.2-0.2,0.3-0.4,0.4-0.5l0.3-0.3
			c0.1-0.2,0.3-0.5,0.5-0.6c0.4,1.2,0.8,2.5,1.1,3.8c0.2,2.1,0.3,4.3,0.1,6.4c0,0.8,0,1.5,0,1.8s0,0.4,0.2,0.4H21v0
			c0.3-0.9,0.4-1.8,0.4-2.7c0-0.2,0-0.6,0-1c0.2-1.6,0.2-3.3,0-4.9c-0.2-1.3-0.6-2.6-1.1-3.9c-0.1-0.2-0.1-0.3-0.2-0.5
			c0-0.2,0.1-0.4,0.2-0.5c0.1-0.1,0.2-0.3,0.4-0.5s0.7-0.8,0.9-1l0.1-0.2c0.2-0.2,0.8-1,0.9-1c0.9,1.2,1.7,2.4,2.4,3.6
			c0.2,0.5,1.4,3.3,1.9,4.6l0.2,0.6c0,0.1,0.1,0.3,0.3,0.3l0,0c0.1,0,0.1,0,0.2-0.1c0.2,0.6,0.7,1,1.3,1c0.2,0,0.4-0.1,0.6-0.2
			C29.5,32.2,29.6,33.1,29.8,34.1z M10.7,23.8c-0.1,0.3,0.3,0.5,0.4,0.5c0.5,0.3,1.1,0.5,1.7,0.6c0.3,0,0.7,0,1,0c0.1,0,0.2,0,0.4,0
			c0.6,0.1,1.2-0.2,1.5-0.7c0.1-0.3,0-0.6-0.2-0.8l0,0h-0.1c-0.7-0.2-1.4-0.4-2.1-0.4c-0.2,0-0.4,0-0.6,0.1l-0.4,0.1
			C11.4,23.2,10.7,23.4,10.7,23.8z M25.1,19.3c-0.4,0-1.1,0.7-1.3,1c-0.2,0.3-0.2,0.7,0,1c0.1,0.3,0.5,0.8,0.8,1.4s0.8,1.2,1.1,1.7
			c-0.2-0.9-0.2-1.8,0-2.7c0.2-0.5,0.4-1.1,0.5-1.6c0.1-0.2,0.1-0.4,0.1-0.5c-0.3-0.1-0.6-0.2-0.8-0.2
			C25.4,19.4,25.3,19.4,25.1,19.3L25.1,19.3z"/>
		<path class="st0" d="M71.9,30.1c0,0.1,0.1,0.1,0.1,0.2c0.2,0.2,0.4,0.7,0.6,0.7s0.2-0.2,0.3-0.4c0.3-0.8,1.2-3.3,0.8-4.7l-0.1-0.4
			c-0.3-1.5-0.8-2.9-1.6-4.1c-0.7-0.8-1.6-1.3-2.6-1.6c-1.1-0.3-2.1-0.4-3.2-0.5h-0.4h-0.6c-1.4,0-2.9-0.1-4.3-0.4
			c-1.1-0.2-2-0.4-2.8-0.6l0,0H58c-0.7-0.1-1.4-0.1-2.1-0.1h-0.7c-0.2,0-0.4,0-0.7,0h-0.4c-0.2,0-0.3,0-0.4-0.1
			c-0.1-0.2-0.1-0.3,0-0.5c0.2-0.6,3.2-1.2,5-1.2c0.4,0,0.7,0,1.1,0.1c0.8,0.1,1.9,0.3,2.9,0.4v0l0,0l0,0c1.1,0.1,2.2,0.2,3.2,0.5
			c1.7,0.6,3.3,1.2,4.9,2c0.2,0.1,0.4,0.2,0.5,0.3c0.3,0.2,0.5,0.3,0.8,0.4c0,0,0-0.1,0-0.1c-0.4-1.9-1-3.7-1.8-5.4
			c-0.9-1.7-2.1-3.3-3.5-4.6c-0.5-0.4-1.2-0.7-1.8-0.8c-0.2,0-0.3-0.1-0.5-0.1c-0.3-0.1-0.7-0.1-1-0.1c-1,0-2,0.1-2.9,0.3l-0.6,0.1
			c-0.6,0.2-1.2,0.3-1.8,0.3c-0.4,0.1-0.8,0.2-1.3,0.2c-0.4,0-0.9,0.1-1.3,0.2h-0.1h-0.3h-0.5c-0.5,0-0.8-0.1-0.9-0.2
			c-0.1-0.2-0.1-0.4-0.1-0.5c0.2-0.5,1.2-0.9,3.6-1.5c0.9-0.2,1.9-0.4,2.8-0.3c1.3,0,2.6,0.2,3.8,0.4L64.7,8c0.2,0,0.5,0.1,0.7,0.1
			h0.1l-0.3-0.3c-0.3-0.4-0.6-0.8-0.8-1.2c-0.3-0.6-0.6-1.1-1-1.6c-1.4-1.6-3.1-2.7-5.1-3.3c-0.5-0.1-1-0.2-1.4-0.1
			c-1.1,0-2.1,0.1-3.1,0.3C53,2,52.3,2.1,51.5,2.1c-0.2,0-0.4,0-0.5-0.1c-0.5-0.1-0.8-0.3-0.9-0.5C50,1.2,50,0.9,50.2,0.7
			c0-0.1,0.1-0.2,0.1-0.4s0.1-0.2,0.1-0.3h-0.1h-0.1h-0.1c-1.6,0.3-3.1,0.9-4.5,1.8c-1.1,0.6-2,1.4-2.8,2.4
			c-0.2,0.2-0.3,0.3-0.4,0.5c-0.6,0.8-1,1.7-1.2,2.6c0,0.2,0,0.5,0.1,0.8l0,0c0,0.9,0.1,1.7,0.3,2.6c0.1,0.3,0.2,0.6,0.2,0.9
			c0,0,0,0.1,0,0.1c0.1,0.7,0.2,1,0.3,1.1c0-0.1,0.1-0.6,0.2-0.8c0.1-0.9,0.3-1.7,0.6-2.6c0.4-1.3,1.2-2.5,2.3-3.4l0.2-0.2
			c0.6-0.5,0.6-0.5,0.7-0.5h0.1c0,0,0,0,0.1,0l0,0c0,0.1,0.1,0.2-1.2,1.6c-0.7,0.8-1.2,1.7-1.4,2.7c0,0.1,0,0.1,0,0.2
			c-0.3,1.3-0.5,2.7-0.6,4.1c0.1-0.2,0.4-0.7,0.6-1c0.3-0.6,0.6-1.2,1-1.7c0.2-0.3,0.5-0.5,0.6-0.7c0.4-0.4,0.8-0.9,1.2-1.3
			c0.3-0.2,0.6-0.5,0.9-0.8c0.5-0.5,1-1,1.5-1.3c2.6-1.3,5.3-2.3,8.2-2.8h0.1c0,0,0.1,0,0.1,0.1v0.1c0,0.2,0,0.2-0.7,0.4
			c-1.3,0.4-2.6,0.9-3.8,1.5c-0.4,0.2-0.9,0.4-1.4,0.6l0,0c-0.8,0.3-1.6,0.7-2.3,1.2c-1.2,1-2.3,2.1-3.3,3.3c-0.8,1-1.4,2.2-1.8,3.5
			c0,0.4,0.1,0.8,0.3,1.2c0.1,0.1,0.2,0.2,0.4,0.2h0.1l0.6-0.2c0.4-0.1,0.8-0.2,1.9-0.5c0.8-0.2,2.1-0.7,3.3-1.2l0,0
			c1.1-0.4,2.2-0.9,2.7-1l0.8-0.3c0.8-0.3,1.7-0.5,2.5-0.6l0.8-0.1c1.1-0.2,2.2-0.3,3.3-0.4c0.2,0,0.4,0,0.6,0
			c3.6,0.5,3.7,0.7,3.8,0.8l0,0c0,0,0,0,0,0.1v0.1c-0.1,0.1-0.2,0.1-0.3,0.1s-0.6,0-1.2-0.1c-0.8-0.1-2-0.2-3-0.2
			c-0.3,0-0.6,0-0.9,0c-0.9,0.1-1.8,0.3-2.6,0.6c-0.2,0.1-0.3,0.1-0.5,0.1h-0.2h-0.1c-1,0.2-2.1,0.4-3.1,0.7l-2.7,1l-0.2,0.1
			l-2.9,1.1l-1.2,0.5l-0.6,0.2c-0.1,0-0.2,0.1-0.2,0.2s0,0.2,0.2,0.5c0.4,0.8,0.8,1.6,1.2,2.4c0.2,0.4,0.6,1.1,0.9,1.1l0.9-0.1l0,0
			c0.7,0,1.6-0.1,2.2-0.1h0.7c0.8,0,1.6,0,2.5-0.2c0.8-0.1,1.5-0.1,2.3,0c0.7,0,1.4,0,2.1,0.1c0.5,0.1,1.7,0.2,2.7,0.3
			c0.8,0.1,1.6,0.2,1.8,0.2l0.7,0.1l0,0c0.6,0.1,1.1,0.1,1.7,0.3c0.2,0.1,0.5,0.1,0.9,0.2c0.8,0.1,1.6,0.3,2.3,0.7
			c0,0.1,0,0.2,0,0.2c-0.1,0.1-0.2,0.1-0.3,0.1c-0.4,0-0.9-0.1-1.3-0.2c-0.5-0.1-1.2-0.2-1.7-0.3l-1.5-0.2c-1.4-0.2-3.2-0.5-4.9-0.6
			c-0.9,0-1.7-0.1-2.3-0.1c-0.5,0-1.1,0-1.6,0.1c-1.1,0.2-2.1,0.3-3.2,0.3h-0.2c-0.8,0-1.5,0.1-2.1,0.1h-0.2h0
			c-0.3,0-0.5,0.2-0.7,0.4c-0.1,0.2,0,0.4,0.1,0.5c0.3,0.4,0.5,0.9,0.7,1.4c0.1,0.2,0.2,0.4,0.3,0.6s0.4,0.8,0.7,1.2s0.5,0.8,0.6,1
			c0.2,0.4,0.6,0.6,1.1,0.6c1,0.2,2,0.3,3.1,0.4c0.7,0.1,1.3,0.2,2,0.3l0,0l0.8,0.1c0.6,0.1,2.7,0.6,3.1,0.8c0,0,3,1.1,2.8,1.6
			c0,0.1-0.1,0.2-0.2,0.2c-0.5-0.1-0.9-0.3-1.3-0.5c-0.5-0.3-1.1-0.5-1.6-0.6L58.7,30h-0.1c-0.9-0.2-1.9-0.5-2.1-0.5s-0.6-0.1-1-0.1
			h-0.1c-0.5,0-1-0.1-1.3-0.1c-0.3,0-0.7-0.1-1,0c-0.4,0-0.9,0-1.3,0.1c-0.1,0.1,0.1,0.5,0.5,1.3l0.1,0.2l0.8,1.4
			c0.3,0.5,0.6,1.1,0.8,1.4s0.7,1.2,1,1.9l0.1,0.1l0.5,0.8c0.3,0.2,0.6,0.3,1,0.4c0,0,1,0.4,1.2,0.5c0.1,0,2,1.1,2,1.4l0,0
			c0,0,0,0,0,0.1l0,0c0,0-0.1,0-0.1,0c-0.4-0.1-0.8-0.3-1.2-0.5c-0.4-0.2-0.8-0.4-1.2-0.6l-1-0.3l-0.3-0.1h-0.1
			c0,0.2,0.1,0.5,0.3,0.7c0.2,0.3,0.3,0.5,0.3,0.6c0.1,0.2,0.3,0.5,0.4,0.7c0.1,0.2,0.3,0.6,0.6,1.1l0,0c0.3,0.6,0.7,1.3,0.8,1.6
			l0.2,0.4c0.2,0.4,0.4,0.8,0.7,1.5c0.2,0.4,0.2,0.6,0.1,0.7c0,0.1-0.1,0.1-0.2,0.1c-0.3,0-0.9-1-1.1-1.4c-0.8-1.3-2.9-5.2-3.4-6.2
			c-0.4-0.8-0.9-1.7-1.5-2.4l-0.1-0.2c-0.1-0.1-0.2-0.2-0.2-0.3l0,0c-0.1-0.2-0.3-0.4-0.4-0.5c-0.5,1.3-0.9,2.6-1.2,4
			c-0.2,1.6-0.2,3.2,0.2,4.8c0,0.2,0.1,0.3,0.1,0.3c0,0.1,0,0.2-0.1,0.3c0,0-0.1,0.1-0.2,0.1c-0.3,0-0.6-0.7-0.7-1.4
			c0-0.2-0.1-0.3-0.1-0.5c-0.3-1.1-0.3-2.3-0.1-3.4c0.2-1.4,0.6-2.8,1-4.2l0.2-0.6c0.2-0.6,0.1-0.6,0-0.8l-0.1-0.2
			c-0.1-0.2-0.6-1-1-1.7l0,0c-0.2-0.4-0.5-0.7-0.6-1c-0.3-0.6-0.6-1.1-0.8-1.5s-0.3-0.5-0.4-0.8s-0.2-0.3-0.2-0.5
			c-0.1-0.3-0.3-0.6-0.5-0.8c-0.9,1.2-1.8,2.5-2.5,3.9c-0.1,0.4-0.4,1-0.7,1.7c-0.5,1.1-1,2.2-1.4,3.4c-0.2,0.5-0.2,0.6-0.4,0.6h0
			c0,0,0,0-0.1,0l0,0c-0.2-0.2,0.3-2,0.3-2c0.4-1.2,0.9-2.5,1.5-3.6c0.1-0.2,0.2-0.4,0.2-0.5c0.1-0.3,0.7-1.3,1.3-2.2
			c0.5-0.8,1.1-1.7,1.1-1.9c0.1-0.2,0-0.5-0.1-0.7l-0.4-0.7c-0.3-0.5-0.7-1.1-0.9-1.4c0-0.1-0.1-0.1-0.1-0.2l0,0
			c-0.2-0.4-0.8-1.5-1-1.5c-0.4,0.3-3.8,3.4-4.4,4.1s-2.9,3.6-3.9,5l-0.1,0.2c-0.2,0.3-0.4,0.5-0.5,0.6s-0.2,0.3-0.3,0.3
			c-0.1,0-0.2-0.1-0.2-0.1c-0.1-0.3,0.2-1.1,0.6-1.7c0.2-0.3,0.5-0.8,0.9-1.3c0.8-1.3,1.8-2.6,2.8-3.8c0.6-0.6,1.5-1.5,2.2-2.2
			s1.3-1.3,1.6-1.5c0.5-0.6,0.5-0.9,0.4-1.3S42.5,17,42,17h-0.1c-0.2,0-0.4,0.1-0.6,0.1c-0.7,0-1.5,0.1-2.2,0.3
			c-1.5,0.5-2.9,1.1-4.2,1.8c-1.6,1-3.2,2-4.7,3.2c-0.1,0.1-0.2,0.1-0.2,0.1H30c0,0-0.1,0-0.1,0v-0.1c-0.1-0.3,1.6-2.1,2.4-2.6
			c1.7-1.1,3.4-2,5.2-2.7c0.8-0.3,1.7-0.5,2.5-0.7l0,0l0,0l0,0c0.7-0.1,1.3-0.3,1.9-0.6c0-0.1,0-0.1-0.1-0.2
			c-0.3-0.3-0.7-0.6-1.2-0.6c-0.4-0.1-0.8-0.3-1.2-0.6c-1.3-0.8-2.8-1.4-4.3-1.8c-0.3-0.1-0.7-0.1-1-0.1c-0.3,0-0.5,0-0.8,0.1
			l-0.2,0.1h-0.2c-0.1,0-0.2,0-0.3-0.1c0-0.1,0-0.1,0-0.2c0.5-0.3,1.1-0.5,1.7-0.5h0c1.1,0,2.1,0.2,3.1,0.6c1,0.5,2.1,0.8,3.1,1h0.1
			c0,0,0-0.1,0-0.1c-0.1-0.1-0.2-0.3-0.5-0.6l0,0c-0.1-0.1-0.2-0.2-0.3-0.3L40,12.5c0,0,0,0,0-0.1l-0.1-0.1c-0.8-1.1-1.8-2-3.1-2.4
			c-0.6-0.3-1.2-0.4-1.9-0.4c-0.7,0-1.3,0.2-1.8,0.6l-0.6,0.4l-0.1,0.1c-0.8,0.5-1.6,1-2.4,1.4c-0.8,0.4-2.3,2.9-2.4,3.6
			c-0.1,0.7,0,1.4,0.3,2.1c0.2-0.8,0.7-1.4,1.3-1.8c1.6-0.7,3.3-1,5.1-1.1c0.1,0,0.2,0,0.4,0c0.5,0,2.6,0.2,2.8,0.8
			c0,0.1,0,0.2-0.2,0.4l0,0c-0.1,0-0.4,0.1-1.7,0.3l-1.1,0.2c-0.3,0.1-0.5,0.2-0.8,0.2c-1,0.4-2.6,1-3.6,1.5l-1.2,0.5
			c-0.6,0.2-1.1,0.5-1.4,1c0,0.1-0.1,0.4-0.2,0.7c-0.2,0.6-0.4,1.2-0.5,1.7c-0.3,0.7,0.1,2.4,0.4,3.6c0.3,1.1,1.1,3.2,1.3,3.7
			c0,0.1,0.1,0.1,0.1,0.2c0.2,0.6,0.3,0.7,0.4,0.7c0.1-0.1,0.2-0.2,0.2-0.4c0.7-1.5,1.5-3,2.6-4.3l0.4-0.4c0.6-0.7,1.2-1.4,1.9-2
			l0.3-0.3c0.5-0.4,1-0.8,1.5-1.2l0,0l0,0c0.2,0,0.4-0.1,0.6-0.1c0.2,0,0.4,0,0.5,0.2c0.2,0.2,0.3,0.4,0.3,0.7
			c-0.1,0.6-0.5,1.2-1,1.6c-0.4,0.4-0.9,0.9-1.5,1.4c-0.8,0.7-1.6,1.5-2.4,2.2c-0.7,0.8-1.2,1.7-1.6,2.7c-0.3,1.3-0.3,2.6,0.1,3.9
			c0.2,0.7,0.5,1.4,0.9,2c0.5,0.6,0.9,1.2,1.2,1.9c0.2,0.4,0.3,0.7,0.5,1.1c0.1,0.5,0.3,0.9,0.6,1.3c0.4,0.4,1.8,1.7,2,1.9
			c0.1,0.1,0.2,0.1,0.2,0.1c0,0,0.1,0,0.1,0c0.1-0.1,0.2-0.4,0.2-1.3c0-1.6,0.1-3.2,0.4-4.8v-0.1c0.2-0.9,0.5-1.7,1-2.5
			c0,0,2.3-4.5,3.1-4.5c0,0,0.1,0,0.1,0c0.4,0.2,0.1,1.1-0.5,2.5l0,0c-0.2,0.4-0.4,0.8-0.5,1.2L40,33.8c-0.3,0.8-0.5,1.6-0.7,2.4
			c-0.1,0.5-0.3,1.9-0.5,2.5c-0.1,0.9-0.2,1.8-0.2,2.7c0,0.5,0,0.8,0,1c-0.1,0.3,0,0.6,0.2,0.8l0.4,0.3c0.5,0.4,1.2,1.1,1.6,1.3
			c0.1,0.1,0.4,0.3,0.7,0.5c0.9,0.5,1.8,1.2,2.6,1.8c0.6,0.4,1.3,0.7,2,0.7c-0.1-0.3-0.2-0.6-0.4-0.9c-0.3-0.6-0.6-1.2-0.6-1.9
			c0-0.6,0-1,0-1.6s0-1-0.1-1.8c0-0.7,0.1-1.5,0.2-2.2l0,0l0.1-0.5c0.1-0.4,0.2-0.7,0.3-1.1c0.3-0.8,0.5-1.6,0.6-2.4
			c0.2-1.3,0.8-2.4,1.7-3.3c0.1-0.1,0.2-0.1,0.3-0.1c0.1,0,0.3,0.1,0.3,0.2c0.3,0.7,0.3,1.4,0,2.1c-0.3,1.2-0.7,3.7-0.8,4.9
			l-0.1,0.5c-0.1,0.5-0.1,1.2-0.1,1.9s-0.1,1.2-0.1,1.6c0.1,1.3,0.3,2.5,0.6,3.8c0.1,0.2,0.1,0.3,0.1,0.5c0.1,0.4,0.3,0.7,0.6,1
			c0.1,0.2,0.3,0.3,0.5,0.2h0.4h0h0.5h0.1c0.5,0,1.4,0.1,2.3,0.2h0.1c0.8,0.1,1.5,0.2,2.3,0.2h0.3c1.2,0.2,2.3,0.5,3.4,1h0
			c0.4,0.1,0.8,0.3,0.9,0.3l0.3,0.1c0.2,0.1,0.4,0.1,0.7,0.1c0.1,0,0.2,0,0.4-0.1c0.6-0.3,1-0.8,1.2-1.3c0.4-0.7,1.3-2.2,1.6-2.5
			c0.2-0.2,0.4-0.4,0.6-0.6l0,0c0.6-0.5,1.2-1,1.7-1.6c0.6-0.6,1.1-1.3,1.5-2c0.2-0.5,0.2-1.2-0.2-1.6c-0.8-1.3-1.9-2.4-3.1-3.2
			c-0.8-0.5-1.7-1.1-2.3-1.6c-0.5-0.3-0.9-0.6-1.1-0.8c-0.6-0.3-1.1-0.5-1.7-0.7c-0.6-0.2-1.1-0.4-1.6-0.7c-0.1-0.1-0.1-0.2,0-0.3
			c0.2-0.3,1.2-0.6,2-0.6c0.3,0,0.7,0,1,0.1c0.9,0.3,1.7,0.7,2.5,1.1c0.4,0.2,0.7,0.4,1.1,0.5c0.6,0.4,1.2,0.8,1.7,1.4
			c0.2,0.3,0.5,0.5,0.8,0.8c0.9,0.8,1.7,1.7,2.2,2.8c0.4,1,0.7,1.2,0.8,1.2s0.5-0.6,0.9-1.3c0.5-0.9,0.9-1.9,0.9-3
			c0-0.8,0-1.8,0.1-2.5c0-0.3,0-0.6,0-0.8c0.1-0.7-0.3-1.4-0.9-1.7c-1.1-0.8-2.3-1.6-3.5-2.2c-0.3-0.1-0.6-0.3-0.9-0.5
			c-0.3-0.2-0.6-0.3-0.9-0.4c-0.5-0.1-1.1-0.3-1.7-0.5s-1.2-0.4-1.9-0.6c-1.2-0.3-2.6-0.9-2.8-1.8c0-0.1,0-0.2,0.1-0.3
			c0.4-0.5,2-0.5,2.6-0.5c0.3,0,0.6,0,0.9,0c1,0.1,2.1,0.3,3,0.7l1.6,0.7l0.8,0.3c0.2,0.1,0.4,0.3,0.6,0.4c0.1,0.1,0.3,0.3,0.4,0.4
			C70.3,28.2,71.2,29.1,71.9,30.1z M52.1,10.8c-0.6,0.8-1.4,1.4-2.3,1.8c-0.8,0.4-1.6,0.6-2.4,0.7c-0.5,0-0.7-0.2-0.7-0.3
			c-0.1-0.5,1.2-1.7,2.3-2.3c0.6-0.3,1.3-0.5,2-0.5c0.3,0,0.9,0,1.1,0.3C52.1,10.6,52.1,10.7,52.1,10.8z M52.2,19.2
			c-0.5,0.5-1.5,0.8-3,0.8h-0.3c-0.4,0-0.8-0.3-0.8-0.7c-0.1-0.7,0.3-1.3,0.9-1.6c0.6-0.2,1.2-0.3,1.8-0.2c0.5,0,1.7,0.1,1.8,0.6
			C52.5,18.4,52.4,18.8,52.2,19.2z M54.8,25.6c-0.3,0.4-0.8,0.7-1.4,0.6c-0.4,0-0.9-0.1-1.3-0.2c-0.5-0.2-0.9-0.7-0.8-1.3
			c0-0.3,0.2-0.9,1.4-0.9l0,0c0.8,0,1.5,0.4,2.1,1C55,25.1,55,25.4,54.8,25.6z M40.1,18.5c0.2-0.1,0.3-0.1,0.5-0.1
			c0.4,0,0.8,0.3,1,0.7c0.1,0.3,0.1,0.7-0.2,1c-0.7,0.8-1.6,1.4-2.7,1.5c-0.4,0.1-0.8-0.1-1-0.5C37.4,19.9,39.3,18.9,40.1,18.5z
			 M42,26.5c-0.3-0.7,1-2.4,1.1-2.4c0.5-0.6,1-0.8,1.2-0.8c0.2,0,0.5,0.1,0.6,0.3c0.2,0.3,0.2,0.7,0.1,1c-0.3,0.8-1.4,2.1-2.4,2.1
			h-0.1C42.2,26.8,42.1,26.6,42,26.5L42,26.5z"/>
	</g>
</g>
</svg>
