<svg xmlns="http://www.w3.org/2000/svg" xmlns:xlink="http://www.w3.org/1999/xlink" viewBox="0 0 507.12 202"><defs><style>.cls-1,.cls-2{fill:none;stroke-miterlimit:10;}.cls-1{stroke:url(#New_Gradient_Swatch);}.cls-2{stroke:url(#New_Gradient_Swatch-2);}</style><linearGradient id="New_Gradient_Swatch" x1="253.56" x2="253.56" y2="101.6" gradientUnits="userSpaceOnUse"><stop offset="0" stop-color="#0c0014"/><stop offset="0.25" stop-color="#4f008a"/><stop offset="0.5" stop-color="#e10098"/><stop offset="0.75" stop-color="#ff9e1b"/><stop offset="1" stop-color="#f6eb61"/></linearGradient><linearGradient id="New_Gradient_Swatch-2" x1="253.56" y1="202" x2="253.56" y2="100.4" xlink:href="#New_Gradient_Swatch"/></defs><title>Asset 4</title><g id="Layer_2" data-name="Layer 2"><g id="Layer_1-2" data-name="Layer 1"><path class="cls-1" d="M364.41,101.1l-223-.28L1.55.5h504Zm11.45-8.16L130,92.65M389.94,82.9l-273.89-.28m291.6-12.34L98.47,70M430.61,53.92,75.7,53.68M461.56,31.86,45,31.69M85.11.5,178.5,100.87m37.11,0L168.85.5m83.91,0V101m37.18.05L336.84.5m84.27,0L327.16,101.05"/><path class="cls-2" d="M505.55,201.5H1.55L141.42,101.18l223-.28ZM375.86,109.06,130,109.35m259.91,9.75-273.89.28m291.6,12.34L98.47,132m332.14,16.09-354.91.24m385.86,21.82L45,170.31M85.11,201.5,178.5,101.13M168.85,201.5l46.76-100.41M252.76,201.5V101M336.84,201.5,289.94,101M421.11,201.5,327.16,101"/></g></g></svg>