<svg width="680" height="720" viewBox="0 0 680 720" fill="none" xmlns="http://www.w3.org/2000/svg">
<circle cx="340" cy="95.5556" r="339" stroke="#A8F230" stroke-width="2"/>
<circle cx="340" cy="227.778" r="339" stroke="#A8F230" stroke-width="2"/>
<circle cx="340" cy="360" r="339" stroke="#A8F230" stroke-width="2"/>
<circle cx="340" cy="492.222" r="339" stroke="#A8F230" stroke-width="2"/>
<circle cx="340" cy="624.445" r="339" stroke="#A8F230" stroke-width="2"/>
<path fill-rule="evenodd" clip-rule="evenodd" d="M553.999 360C495.605 407.252 421.246 435.556 340.277 435.556C259.308 435.556 184.95 407.252 126.556 360C184.95 312.748 259.308 284.444 340.277 284.444C421.246 284.444 495.605 312.748 553.999 360Z" fill="#A8F230"/>
<circle cx="340" cy="360" r="75.5556" fill="#0C1301"/>
<path d="M340 331.667L346.361 351.244H366.947L350.293 363.344L356.654 382.922L340 370.822L323.346 382.922L329.707 363.344L313.053 351.244H333.639L340 331.667Z" fill="#A8F230"/>
<path d="M386.222 360C386.222 385.528 365.528 406.222 340 406.222C314.472 406.222 293.778 385.528 293.778 360C293.778 334.472 314.472 313.778 340 313.778C365.528 313.778 386.222 334.472 386.222 360Z" stroke="#A8F230" stroke-width="2"/>
</svg>
