<svg width="1043" height="1043" viewBox="0 0 1043 1043" fill="none" xmlns="http://www.w3.org/2000/svg">
<path d="M520.2 1020.7C262.3 1055.4 53.7 859.8 54.2 584C180.6 655.8 492.2 686 750 651.3C749.6 927.1 646.6 1092.5 520.2 1020.7Z" stroke="url(#paint0_linear_119_218)" stroke-width="2" stroke-miterlimit="10"/>
<path d="M284.7 984.2C348.5 1020.5 505.8 1035.7 635.9 1018.2" stroke="url(#paint1_linear_119_218)" stroke-width="2" stroke-miterlimit="10"/>
<path d="M117.5 827.5C226.7 889.5 495.7 915.5 718.3 885.6" stroke="url(#paint2_linear_119_218)" stroke-width="2" stroke-miterlimit="10"/>
<path d="M520.2 1020.7C361.4 1086.9 233 916.9 233.5 641" stroke="url(#paint3_linear_119_218)" stroke-width="2" stroke-miterlimit="10"/>
<path d="M520.2 1020.7C499.2 1100.2 482.6 941.1 483.2 665.2" stroke="url(#paint4_linear_119_218)" stroke-width="2" stroke-miterlimit="10"/>
<path d="M520.2 1020.7C646.6 1092.5 749.6 927.1 750.1 651.2C1008 616.5 1114.5 530.2 988.1 458.3C987.5 734.3 778.1 986 520.2 1020.7Z" stroke="url(#paint5_linear_119_218)" stroke-width="2" stroke-miterlimit="10"/>
<path d="M635.9 1018.1C766 1000.6 819.8 957 756 920.8" stroke="url(#paint6_linear_119_218)" stroke-width="2" stroke-miterlimit="10"/>
<path d="M718.3 885.6C941 855.7 1033 781.1 923.8 719.1" stroke="url(#paint7_linear_119_218)" stroke-width="2" stroke-miterlimit="10"/>
<path d="M520.2 1020.7C759.5 1065.2 953.9 877.7 954.5 601.8" stroke="url(#paint8_linear_119_218)" stroke-width="2" stroke-miterlimit="10"/>
<path d="M520.2 1020.7C806.7 1027 1039.3 808.5 1039.8 532.6" stroke="url(#paint9_linear_119_218)" stroke-width="2" stroke-miterlimit="10"/>
<path d="M520.2 1020.7C778.1 986 987.5 734.3 988 458.4C861.6 386.6 550 356.4 292.2 391.1C291.7 667 393.8 948.9 520.2 1020.7Z" stroke="url(#paint10_linear_119_218)" stroke-width="2" stroke-miterlimit="10"/>
<path d="M756 920.8C692.2 884.5 534.9 869.3 404.8 886.8" stroke="url(#paint11_linear_119_218)" stroke-width="2" stroke-miterlimit="10"/>
<path d="M923.8 719.1C814.6 657 545.6 631 323 661" stroke="url(#paint12_linear_119_218)" stroke-width="2" stroke-miterlimit="10"/>
<path d="M520.2 1020.7C679 954.5 808.2 677.2 808.7 401.3" stroke="url(#paint13_linear_119_218)" stroke-width="2" stroke-miterlimit="10"/>
<path d="M520.2 1020.7C541.2 941.2 558.6 653.1 559.1 377.2" stroke="url(#paint14_linear_119_218)" stroke-width="2" stroke-miterlimit="10"/>
<path d="M520.2 1020.7C393.8 948.9 291.7 667 292.2 391.1C34.3 425.8 -72.2 512.1 54.2 584C53.7 859.8 262.3 1055.4 520.2 1020.7Z" stroke="url(#paint15_linear_119_218)" stroke-width="2" stroke-miterlimit="10"/>
<path d="M404.8 886.8C274.7 904.3 220.9 947.9 284.7 984.1" stroke="url(#paint16_linear_119_218)" stroke-width="2" stroke-miterlimit="10"/>
<path d="M323 661C100.3 690.9 8.29999 765.5 117.5 827.5" stroke="url(#paint17_linear_119_218)" stroke-width="2" stroke-miterlimit="10"/>
<path d="M520.2 1020.7C280.9 976.2 87.3 716.4 87.8 440.5" stroke="url(#paint18_linear_119_218)" stroke-width="2" stroke-miterlimit="10"/>
<path d="M520.2 1020.7C233.7 1014.4 1.89999 785.6 2.39999 509.7" stroke="url(#paint19_linear_119_218)" stroke-width="2" stroke-miterlimit="10"/>
<path d="M54.2 583.9C54.7 308 264.2 56.1999 522 21.5999C648.4 93.3999 750.5 375.3 750 651.2C492.2 685.9 180.7 655.8 54.2 583.9Z" stroke="url(#paint20_linear_119_218)" stroke-width="2" stroke-miterlimit="10"/>
<path d="M118.5 323.2C227.7 385.2 496.7 411.2 719.3 381.3" stroke="url(#paint21_linear_119_218)" stroke-width="2" stroke-miterlimit="10"/>
<path d="M286.3 121.5C350.1 157.8 507.4 173 637.5 155.5" stroke="url(#paint22_linear_119_218)" stroke-width="2" stroke-miterlimit="10"/>
<path d="M233.5 641C234 365.1 363.2 87.7999 522.1 21.5999" stroke="url(#paint23_linear_119_218)" stroke-width="2" stroke-miterlimit="10"/>
<path d="M483.2 665.2C483.7 389.3 501.1 101.2 522.1 21.6998" stroke="url(#paint24_linear_119_218)" stroke-width="2" stroke-miterlimit="10"/>
<path d="M750.1 651.2C750.6 375.3 648.5 93.3999 522.1 21.5999C780 -13.1001 988.6 182.5 988.1 458.4C1114.5 530.2 1007.9 616.6 750.1 651.2Z" stroke="url(#paint25_linear_119_218)" stroke-width="2" stroke-miterlimit="10"/>
<path d="M719.3 381.3C942 351.4 1033.9 276.8 924.8 214.8" stroke="url(#paint26_linear_119_218)" stroke-width="2" stroke-miterlimit="10"/>
<path d="M637.5 155.5C767.6 138 821.4 94.4 757.6 58.1" stroke="url(#paint27_linear_119_218)" stroke-width="2" stroke-miterlimit="10"/>
<path d="M954.5 601.8C955 325.9 761.4 66.1 522.1 21.6" stroke="url(#paint28_linear_119_218)" stroke-width="2" stroke-miterlimit="10"/>
<path d="M1039.8 532.6C1040.3 256.7 808.5 27.9 522 21.6" stroke="url(#paint29_linear_119_218)" stroke-width="2" stroke-miterlimit="10"/>
<path d="M988 458.4C988.5 182.5 779.9 -13.0001 522 21.5999C395.6 -50.2001 292.6 115.2 292.1 391.1C550.1 356.4 861.6 386.5 988 458.4Z" stroke="url(#paint30_linear_119_218)" stroke-width="2" stroke-miterlimit="10"/>
<path d="M924.8 214.8C815.6 152.8 546.6 126.8 324 156.7" stroke="url(#paint31_linear_119_218)" stroke-width="2" stroke-miterlimit="10"/>
<path d="M757.6 58.0999C693.8 21.7999 536.5 6.59991 406.4 24.0999" stroke="url(#paint32_linear_119_218)" stroke-width="2" stroke-miterlimit="10"/>
<path d="M808.7 401.3C809.2 125.4 680.9 -44.6001 522 21.5999" stroke="url(#paint33_linear_119_218)" stroke-width="2" stroke-miterlimit="10"/>
<path d="M559.1 377.2C559.6 101.3 543 -57.9001 522.1 21.6999" stroke="url(#paint34_linear_119_218)" stroke-width="2" stroke-miterlimit="10"/>
<path d="M292.2 391.1C292.7 115.2 395.6 -50.2001 522.1 21.5999C264.2 56.2999 54.8 308.1 54.2 583.9C-72.2 512.1 34.3 425.8 292.2 391.1Z" stroke="url(#paint35_linear_119_218)" stroke-width="2" stroke-miterlimit="10"/>
<path d="M323.9 156.7C101.3 186.7 9.29999 261.2 118.5 323.2" stroke="url(#paint36_linear_119_218)" stroke-width="2" stroke-miterlimit="10"/>
<path d="M406.4 24.1998C276.3 41.6998 222.5 85.2998 286.3 121.5" stroke="url(#paint37_linear_119_218)" stroke-width="2" stroke-miterlimit="10"/>
<path d="M87.8 440.5C88.3 164.6 282.7 -22.9001 522.1 21.5999" stroke="url(#paint38_linear_119_218)" stroke-width="2" stroke-miterlimit="10"/>
<path d="M2.39999 509.7C2.99999 233.8 235.6 15.2999 522.1 21.5999" stroke="url(#paint39_linear_119_218)" stroke-width="2" stroke-miterlimit="10"/>
<path d="M264.6 973.5C338 1015.2 425.8 1033.4 520.2 1020.7C425.8 1033.4 338 1015.2 264.6 973.5ZM264.6 973.5C250.5 965.1 231.7 954 218.6 944.1C207.6 935.8 192.9 924.6 182.4 915.7C173.7 908.4 162.5 898.3 154.6 890.1C145.3 880.4 132.9 867.4 124.2 857.2C116.6 848.3 107 836 100.1 826.5C92.3 815.8 82.5 801 75.6 789.7C69.4 779.5 61.4 765.6 56.3 754.8C50.6 742.8 43.1 726.8 38.1 714.5C33.5 703.2 28.2 687.8 24.5 676.3C17.7 655.2 10.8 626.3 7.59999 604.3C3.89999 579.3 0.899988 545.5 0.999988 520.2C1.09999 506.3 1.89999 487.8 3.09999 474C4.19999 461.5 6.79999 445 8.49999 432.5C10.4 419 14.7 401.4 18.1 388.2C21.2 376.4 26 360.8 30.1 349.2C34.6 336.4 41.4 319.7 46.9 307.3C51.8 296.4 59.4 282.3 64.7 271.5C70.9 259.2 80.9 243.8 88.5 232.3C95 222.5 104.6 210.1 111.5 200.6C120 189 133 174.7 142.8 164.2C150.6 155.9 161.3 145.2 169.8 137.6C181.7 127 198.2 113.5 210.8 103.7C219.2 97.2 230.9 89.3 239.8 83.6C248.7 77.9 260.9 70.8 270 65.5C285.5 56.5 307.1 46.2 323.8 39.7C334.7 35.5 349.2 29.9 360.3 26.4C371.6 22.6999 386.9 18.4 398.4 15.6C409.2 13 423.8 9.79995 434.7 8.09995C439.9 7.29995 446.7 6.09995 451.9 5.49995C459.9 4.49995 470.5 3.39995 478.5 2.59995C482.1 2.29995 487 1.89995 490.6 1.69995C505.4 0.999951 505.4 0.999951 513.8 0.899951C517.2 0.799951 521.7 0.799951 525.1 0.899951C531.9 0.999951 540.9 1.29995 547.7 1.59995C557 1.99995 573.2 3.39995 584.1 4.69995C588.1 5.19995 593.5 5.89995 597.5 6.49995C601.8 7.09995 607.6 8.09995 611.9 8.79995C616.4 9.49995 622.3 10.8 626.7 11.6C632.3 12.7 639.8 14.5 645.4 15.8C650.8 17.1 657.8 19 663.1 20.5C670.9 22.6 681.2 25.8 688.9 28.6C699.6 32.4 713.9 37.8 724.4 42.2C732.5 45.6 743.2 50.5 751 54.4C762.3 60.1 777.2 68.2 788.2 74.7C797.3 80.1 809.3 87.7 817.9 93.9C826.6 100.2 838.3 108.5 846.6 115.3C857.1 123.9 870.7 135.6 880.5 145C888.8 152.9 899.6 163.9 907.2 172.4C916.1 182.4 927.6 196 935.6 206.7C942.7 216.1 951.8 229 958.2 238.9C965.3 250.1 974.3 265.3 980.6 277C992 298.3 1004.2 328.2 1012.8 350.7C1017.6 363.2 1022.3 380.6 1025.6 393.6C1028.7 405.6 1031.5 421.9 1034.1 434C1036.9 447.4 1038.8 465.6 1039.7 479.3C1040.7 494.8 1042.1 515.6 1041.2 531.1C1040.5 543.8 1040 560.7 1038.7 573.4C1037.3 587.1 1035.1 605.4 1032.1 618.8C1029.4 630.8 1026.1 647 1022.8 658.9C1019.1 672.1 1013.6 689.5 1008.8 702.3C1004.6 713.6 998.4 728.5 993.3 739.4C987.4 752 979 768.7 971.9 780.7C959.8 800.9 941.8 826.6 927.7 845.4C919 857 905.5 870.9 895.9 881.6C888.3 890 877.3 900.4 868.7 907.8C856.6 918.4 839.7 931.6 827 941.5C817.1 949.2 803.1 958.3 792.3 964.7C776.8 973.8 755.6 985.1 739.5 993C728 998.6 712.2 1004.8 700.3 1009.2C689.1 1013.3 673.9 1018.3 662.4 1021.4C637.2 1028.3 627.4 1030.2 607.7 1033.7C596.1 1035.8 576.9 1038.2 564 1039.2C553.8 1040 545.7 1040.5 540.1 1040.6C536.7 1040.7 532.1 1040.9 528.7 1040.9C525.3 1040.9 520.8 1041 517.4 1040.9C514 1040.9 509.5 1040.8 506.1 1040.7C504.6 1040.7 493.9 1040.3 483.1 1039.5C478.4 1039.1 470.4 1038.5 458.4 1037.1C443.3 1035.3 430.7 1033 430.5 1032.9C425.6 1032 419.1 1030.8 414.3 1029.8C409.1 1028.7 402.2 1027 397 1025.9C390.3 1024.4 381.6 1021.9 375 1020C368.5 1018.1 359.9 1015.3 353.5 1013.2C342.7 1009.6 328.4 1004.3 318 999.6C301.6 992.6 280.3 981.9 264.6 973.5Z" stroke="url(#paint40_linear_119_218)" stroke-width="2" stroke-miterlimit="10"/>
<path d="M264.6 973.5C338 1015.2 425.8 1033.4 520.2 1020.7C425.8 1033.4 338 1015.2 264.6 973.5ZM264.6 973.5C250.5 965.1 231.7 954 218.6 944.1C207.6 935.8 192.9 924.6 182.4 915.7C173.7 908.4 162.5 898.3 154.6 890.1C145.3 880.4 132.9 867.4 124.2 857.2C116.6 848.3 107 836 100.1 826.5C92.3 815.8 82.5 801 75.6 789.7C69.4 779.5 61.4 765.6 56.3 754.8C50.6 742.8 43.1 726.8 38.1 714.5C33.5 703.2 28.2 687.8 24.5 676.3C17.7 655.2 10.8 626.3 7.59999 604.3C3.89999 579.3 0.899988 545.5 0.999988 520.2C1.09999 506.3 1.89999 487.8 3.09999 474C4.19999 461.5 6.79999 445 8.49999 432.5C10.4 419 14.7 401.4 18.1 388.2C21.2 376.4 26 360.8 30.1 349.2C34.6 336.4 41.4 319.7 46.9 307.3C51.8 296.4 59.4 282.3 64.7 271.5C70.9 259.2 80.9 243.8 88.5 232.3C95 222.5 104.6 210.1 111.5 200.6C120 189 133 174.7 142.8 164.2C150.6 155.9 161.3 145.2 169.8 137.6C181.7 127 198.2 113.5 210.8 103.7C219.2 97.2 230.9 89.3 239.8 83.6C248.7 77.9 260.9 70.8 270 65.5C285.5 56.5 307.1 46.2 323.8 39.7C334.7 35.5 349.2 29.9 360.3 26.4C371.6 22.6999 386.9 18.4 398.4 15.6C409.2 13 423.8 9.79995 434.7 8.09995C439.9 7.29995 446.7 6.09995 451.9 5.49995C459.9 4.49995 470.5 3.39995 478.5 2.59995C482.1 2.29995 487 1.89995 490.6 1.69995C505.4 0.999951 505.4 0.999951 513.8 0.899951C517.2 0.799951 521.7 0.799951 525.1 0.899951C531.9 0.999951 540.9 1.29995 547.7 1.59995C557 1.99995 573.2 3.39995 584.1 4.69995C588.1 5.19995 593.5 5.89995 597.5 6.49995C601.8 7.09995 607.6 8.09995 611.9 8.79995C616.4 9.49995 622.3 10.8 626.7 11.6C632.3 12.7 639.8 14.5 645.4 15.8C650.8 17.1 657.8 19 663.1 20.5C670.9 22.6 681.2 25.8 688.9 28.6C699.6 32.4 713.9 37.8 724.4 42.2C732.5 45.6 743.2 50.5 751 54.4C762.3 60.1 777.2 68.2 788.2 74.7C797.3 80.1 809.3 87.7 817.9 93.9C826.6 100.2 838.3 108.5 846.6 115.3C857.1 123.9 870.7 135.6 880.5 145C888.8 152.9 899.6 163.9 907.2 172.4C916.1 182.4 927.6 196 935.6 206.7C942.7 216.1 951.8 229 958.2 238.9C965.3 250.1 974.3 265.3 980.6 277C992 298.3 1004.2 328.2 1012.8 350.7C1017.6 363.2 1022.3 380.6 1025.6 393.6C1028.7 405.6 1031.5 421.9 1034.1 434C1036.9 447.4 1038.8 465.6 1039.7 479.3C1040.7 494.8 1042.1 515.6 1041.2 531.1C1040.5 543.8 1040 560.7 1038.7 573.4C1037.3 587.1 1035.1 605.4 1032.1 618.8C1029.4 630.8 1026.1 647 1022.8 658.9C1019.1 672.1 1013.6 689.5 1008.8 702.3C1004.6 713.6 998.4 728.5 993.3 739.4C987.4 752 979 768.7 971.9 780.7C959.8 800.9 941.8 826.6 927.7 845.4C919 857 905.5 870.9 895.9 881.6C888.3 890 877.3 900.4 868.7 907.8C856.6 918.4 839.7 931.6 827 941.5C817.1 949.2 803.1 958.3 792.3 964.7C776.8 973.8 755.6 985.1 739.5 993C728 998.6 712.2 1004.8 700.3 1009.2C689.1 1013.3 673.9 1018.3 662.4 1021.4C637.2 1028.3 627.4 1030.2 607.7 1033.7C596.1 1035.8 576.9 1038.2 564 1039.2C553.8 1040 545.7 1040.5 540.1 1040.6C536.7 1040.7 532.1 1040.9 528.7 1040.9C525.3 1040.9 520.8 1041 517.4 1040.9C514 1040.9 509.5 1040.8 506.1 1040.7C504.6 1040.7 493.9 1040.3 483.1 1039.5C478.4 1039.1 470.4 1038.5 458.4 1037.1C443.3 1035.3 430.7 1033 430.5 1032.9C425.6 1032 419.1 1030.8 414.3 1029.8C409.1 1028.7 402.2 1027 397 1025.9C390.3 1024.4 381.6 1021.9 375 1020C368.5 1018.1 359.9 1015.3 353.5 1013.2C342.7 1009.6 328.4 1004.3 318 999.6C301.6 992.6 280.3 981.9 264.6 973.5Z" stroke="url(#paint41_linear_119_218)" stroke-width="2" stroke-miterlimit="10"/>
<path d="M520.2 1020.7C262.3 1055.4 53.7 859.8 54.2 584C180.6 655.8 492.2 686 750 651.3C749.6 927.1 646.6 1092.5 520.2 1020.7Z" stroke="url(#paint42_linear_119_218)" stroke-width="2" stroke-miterlimit="10"/>
<path d="M284.7 984.2C348.5 1020.5 505.8 1035.7 635.9 1018.2" stroke="url(#paint43_linear_119_218)" stroke-width="2" stroke-miterlimit="10"/>
<path d="M117.5 827.5C226.7 889.5 495.7 915.5 718.3 885.6" stroke="url(#paint44_linear_119_218)" stroke-width="2" stroke-miterlimit="10"/>
<path d="M520.2 1020.7C361.4 1086.9 233 916.9 233.5 641" stroke="url(#paint45_linear_119_218)" stroke-width="2" stroke-miterlimit="10"/>
<path d="M520.2 1020.7C499.2 1100.2 482.6 941.1 483.2 665.2" stroke="url(#paint46_linear_119_218)" stroke-width="2" stroke-miterlimit="10"/>
<path d="M520.2 1020.7C646.6 1092.5 749.6 927.1 750.1 651.2C1008 616.5 1114.5 530.2 988.1 458.3C987.5 734.3 778.1 986 520.2 1020.7Z" stroke="url(#paint47_linear_119_218)" stroke-width="2" stroke-miterlimit="10"/>
<path d="M635.9 1018.1C766 1000.6 819.8 957 756 920.8" stroke="url(#paint48_linear_119_218)" stroke-width="2" stroke-miterlimit="10"/>
<path d="M718.3 885.6C941 855.7 1033 781.1 923.8 719.1" stroke="url(#paint49_linear_119_218)" stroke-width="2" stroke-miterlimit="10"/>
<path d="M520.2 1020.7C759.5 1065.2 953.9 877.7 954.5 601.8" stroke="url(#paint50_linear_119_218)" stroke-width="2" stroke-miterlimit="10"/>
<path d="M520.2 1020.7C806.7 1027 1039.3 808.5 1039.8 532.6" stroke="url(#paint51_linear_119_218)" stroke-width="2" stroke-miterlimit="10"/>
<path d="M520.2 1020.7C778.1 986 987.5 734.3 988 458.4C861.6 386.6 550 356.4 292.2 391.1C291.7 667 393.8 948.9 520.2 1020.7Z" stroke="url(#paint52_linear_119_218)" stroke-width="2" stroke-miterlimit="10"/>
<path d="M756 920.8C692.2 884.5 534.9 869.3 404.8 886.8" stroke="url(#paint53_linear_119_218)" stroke-width="2" stroke-miterlimit="10"/>
<path d="M923.8 719.1C814.6 657 545.6 631 323 661" stroke="url(#paint54_linear_119_218)" stroke-width="2" stroke-miterlimit="10"/>
<path d="M520.2 1020.7C679 954.5 808.2 677.2 808.7 401.3" stroke="url(#paint55_linear_119_218)" stroke-width="2" stroke-miterlimit="10"/>
<path d="M520.2 1020.7C541.2 941.2 558.6 653.1 559.1 377.2" stroke="url(#paint56_linear_119_218)" stroke-width="2" stroke-miterlimit="10"/>
<path d="M520.2 1020.7C393.8 948.9 291.7 667 292.2 391.1C34.3 425.8 -72.2 512.1 54.2 584C53.7 859.8 262.3 1055.4 520.2 1020.7Z" stroke="url(#paint57_linear_119_218)" stroke-width="2" stroke-miterlimit="10"/>
<path d="M404.8 886.8C274.7 904.3 220.9 947.9 284.7 984.1" stroke="url(#paint58_linear_119_218)" stroke-width="2" stroke-miterlimit="10"/>
<path d="M323 661C100.3 690.9 8.29999 765.5 117.5 827.5" stroke="url(#paint59_linear_119_218)" stroke-width="2" stroke-miterlimit="10"/>
<path d="M520.2 1020.7C280.9 976.2 87.3 716.4 87.8 440.5" stroke="url(#paint60_linear_119_218)" stroke-width="2" stroke-miterlimit="10"/>
<path d="M520.2 1020.7C233.7 1014.4 1.89999 785.6 2.39999 509.7" stroke="url(#paint61_linear_119_218)" stroke-width="2" stroke-miterlimit="10"/>
<path d="M54.2 583.9C54.7 308 264.2 56.2 522 21.6C648.4 93.4 750.5 375.3 750 651.2C492.2 685.9 180.7 655.8 54.2 583.9Z" stroke="url(#paint62_linear_119_218)" stroke-width="2" stroke-miterlimit="10"/>
<path d="M118.5 323.2C227.7 385.2 496.7 411.2 719.3 381.3" stroke="url(#paint63_linear_119_218)" stroke-width="2" stroke-miterlimit="10"/>
<path d="M286.3 121.5C350.1 157.8 507.4 173 637.5 155.5" stroke="url(#paint64_linear_119_218)" stroke-width="2" stroke-miterlimit="10"/>
<path d="M233.5 641C234 365.1 363.2 87.8 522.1 21.6" stroke="url(#paint65_linear_119_218)" stroke-width="2" stroke-miterlimit="10"/>
<path d="M483.2 665.2C483.7 389.3 501.1 101.2 522.1 21.7" stroke="url(#paint66_linear_119_218)" stroke-width="2" stroke-miterlimit="10"/>
<path d="M750.1 651.2C750.6 375.3 648.5 93.4001 522.1 21.6001C780 -13.0999 988.6 182.5 988.1 458.4C1114.5 530.2 1007.9 616.6 750.1 651.2Z" stroke="url(#paint67_linear_119_218)" stroke-width="2" stroke-miterlimit="10"/>
<path d="M719.3 381.3C942 351.4 1033.9 276.8 924.8 214.8" stroke="url(#paint68_linear_119_218)" stroke-width="2" stroke-miterlimit="10"/>
<path d="M637.5 155.5C767.6 138 821.4 94.4001 757.6 58.1001" stroke="url(#paint69_linear_119_218)" stroke-width="2" stroke-miterlimit="10"/>
<path d="M954.5 601.8C955 325.9 761.4 66.1001 522.1 21.6001" stroke="url(#paint70_linear_119_218)" stroke-width="2" stroke-miterlimit="10"/>
<path d="M1039.8 532.6C1040.3 256.7 808.5 27.9001 522 21.6001" stroke="url(#paint71_linear_119_218)" stroke-width="2" stroke-miterlimit="10"/>
<path d="M988 458.4C988.5 182.5 779.9 -13 522 21.6C395.6 -50.2 292.6 115.2 292.1 391.1C550.1 356.4 861.6 386.5 988 458.4Z" stroke="url(#paint72_linear_119_218)" stroke-width="2" stroke-miterlimit="10"/>
<path d="M924.8 214.8C815.6 152.8 546.6 126.8 324 156.7" stroke="url(#paint73_linear_119_218)" stroke-width="2" stroke-miterlimit="10"/>
<path d="M757.6 58.1C693.8 21.8 536.5 6.60003 406.4 24.1" stroke="url(#paint74_linear_119_218)" stroke-width="2" stroke-miterlimit="10"/>
<path d="M808.7 401.3C809.2 125.4 680.9 -44.5999 522 21.6001" stroke="url(#paint75_linear_119_218)" stroke-width="2" stroke-miterlimit="10"/>
<path d="M559.1 377.2C559.6 101.3 543 -57.9 522.1 21.7" stroke="url(#paint76_linear_119_218)" stroke-width="2" stroke-miterlimit="10"/>
<path d="M292.2 391.1C292.7 115.2 395.6 -50.2 522.1 21.6C264.2 56.3 54.8 308.1 54.2 583.9C-72.2 512.1 34.3 425.8 292.2 391.1Z" stroke="url(#paint77_linear_119_218)" stroke-width="2" stroke-miterlimit="10"/>
<path d="M323.9 156.7C101.3 186.7 9.29999 261.2 118.5 323.2" stroke="url(#paint78_linear_119_218)" stroke-width="2" stroke-miterlimit="10"/>
<path d="M406.4 24.2C276.3 41.7 222.5 85.3 286.3 121.5" stroke="url(#paint79_linear_119_218)" stroke-width="2" stroke-miterlimit="10"/>
<path d="M87.8 440.5C88.3 164.6 282.7 -22.9 522.1 21.6" stroke="url(#paint80_linear_119_218)" stroke-width="2" stroke-miterlimit="10"/>
<path d="M2.39999 509.7C2.99999 233.8 235.6 15.2999 522.1 21.5999" stroke="url(#paint81_linear_119_218)" stroke-width="2" stroke-miterlimit="10"/>
<path d="M590.5 1036.6C586.4 1037.1 581 1037.8 577 1038.2C560.9 1039.8 559.2 1039.9 551.7 1040.3C541.9 1040.8 538.3 1041 528.4 1041.1C516.3 1041.3 506 1040.9 505.9 1040.9C499 1040.7 492.5 1040.4 482.9 1039.7C473.5 1039 467.7 1038.4 458.4 1037.3C454.5 1036.8 449.2 1036.1 445.3 1035.5C441 1034.9 435.2 1033.9 430.9 1033.2C426.4 1032.5 420.5 1031.2 416.1 1030.4C410.7 1029.4 403.7 1027.7 398.4 1026.4C392.6 1025 384.9 1023 379.2 1021.3C366.1 1017.5 348.7 1011.7 335.9 1006.9C326.5 1003.3 314 998.2 304.9 993.9C292.6 988.1 276.5 979.8 264.6 973.3C137.6 901.2 53.9 758.6 54.3 583.7C54.8 307.8 264.3 56 522.1 21.4C264.2 56.3 54.8 308.1 54.2 583.9C53.9 758.8 137.6 901.3 264.5 973.5C255.6 968.1 243.5 961.3 234.9 955.3C221.2 945.9 203.3 932.8 190.4 922.4C172.7 908.2 151.4 886.6 135.7 870.2C125.4 859.4 112.6 844.1 104.1 831.8C96.2 820.4 85.5 805.4 78.2 793.7C71.9 783.6 63.8 769.8 58.6 759.1C52.8 746.9 44.9 730.7 39.7 718.2C35 707 29.5 691.7 25.8 680.1C21.7 667.2 17 649.8 13.9 636.6C11.1 624.5 8.3 608.1 6.4 595.8C2.9 573.3 0.799999 542.9 1.1 520.1C1.4 494.8 4.5 461.1 8 436.1C9.9 422.7 13.4 405 17.2 392C20.7 380.3 24.9 364.4 28.9 352.9C33.2 340.3 39.2 323.6 45 311.6C50.2 300.8 56.8 286.2 62.5 275.6C68.8 263.9 77.8 248.7 85 237.5C91.4 227.7 100.4 214.8 107.6 205.5C115.8 194.9 127.1 181 136.2 171.2C144 162.9 154.4 151.9 162.7 144.1C172.7 134.7 186.4 122.7 197.1 114.1C205.4 107.5 216.8 98.9 225.6 92.9C237.5 84.9 253.7 74.9 266.1 67.6C273.9 63 284.7 57.5 292.9 53.5C302 49.1 314.3 43.3 323.7 39.6C335.1 35.1 350.4 29.4 362 25.7C373.3 22.1 388.5 17.9 400 15.1C410.8 12.5 425.3 9.49998 436.2 7.69998C440.8 6.99998 447 5.89998 451.6 5.39998C459.6 4.39998 470.2 3.29998 478.2 2.49998C481.9 2.19998 486.8 1.79998 490.5 1.59998C505.3 0.899976 505.3 0.899976 513.8 0.799976C517.2 0.699976 521.7 0.699976 525.1 0.799976C531.9 0.899976 540.9 1.19998 547.7 1.49998C551.2 1.59998 555.9 1.99998 559.4 2.19998C563 2.49998 567.7 2.89998 571.2 3.19998C575 3.49998 580.1 4.19998 583.9 4.59998C593.9 5.69998 608.2 8.09998 611.4 8.69998C624 11.3 633 13 644 15.7C649.8 17.2 657.5 19.1 663.2 20.8C669.7 22.7 678.3 25.2 684.6 27.4C692.5 30.2 703.1 33.8 710.9 36.9C718.9 40.1 729.7 44.4 737.4 48.2C749.6 54.1 765.8 62.2 777.7 68.8C786.9 73.9 799 81.1 807.6 87.2C816.3 93.4 828.2 101.3 836.7 107.9C848.2 116.9 863.3 129.3 874.1 139.3C882.5 147.1 893.5 157.8 901.2 166.2C910.9 176.7 923.5 191 932.1 202.4C939.2 211.8 948.6 224.4 955 234.3C962.5 245.7 971.9 261.4 978.5 273.4C990.1 294.5 1002.5 324.3 1011.3 346.8C1016.3 359.5 1021.2 377.1 1024.6 390.2C1027.8 402.2 1030.7 418.4 1033.4 430.5C1036.3 443.9 1038.3 462.2 1039.3 475.9C1040.3 489.7 1041.2 508.2 1041.2 522.1C1041.2 534.8 1040 551.8 1039.4 564.6C1038.7 579.9 1035.9 600.2 1032.7 615.1C1030.1 627.2 1026.9 643.4 1023.7 655.3C1020.2 668.3 1014.9 685.4 1010.3 698.1C1006.2 709.5 1000.2 724.4 995.1 735.4C989.5 747.6 981.7 763.8 974.9 775.4C963 795.7 945.3 821.7 931.4 840.7C923.5 851.5 911.5 864.9 902.4 874.7C892.7 885.3 879.2 898.9 868.3 908.2C852.1 922.1 830 940 812.3 952C800.4 960.1 784.1 970.3 771.4 977C763.5 981.2 753 986.8 744.9 990.6C735.3 995.1 722.4 1001 712.5 1004.8C706.9 1007 699.4 1009.9 693.6 1011.8C682.3 1015.5 667.2 1020.5 655.7 1023.5C644.8 1026.4 630.1 1029.7 619 1032C610.7 1033.6 599.2 1035.5 590.5 1036.6Z" stroke="url(#paint82_linear_119_218)" stroke-width="2" stroke-miterlimit="10"/>
<path d="M590.5 1036.6C586.4 1037.1 581 1037.8 577 1038.2C560.9 1039.8 559.2 1039.9 551.7 1040.3C541.9 1040.8 538.3 1041 528.4 1041.1C516.3 1041.3 506 1040.9 505.9 1040.9C499 1040.7 492.5 1040.4 482.9 1039.7C473.5 1039 467.7 1038.4 458.4 1037.3C454.5 1036.8 449.2 1036.1 445.3 1035.5C441 1034.9 435.2 1033.9 430.9 1033.2C426.4 1032.5 420.5 1031.2 416.1 1030.4C410.7 1029.4 403.7 1027.7 398.4 1026.4C392.6 1025 384.9 1023 379.2 1021.3C366.1 1017.5 348.7 1011.7 335.9 1006.9C326.5 1003.3 314 998.2 304.9 993.9C292.6 988.1 276.5 979.8 264.6 973.3C137.6 901.2 53.9 758.6 54.3 583.7C54.8 307.8 264.3 56 522.1 21.4C264.2 56.3 54.8 308.1 54.2 583.9C53.9 758.8 137.6 901.3 264.5 973.5C255.6 968.1 243.5 961.3 234.9 955.3C221.2 945.9 203.3 932.8 190.4 922.4C172.7 908.2 151.4 886.6 135.7 870.2C125.4 859.4 112.6 844.1 104.1 831.8C96.2 820.4 85.5 805.4 78.2 793.7C71.9 783.6 63.8 769.8 58.6 759.1C52.8 746.9 44.9 730.7 39.7 718.2C35 707 29.5 691.7 25.8 680.1C21.7 667.2 17 649.8 13.9 636.6C11.1 624.5 8.3 608.1 6.4 595.8C2.9 573.3 0.799999 542.9 1.1 520.1C1.4 494.8 4.5 461.1 8 436.1C9.9 422.7 13.4 405 17.2 392C20.7 380.3 24.9 364.4 28.9 352.9C33.2 340.3 39.2 323.6 45 311.6C50.2 300.8 56.8 286.2 62.5 275.6C68.8 263.9 77.8 248.7 85 237.5C91.4 227.7 100.4 214.8 107.6 205.5C115.8 194.9 127.1 181 136.2 171.2C144 162.9 154.4 151.9 162.7 144.1C172.7 134.7 186.4 122.7 197.1 114.1C205.4 107.5 216.8 98.9 225.6 92.9C237.5 84.9 253.7 74.9 266.1 67.6C273.9 63 284.7 57.5 292.9 53.5C302 49.1 314.3 43.3 323.7 39.6C335.1 35.1 350.4 29.4 362 25.7C373.3 22.1 388.5 17.9 400 15.1C410.8 12.5 425.3 9.49998 436.2 7.69998C440.8 6.99998 447 5.89998 451.6 5.39998C459.6 4.39998 470.2 3.29998 478.2 2.49998C481.9 2.19998 486.8 1.79998 490.5 1.59998C505.3 0.899976 505.3 0.899976 513.8 0.799976C517.2 0.699976 521.7 0.699976 525.1 0.799976C531.9 0.899976 540.9 1.19998 547.7 1.49998C551.2 1.59998 555.9 1.99998 559.4 2.19998C563 2.49998 567.7 2.89998 571.2 3.19998C575 3.49998 580.1 4.19998 583.9 4.59998C593.9 5.69998 608.2 8.09998 611.4 8.69998C624 11.3 633 13 644 15.7C649.8 17.2 657.5 19.1 663.2 20.8C669.7 22.7 678.3 25.2 684.6 27.4C692.5 30.2 703.1 33.8 710.9 36.9C718.9 40.1 729.7 44.4 737.4 48.2C749.6 54.1 765.8 62.2 777.7 68.8C786.9 73.9 799 81.1 807.6 87.2C816.3 93.4 828.2 101.3 836.7 107.9C848.2 116.9 863.3 129.3 874.1 139.3C882.5 147.1 893.5 157.8 901.2 166.2C910.9 176.7 923.5 191 932.1 202.4C939.2 211.8 948.6 224.4 955 234.3C962.5 245.7 971.9 261.4 978.5 273.4C990.1 294.5 1002.5 324.3 1011.3 346.8C1016.3 359.5 1021.2 377.1 1024.6 390.2C1027.8 402.2 1030.7 418.4 1033.4 430.5C1036.3 443.9 1038.3 462.2 1039.3 475.9C1040.3 489.7 1041.2 508.2 1041.2 522.1C1041.2 534.8 1040 551.8 1039.4 564.6C1038.7 579.9 1035.9 600.2 1032.7 615.1C1030.1 627.2 1026.9 643.4 1023.7 655.3C1020.2 668.3 1014.9 685.4 1010.3 698.1C1006.2 709.5 1000.2 724.4 995.1 735.4C989.5 747.6 981.7 763.8 974.9 775.4C963 795.7 945.3 821.7 931.4 840.7C923.5 851.5 911.5 864.9 902.4 874.7C892.7 885.3 879.2 898.9 868.3 908.2C852.1 922.1 830 940 812.3 952C800.4 960.1 784.1 970.3 771.4 977C763.5 981.2 753 986.8 744.9 990.6C735.3 995.1 722.4 1001 712.5 1004.8C706.9 1007 699.4 1009.9 693.6 1011.8C682.3 1015.5 667.2 1020.5 655.7 1023.5C644.8 1026.4 630.1 1029.7 619 1032C610.7 1033.6 599.2 1035.5 590.5 1036.6Z" stroke="url(#paint83_linear_119_218)" stroke-width="2" stroke-miterlimit="10"/>
<defs>
<linearGradient id="paint0_linear_119_218" x1="53.2413" y1="810.353" x2="751.074" y2="810.353" gradientUnits="userSpaceOnUse">
<stop stop-color="#B9FF1F"/>
<stop offset="1" stop-color="#B9FF1F" stop-opacity="0"/>
</linearGradient>
<linearGradient id="paint1_linear_119_218" x1="284.19" y1="1004.86" x2="636.016" y2="1004.86" gradientUnits="userSpaceOnUse">
<stop stop-color="#B9FF1F"/>
<stop offset="1" stop-color="#B9FF1F" stop-opacity="0"/>
</linearGradient>
<linearGradient id="paint2_linear_119_218" x1="117.024" y1="862.829" x2="718.481" y2="862.829" gradientUnits="userSpaceOnUse">
<stop stop-color="#B9FF1F"/>
<stop offset="1" stop-color="#B9FF1F" stop-opacity="0"/>
</linearGradient>
<linearGradient id="paint3_linear_119_218" x1="232.534" y1="838.506" x2="520.592" y2="838.506" gradientUnits="userSpaceOnUse">
<stop stop-color="#B9FF1F"/>
<stop offset="1" stop-color="#B9FF1F" stop-opacity="0"/>
</linearGradient>
<linearGradient id="paint4_linear_119_218" x1="482.154" y1="853.665" x2="521.174" y2="853.665" gradientUnits="userSpaceOnUse">
<stop stop-color="#B9FF1F"/>
<stop offset="1" stop-color="#B9FF1F" stop-opacity="0"/>
</linearGradient>
<linearGradient id="paint5_linear_119_218" x1="517.134" y1="747.568" x2="1042.25" y2="747.568" gradientUnits="userSpaceOnUse">
<stop stop-color="#B9FF1F"/>
<stop offset="1" stop-color="#B9FF1F" stop-opacity="0"/>
</linearGradient>
<linearGradient id="paint6_linear_119_218" x1="635.75" y1="969.535" x2="783.848" y2="969.535" gradientUnits="userSpaceOnUse">
<stop stop-color="#B9FF1F"/>
<stop offset="1" stop-color="#B9FF1F" stop-opacity="0"/>
</linearGradient>
<linearGradient id="paint7_linear_119_218" x1="718.214" y1="802.397" x2="970.774" y2="802.397" gradientUnits="userSpaceOnUse">
<stop stop-color="#B9FF1F"/>
<stop offset="1" stop-color="#B9FF1F" stop-opacity="0"/>
</linearGradient>
<linearGradient id="paint8_linear_119_218" x1="520.024" y1="815.008" x2="955.466" y2="815.008" gradientUnits="userSpaceOnUse">
<stop stop-color="#B9FF1F"/>
<stop offset="1" stop-color="#B9FF1F" stop-opacity="0"/>
</linearGradient>
<linearGradient id="paint9_linear_119_218" x1="520.185" y1="777.211" x2="1040.83" y2="777.211" gradientUnits="userSpaceOnUse">
<stop stop-color="#B9FF1F"/>
<stop offset="1" stop-color="#B9FF1F" stop-opacity="0"/>
</linearGradient>
<linearGradient id="paint10_linear_119_218" x1="291.196" y1="698.714" x2="989.029" y2="698.714" gradientUnits="userSpaceOnUse">
<stop stop-color="#B9FF1F"/>
<stop offset="1" stop-color="#B9FF1F" stop-opacity="0"/>
</linearGradient>
<linearGradient id="paint11_linear_119_218" x1="404.651" y1="900.128" x2="756.478" y2="900.128" gradientUnits="userSpaceOnUse">
<stop stop-color="#B9FF1F"/>
<stop offset="1" stop-color="#B9FF1F" stop-opacity="0"/>
</linearGradient>
<linearGradient id="paint12_linear_119_218" x1="322.853" y1="683.746" x2="924.309" y2="683.746" gradientUnits="userSpaceOnUse">
<stop stop-color="#B9FF1F"/>
<stop offset="1" stop-color="#B9FF1F" stop-opacity="0"/>
</linearGradient>
<linearGradient id="paint13_linear_119_218" x1="519.823" y1="711.457" x2="809.734" y2="711.457" gradientUnits="userSpaceOnUse">
<stop stop-color="#B9FF1F"/>
<stop offset="1" stop-color="#B9FF1F" stop-opacity="0"/>
</linearGradient>
<linearGradient id="paint14_linear_119_218" x1="519.24" y1="699.054" x2="560.104" y2="699.054" gradientUnits="userSpaceOnUse">
<stop stop-color="#B9FF1F"/>
<stop offset="1" stop-color="#B9FF1F" stop-opacity="0"/>
</linearGradient>
<linearGradient id="paint15_linear_119_218" x1="0.0169744" y1="707.813" x2="523.28" y2="707.813" gradientUnits="userSpaceOnUse">
<stop stop-color="#B9FF1F"/>
<stop offset="1" stop-color="#B9FF1F" stop-opacity="0"/>
</linearGradient>
<linearGradient id="paint16_linear_119_218" x1="256.82" y1="935.454" x2="404.918" y2="935.454" gradientUnits="userSpaceOnUse">
<stop stop-color="#B9FF1F"/>
<stop offset="1" stop-color="#B9FF1F" stop-opacity="0"/>
</linearGradient>
<linearGradient id="paint17_linear_119_218" x1="70.5599" y1="744.178" x2="323.119" y2="744.178" gradientUnits="userSpaceOnUse">
<stop stop-color="#B9FF1F"/>
<stop offset="1" stop-color="#B9FF1F" stop-opacity="0"/>
</linearGradient>
<linearGradient id="paint18_linear_119_218" x1="86.8037" y1="731.107" x2="520.39" y2="731.107" gradientUnits="userSpaceOnUse">
<stop stop-color="#B9FF1F"/>
<stop offset="1" stop-color="#B9FF1F" stop-opacity="0"/>
</linearGradient>
<linearGradient id="paint19_linear_119_218" x1="1.43699" y1="765.709" x2="520.229" y2="765.709" gradientUnits="userSpaceOnUse">
<stop stop-color="#B9FF1F"/>
<stop offset="1" stop-color="#B9FF1F" stop-opacity="0"/>
</linearGradient>
<linearGradient id="paint20_linear_119_218" x1="53.2412" y1="343.603" x2="751.074" y2="343.603" gradientUnits="userSpaceOnUse">
<stop stop-color="#B9FF1F"/>
<stop offset="1" stop-color="#B9FF1F" stop-opacity="0"/>
</linearGradient>
<linearGradient id="paint21_linear_119_218" x1="117.961" y1="358.574" x2="719.417" y2="358.574" gradientUnits="userSpaceOnUse">
<stop stop-color="#B9FF1F"/>
<stop offset="1" stop-color="#B9FF1F" stop-opacity="0"/>
</linearGradient>
<linearGradient id="paint22_linear_119_218" x1="285.792" y1="142.187" x2="637.619" y2="142.187" gradientUnits="userSpaceOnUse">
<stop stop-color="#B9FF1F"/>
<stop offset="1" stop-color="#B9FF1F" stop-opacity="0"/>
</linearGradient>
<linearGradient id="paint23_linear_119_218" x1="232.536" y1="330.86" x2="522.448" y2="330.86" gradientUnits="userSpaceOnUse">
<stop stop-color="#B9FF1F"/>
<stop offset="1" stop-color="#B9FF1F" stop-opacity="0"/>
</linearGradient>
<linearGradient id="paint24_linear_119_218" x1="482.166" y1="343.263" x2="523.03" y2="343.263" gradientUnits="userSpaceOnUse">
<stop stop-color="#B9FF1F"/>
<stop offset="1" stop-color="#B9FF1F" stop-opacity="0"/>
</linearGradient>
<linearGradient id="paint25_linear_119_218" x1="518.99" y1="334.505" x2="1042.25" y2="334.505" gradientUnits="userSpaceOnUse">
<stop stop-color="#B9FF1F"/>
<stop offset="1" stop-color="#B9FF1F" stop-opacity="0"/>
</linearGradient>
<linearGradient id="paint26_linear_119_218" x1="719.151" y1="298.142" x2="971.71" y2="298.142" gradientUnits="userSpaceOnUse">
<stop stop-color="#B9FF1F"/>
<stop offset="1" stop-color="#B9FF1F" stop-opacity="0"/>
</linearGradient>
<linearGradient id="paint27_linear_119_218" x1="637.352" y1="106.861" x2="785.45" y2="106.861" gradientUnits="userSpaceOnUse">
<stop stop-color="#B9FF1F"/>
<stop offset="1" stop-color="#B9FF1F" stop-opacity="0"/>
</linearGradient>
<linearGradient id="paint28_linear_119_218" x1="521.88" y1="311.21" x2="955.467" y2="311.21" gradientUnits="userSpaceOnUse">
<stop stop-color="#B9FF1F"/>
<stop offset="1" stop-color="#B9FF1F" stop-opacity="0"/>
</linearGradient>
<linearGradient id="paint29_linear_119_218" x1="522.041" y1="276.608" x2="1040.83" y2="276.608" gradientUnits="userSpaceOnUse">
<stop stop-color="#B9FF1F"/>
<stop offset="1" stop-color="#B9FF1F" stop-opacity="0"/>
</linearGradient>
<linearGradient id="paint30_linear_119_218" x1="291.196" y1="231.965" x2="989.029" y2="231.965" gradientUnits="userSpaceOnUse">
<stop stop-color="#B9FF1F"/>
<stop offset="1" stop-color="#B9FF1F" stop-opacity="0"/>
</linearGradient>
<linearGradient id="paint31_linear_119_218" x1="323.789" y1="179.49" x2="925.246" y2="179.49" gradientUnits="userSpaceOnUse">
<stop stop-color="#B9FF1F"/>
<stop offset="1" stop-color="#B9FF1F" stop-opacity="0"/>
</linearGradient>
<linearGradient id="paint32_linear_119_218" x1="406.254" y1="37.4545" x2="758.08" y2="37.4545" gradientUnits="userSpaceOnUse">
<stop stop-color="#B9FF1F"/>
<stop offset="1" stop-color="#B9FF1F" stop-opacity="0"/>
</linearGradient>
<linearGradient id="paint33_linear_119_218" x1="521.678" y1="203.812" x2="809.736" y2="203.812" gradientUnits="userSpaceOnUse">
<stop stop-color="#B9FF1F"/>
<stop offset="1" stop-color="#B9FF1F" stop-opacity="0"/>
</linearGradient>
<linearGradient id="paint34_linear_119_218" x1="521.096" y1="188.653" x2="560.116" y2="188.653" gradientUnits="userSpaceOnUse">
<stop stop-color="#B9FF1F"/>
<stop offset="1" stop-color="#B9FF1F" stop-opacity="0"/>
</linearGradient>
<linearGradient id="paint35_linear_119_218" x1="0.0169745" y1="294.75" x2="525.136" y2="294.75" gradientUnits="userSpaceOnUse">
<stop stop-color="#B9FF1F"/>
<stop offset="1" stop-color="#B9FF1F" stop-opacity="0"/>
</linearGradient>
<linearGradient id="paint36_linear_119_218" x1="71.4965" y1="239.923" x2="324.056" y2="239.923" gradientUnits="userSpaceOnUse">
<stop stop-color="#B9FF1F"/>
<stop offset="1" stop-color="#B9FF1F" stop-opacity="0"/>
</linearGradient>
<linearGradient id="paint37_linear_119_218" x1="258.422" y1="72.7804" x2="406.52" y2="72.7804" gradientUnits="userSpaceOnUse">
<stop stop-color="#B9FF1F"/>
<stop offset="1" stop-color="#B9FF1F" stop-opacity="0"/>
</linearGradient>
<linearGradient id="paint38_linear_119_218" x1="86.8047" y1="227.31" x2="522.246" y2="227.31" gradientUnits="userSpaceOnUse">
<stop stop-color="#B9FF1F"/>
<stop offset="1" stop-color="#B9FF1F" stop-opacity="0"/>
</linearGradient>
<linearGradient id="paint39_linear_119_218" x1="1.43779" y1="265.107" x2="522.085" y2="265.107" gradientUnits="userSpaceOnUse">
<stop stop-color="#B9FF1F"/>
<stop offset="1" stop-color="#B9FF1F" stop-opacity="0"/>
</linearGradient>
<linearGradient id="paint40_linear_119_218" x1="0.0125774" y1="521.145" x2="1042.41" y2="521.145" gradientUnits="userSpaceOnUse">
<stop stop-color="#B9FF1F"/>
<stop offset="1" stop-color="#B9FF1F" stop-opacity="0"/>
</linearGradient>
<linearGradient id="paint41_linear_119_218" x1="0.0125774" y1="521.145" x2="1042.41" y2="521.145" gradientUnits="userSpaceOnUse">
<stop stop-color="#B9FF1F"/>
<stop offset="1" stop-color="#B9FF1F" stop-opacity="0"/>
</linearGradient>
<linearGradient id="paint42_linear_119_218" x1="53.2413" y1="810.353" x2="751.074" y2="810.353" gradientUnits="userSpaceOnUse">
<stop stop-color="#B9FF1F"/>
<stop offset="1" stop-color="#B9FF1F" stop-opacity="0"/>
</linearGradient>
<linearGradient id="paint43_linear_119_218" x1="284.19" y1="1004.86" x2="636.016" y2="1004.86" gradientUnits="userSpaceOnUse">
<stop stop-color="#B9FF1F"/>
<stop offset="1" stop-color="#B9FF1F" stop-opacity="0"/>
</linearGradient>
<linearGradient id="paint44_linear_119_218" x1="117.024" y1="862.829" x2="718.481" y2="862.829" gradientUnits="userSpaceOnUse">
<stop stop-color="#B9FF1F"/>
<stop offset="1" stop-color="#B9FF1F" stop-opacity="0"/>
</linearGradient>
<linearGradient id="paint45_linear_119_218" x1="232.534" y1="838.506" x2="520.592" y2="838.506" gradientUnits="userSpaceOnUse">
<stop stop-color="#B9FF1F"/>
<stop offset="1" stop-color="#B9FF1F" stop-opacity="0"/>
</linearGradient>
<linearGradient id="paint46_linear_119_218" x1="482.154" y1="853.665" x2="521.174" y2="853.665" gradientUnits="userSpaceOnUse">
<stop stop-color="#B9FF1F"/>
<stop offset="1" stop-color="#B9FF1F" stop-opacity="0"/>
</linearGradient>
<linearGradient id="paint47_linear_119_218" x1="517.134" y1="747.568" x2="1042.25" y2="747.568" gradientUnits="userSpaceOnUse">
<stop stop-color="#B9FF1F"/>
<stop offset="1" stop-color="#B9FF1F" stop-opacity="0"/>
</linearGradient>
<linearGradient id="paint48_linear_119_218" x1="635.75" y1="969.535" x2="783.848" y2="969.535" gradientUnits="userSpaceOnUse">
<stop stop-color="#B9FF1F"/>
<stop offset="1" stop-color="#B9FF1F" stop-opacity="0"/>
</linearGradient>
<linearGradient id="paint49_linear_119_218" x1="718.214" y1="802.397" x2="970.774" y2="802.397" gradientUnits="userSpaceOnUse">
<stop stop-color="#B9FF1F"/>
<stop offset="1" stop-color="#B9FF1F" stop-opacity="0"/>
</linearGradient>
<linearGradient id="paint50_linear_119_218" x1="520.024" y1="815.008" x2="955.466" y2="815.008" gradientUnits="userSpaceOnUse">
<stop stop-color="#B9FF1F"/>
<stop offset="1" stop-color="#B9FF1F" stop-opacity="0"/>
</linearGradient>
<linearGradient id="paint51_linear_119_218" x1="520.185" y1="777.211" x2="1040.83" y2="777.211" gradientUnits="userSpaceOnUse">
<stop stop-color="#B9FF1F"/>
<stop offset="1" stop-color="#B9FF1F" stop-opacity="0"/>
</linearGradient>
<linearGradient id="paint52_linear_119_218" x1="291.196" y1="698.714" x2="989.029" y2="698.714" gradientUnits="userSpaceOnUse">
<stop stop-color="#B9FF1F"/>
<stop offset="1" stop-color="#B9FF1F" stop-opacity="0"/>
</linearGradient>
<linearGradient id="paint53_linear_119_218" x1="404.651" y1="900.128" x2="756.478" y2="900.128" gradientUnits="userSpaceOnUse">
<stop stop-color="#B9FF1F"/>
<stop offset="1" stop-color="#B9FF1F" stop-opacity="0"/>
</linearGradient>
<linearGradient id="paint54_linear_119_218" x1="322.853" y1="683.746" x2="924.309" y2="683.746" gradientUnits="userSpaceOnUse">
<stop stop-color="#B9FF1F"/>
<stop offset="1" stop-color="#B9FF1F" stop-opacity="0"/>
</linearGradient>
<linearGradient id="paint55_linear_119_218" x1="519.823" y1="711.457" x2="809.734" y2="711.457" gradientUnits="userSpaceOnUse">
<stop stop-color="#B9FF1F"/>
<stop offset="1" stop-color="#B9FF1F" stop-opacity="0"/>
</linearGradient>
<linearGradient id="paint56_linear_119_218" x1="519.24" y1="699.054" x2="560.104" y2="699.054" gradientUnits="userSpaceOnUse">
<stop stop-color="#B9FF1F"/>
<stop offset="1" stop-color="#B9FF1F" stop-opacity="0"/>
</linearGradient>
<linearGradient id="paint57_linear_119_218" x1="0.0169744" y1="707.813" x2="523.28" y2="707.813" gradientUnits="userSpaceOnUse">
<stop stop-color="#B9FF1F"/>
<stop offset="1" stop-color="#B9FF1F" stop-opacity="0"/>
</linearGradient>
<linearGradient id="paint58_linear_119_218" x1="256.82" y1="935.454" x2="404.918" y2="935.454" gradientUnits="userSpaceOnUse">
<stop stop-color="#B9FF1F"/>
<stop offset="1" stop-color="#B9FF1F" stop-opacity="0"/>
</linearGradient>
<linearGradient id="paint59_linear_119_218" x1="70.5599" y1="744.178" x2="323.119" y2="744.178" gradientUnits="userSpaceOnUse">
<stop stop-color="#B9FF1F"/>
<stop offset="1" stop-color="#B9FF1F" stop-opacity="0"/>
</linearGradient>
<linearGradient id="paint60_linear_119_218" x1="86.8037" y1="731.108" x2="520.39" y2="731.108" gradientUnits="userSpaceOnUse">
<stop stop-color="#B9FF1F"/>
<stop offset="1" stop-color="#B9FF1F" stop-opacity="0"/>
</linearGradient>
<linearGradient id="paint61_linear_119_218" x1="1.43699" y1="765.709" x2="520.229" y2="765.709" gradientUnits="userSpaceOnUse">
<stop stop-color="#B9FF1F"/>
<stop offset="1" stop-color="#B9FF1F" stop-opacity="0"/>
</linearGradient>
<linearGradient id="paint62_linear_119_218" x1="53.2412" y1="343.603" x2="751.074" y2="343.603" gradientUnits="userSpaceOnUse">
<stop stop-color="#B9FF1F"/>
<stop offset="1" stop-color="#B9FF1F" stop-opacity="0"/>
</linearGradient>
<linearGradient id="paint63_linear_119_218" x1="117.961" y1="358.574" x2="719.417" y2="358.574" gradientUnits="userSpaceOnUse">
<stop stop-color="#B9FF1F"/>
<stop offset="1" stop-color="#B9FF1F" stop-opacity="0"/>
</linearGradient>
<linearGradient id="paint64_linear_119_218" x1="285.792" y1="142.188" x2="637.619" y2="142.188" gradientUnits="userSpaceOnUse">
<stop stop-color="#B9FF1F"/>
<stop offset="1" stop-color="#B9FF1F" stop-opacity="0"/>
</linearGradient>
<linearGradient id="paint65_linear_119_218" x1="232.536" y1="330.86" x2="522.448" y2="330.86" gradientUnits="userSpaceOnUse">
<stop stop-color="#B9FF1F"/>
<stop offset="1" stop-color="#B9FF1F" stop-opacity="0"/>
</linearGradient>
<linearGradient id="paint66_linear_119_218" x1="482.166" y1="343.263" x2="523.03" y2="343.263" gradientUnits="userSpaceOnUse">
<stop stop-color="#B9FF1F"/>
<stop offset="1" stop-color="#B9FF1F" stop-opacity="0"/>
</linearGradient>
<linearGradient id="paint67_linear_119_218" x1="518.99" y1="334.505" x2="1042.25" y2="334.505" gradientUnits="userSpaceOnUse">
<stop stop-color="#B9FF1F"/>
<stop offset="1" stop-color="#B9FF1F" stop-opacity="0"/>
</linearGradient>
<linearGradient id="paint68_linear_119_218" x1="719.151" y1="298.142" x2="971.71" y2="298.142" gradientUnits="userSpaceOnUse">
<stop stop-color="#B9FF1F"/>
<stop offset="1" stop-color="#B9FF1F" stop-opacity="0"/>
</linearGradient>
<linearGradient id="paint69_linear_119_218" x1="637.352" y1="106.862" x2="785.45" y2="106.862" gradientUnits="userSpaceOnUse">
<stop stop-color="#B9FF1F"/>
<stop offset="1" stop-color="#B9FF1F" stop-opacity="0"/>
</linearGradient>
<linearGradient id="paint70_linear_119_218" x1="521.88" y1="311.21" x2="955.467" y2="311.21" gradientUnits="userSpaceOnUse">
<stop stop-color="#B9FF1F"/>
<stop offset="1" stop-color="#B9FF1F" stop-opacity="0"/>
</linearGradient>
<linearGradient id="paint71_linear_119_218" x1="522.041" y1="276.609" x2="1040.83" y2="276.609" gradientUnits="userSpaceOnUse">
<stop stop-color="#B9FF1F"/>
<stop offset="1" stop-color="#B9FF1F" stop-opacity="0"/>
</linearGradient>
<linearGradient id="paint72_linear_119_218" x1="291.196" y1="231.965" x2="989.029" y2="231.965" gradientUnits="userSpaceOnUse">
<stop stop-color="#B9FF1F"/>
<stop offset="1" stop-color="#B9FF1F" stop-opacity="0"/>
</linearGradient>
<linearGradient id="paint73_linear_119_218" x1="323.789" y1="179.491" x2="925.246" y2="179.491" gradientUnits="userSpaceOnUse">
<stop stop-color="#B9FF1F"/>
<stop offset="1" stop-color="#B9FF1F" stop-opacity="0"/>
</linearGradient>
<linearGradient id="paint74_linear_119_218" x1="406.254" y1="37.4546" x2="758.08" y2="37.4546" gradientUnits="userSpaceOnUse">
<stop stop-color="#B9FF1F"/>
<stop offset="1" stop-color="#B9FF1F" stop-opacity="0"/>
</linearGradient>
<linearGradient id="paint75_linear_119_218" x1="521.678" y1="203.812" x2="809.736" y2="203.812" gradientUnits="userSpaceOnUse">
<stop stop-color="#B9FF1F"/>
<stop offset="1" stop-color="#B9FF1F" stop-opacity="0"/>
</linearGradient>
<linearGradient id="paint76_linear_119_218" x1="521.096" y1="188.653" x2="560.116" y2="188.653" gradientUnits="userSpaceOnUse">
<stop stop-color="#B9FF1F"/>
<stop offset="1" stop-color="#B9FF1F" stop-opacity="0"/>
</linearGradient>
<linearGradient id="paint77_linear_119_218" x1="0.0169745" y1="294.75" x2="525.136" y2="294.75" gradientUnits="userSpaceOnUse">
<stop stop-color="#B9FF1F"/>
<stop offset="1" stop-color="#B9FF1F" stop-opacity="0"/>
</linearGradient>
<linearGradient id="paint78_linear_119_218" x1="71.4965" y1="239.923" x2="324.056" y2="239.923" gradientUnits="userSpaceOnUse">
<stop stop-color="#B9FF1F"/>
<stop offset="1" stop-color="#B9FF1F" stop-opacity="0"/>
</linearGradient>
<linearGradient id="paint79_linear_119_218" x1="258.422" y1="72.7806" x2="406.52" y2="72.7806" gradientUnits="userSpaceOnUse">
<stop stop-color="#B9FF1F"/>
<stop offset="1" stop-color="#B9FF1F" stop-opacity="0"/>
</linearGradient>
<linearGradient id="paint80_linear_119_218" x1="86.8047" y1="227.31" x2="522.246" y2="227.31" gradientUnits="userSpaceOnUse">
<stop stop-color="#B9FF1F"/>
<stop offset="1" stop-color="#B9FF1F" stop-opacity="0"/>
</linearGradient>
<linearGradient id="paint81_linear_119_218" x1="1.43779" y1="265.107" x2="522.085" y2="265.107" gradientUnits="userSpaceOnUse">
<stop stop-color="#B9FF1F"/>
<stop offset="1" stop-color="#B9FF1F" stop-opacity="0"/>
</linearGradient>
<linearGradient id="paint82_linear_119_218" x1="-1.05437e-06" y1="521.149" x2="1042.25" y2="521.149" gradientUnits="userSpaceOnUse">
<stop stop-color="#B9FF1F"/>
<stop offset="1" stop-color="#B9FF1F" stop-opacity="0"/>
</linearGradient>
<linearGradient id="paint83_linear_119_218" x1="-1.05437e-06" y1="521.149" x2="1042.25" y2="521.149" gradientUnits="userSpaceOnUse">
<stop stop-color="#B9FF1F"/>
<stop offset="1" stop-color="#B9FF1F" stop-opacity="0"/>
</linearGradient>
</defs>
</svg>
