<svg xmlns="http://www.w3.org/2000/svg" xmlns:xlink="http://www.w3.org/1999/xlink" viewBox="0 0 321.51 241.48"><defs><style>.cls-1,.cls-2,.cls-3,.cls-4,.cls-7,.cls-8{fill:none;stroke-miterlimit:10;}.cls-1{stroke:url(#linear-gradient);}.cls-2{stroke:url(#linear-gradient-2);}.cls-3{stroke:url(#linear-gradient-3);}.cls-4{stroke:url(#linear-gradient-4);}.cls-5{fill:url(#linear-gradient-5);}.cls-6{fill:url(#linear-gradient-6);}.cls-7{stroke:url(#linear-gradient-7);}.cls-8{stroke:url(#linear-gradient-8);}</style><linearGradient id="linear-gradient" x1="160.76" y1="181.48" x2="160.76" y2="90.31" gradientUnits="userSpaceOnUse"><stop offset="0" stop-color="#bad405"/><stop offset="0.07" stop-color="#bad405" stop-opacity="0.92"/><stop offset="0.53" stop-color="#bad405" stop-opacity="0.43"/><stop offset="0.85" stop-color="#bad405" stop-opacity="0.12"/><stop offset="1" stop-color="#bad405" stop-opacity="0"/></linearGradient><linearGradient id="linear-gradient-2" x1="160.76" y1="141.48" x2="160.76" y2="70.35" xlink:href="#linear-gradient"/><linearGradient id="linear-gradient-3" x1="160.76" y1="201.48" x2="160.76" y2="130.35" xlink:href="#linear-gradient"/><linearGradient id="linear-gradient-4" x1="160.76" y1="241.48" x2="160.76" y2="150.07" xlink:href="#linear-gradient"/><linearGradient id="linear-gradient-5" x1="160.76" y1="0.98" x2="160.76" y2="120.98" xlink:href="#linear-gradient"/><linearGradient id="linear-gradient-6" x1="160.76" y1="30.98" x2="160.76" y2="90.98" xlink:href="#linear-gradient"/><linearGradient id="linear-gradient-7" x1="160.76" y1="0.48" x2="160.76" y2="121.48" xlink:href="#linear-gradient"/><linearGradient id="linear-gradient-8" x1="160.76" y1="0" x2="160.76" y2="121.96" xlink:href="#linear-gradient"/></defs><title>Asset 6</title><g id="Layer_2" data-name="Layer 2"><g id="Layer_2-2" data-name="Layer 2"><path class="cls-1" d="M278.8,90.74a241.83,241.83,0,0,1,42,29.76,241,241,0,0,1-160,60.48A241,241,0,0,1,.76,120.5a241.83,241.83,0,0,1,42-29.76"/><path class="cls-2" d="M309,70.74q6.06,4.7,11.79,9.76-5.88,5.19-12.1,10A240.86,240.86,0,0,1,160.76,141,240.86,240.86,0,0,1,12.86,90.5Q6.65,85.7.76,80.5q5.73-5.07,11.79-9.76"/><path class="cls-3" d="M309,130.74q6.06,4.69,11.79,9.76-5.88,5.19-12.1,10A240.86,240.86,0,0,1,160.76,201,240.86,240.86,0,0,1,12.86,150.5q-6.21-4.8-12.1-10,5.73-5.07,11.79-9.76"/><path class="cls-4" d="M278.37,150.5a242.09,242.09,0,0,1,42.39,30,241,241,0,0,1-160,60.48A241,241,0,0,1,.76,180.5a242.09,242.09,0,0,1,42.39-30"/><path class="cls-5" d="M160.76,4.68c10.43,36.43,19.87,45.86,56.3,56.3-36.43,10.44-45.87,19.87-56.3,56.31C150.32,80.85,140.89,71.42,104.45,61c36.44-10.44,45.87-19.87,56.31-56.3m0-3.7c-11,40-20,49-60,60,40,11.05,49,20,60,60,11-40,20-48.95,60-60-40-11-49-20-60-60Z"/><path class="cls-6" d="M160.76,34.6c4.91,16.38,10,21.47,26.37,26.38-16.37,4.92-21.46,10-26.37,26.38C155.84,71,150.75,65.9,134.38,61c16.37-4.91,21.46-10,26.38-26.38m0-3.62c-5.53,20-10,24.48-30,30,20,5.52,24.47,10,30,30,5.52-20,10-24.48,30-30-20-5.52-24.48-10-30-30Z"/><circle class="cls-7" cx="160.76" cy="60.98" r="60"/><path class="cls-8" d="M320.76,61a241,241,0,0,1-160,60.48A241,241,0,0,1,.76,61a241.88,241.88,0,0,1,320,0Zm-299-16.55a141.67,141.67,0,0,0,0,33.1m278.06,0a141.67,141.67,0,0,0,0-33.1M220.68,114a80,80,0,0,0,0-106M100.84,8a80,80,0,0,0,0,106M276.73,91.89a120.55,120.55,0,0,0,0-61.82M251,104a100.19,100.19,0,0,0,0-86.1M44.79,30.07a120.55,120.55,0,0,0,0,61.82M70.48,104a100.19,100.19,0,0,1,0-86.1"/></g></g></svg>