<svg xmlns="http://www.w3.org/2000/svg" xmlns:xlink="http://www.w3.org/1999/xlink" viewBox="0 0 506.34 201.75"><defs><style>.cls-1,.cls-2{fill:none;stroke-miterlimit:10;stroke-width:0.75px;}.cls-1{stroke:url(#linear-gradient);}.cls-2{stroke:url(#linear-gradient-2);}</style><linearGradient id="linear-gradient" x1="253.17" y1="101.35" x2="253.17" gradientUnits="userSpaceOnUse"><stop offset="0" stop-color="#bad405"/><stop offset="0.07" stop-color="#bad405" stop-opacity="0.92"/><stop offset="0.53" stop-color="#bad405" stop-opacity="0.43"/><stop offset="0.85" stop-color="#bad405" stop-opacity="0.12"/><stop offset="1" stop-color="#bad405" stop-opacity="0"/></linearGradient><linearGradient id="linear-gradient-2" x1="253.17" y1="100.4" x2="253.17" y2="201.75" xlink:href="#linear-gradient"/></defs><title>Asset 5</title><g id="Layer_2" data-name="Layer 2"><g id="Layer_1-2" data-name="Layer 1"><path class="cls-1" d="M364,101l-223-.29L1.17.38h504Zm11.45-8.17-245.83-.28m259.91-9.75L115.66,82.5m291.6-12.34L98.08,69.89m332.14-16.1L75.31,53.55M461.17,31.73,44.65,31.57M84.72.38l93.39,100.36m37.11.05L168.46.38m83.91,0V100.83m37.18,0L336.46.38m84.26,0-94,100.55"/><path class="cls-2" d="M505.17,201.38H1.17L141,101.06l223-.29Zm-129.7-92.44-245.83.28M389.55,119l-273.89.28m291.6,12.34-309.18.27M430.22,148l-354.91.24M461.17,170l-416.52.16m40.07,31.2L178.11,101m-9.65,100.37L215.22,101m37.15,100.42V100.92m84.09,100.46L289.55,100.87M420.72,201.38l-94-100.56"/></g></g></svg>