<?xml version="1.0" encoding="UTF-8"?>
<svg id="Layer_3" data-name="Layer 3" xmlns="http://www.w3.org/2000/svg" viewBox="0 0 480 480">
  <defs>
    <style>
      .cls-1 {
        fill: none;
      }

      .cls-2 {
        fill: #fb5222;
      }

      .cls-3 {
        fill: #fad937;
      }

      .cls-4 {
        fill: #010101;
      }

      .cls-5 {
        fill: #fcc5d5;
      }

      .cls-6 {
        fill: #1c6ae4;
      }
    </style>
  </defs>
  <rect class="cls-1" x="51.72" y="51.72" width="56.57" height="56.57" transform="translate(-33.14 80) rotate(-45)"/>
  <rect class="cls-1" x="211.72" y="51.72" width="56.57" height="56.57" transform="translate(13.73 193.14) rotate(-45)"/>
  <rect class="cls-1" x="371.72" y="51.72" width="56.57" height="56.57" transform="translate(60.59 306.27) rotate(-45)"/>
  <rect class="cls-1" x="51.72" y="211.72" width="56.57" height="56.57" transform="translate(-146.27 126.86) rotate(-45)"/>
  <rect class="cls-1" x="211.72" y="211.72" width="56.57" height="56.57" transform="translate(-99.41 240) rotate(-45)"/>
  <rect class="cls-1" x="371.72" y="211.72" width="56.57" height="56.57" transform="translate(-52.55 353.14) rotate(-45)"/>
  <rect class="cls-1" x="51.72" y="371.72" width="56.57" height="56.57" transform="translate(-259.41 173.73) rotate(-45)"/>
  <rect class="cls-1" x="211.72" y="371.72" width="56.57" height="56.57" transform="translate(-212.55 286.86) rotate(-45)"/>
  <rect class="cls-1" x="371.72" y="371.72" width="56.57" height="56.57" transform="translate(-165.69 400) rotate(-45)"/>
  <polygon class="cls-2" points="80 0 0 80 0 0 80 0"/>
  <polygon class="cls-3" points="160 0 160 80 80 0 160 0"/>
  <polygon class="cls-6" points="160 80 160 160 80 160 160 80"/>
  <polygon class="cls-5" points="80 160 0 160 0 80 80 160"/>
  <polygon class="cls-4" points="120 40 40 40 80 0 120 40"/>
  <polygon class="cls-2" points="160 80 120 120 120 40 160 80"/>
  <polygon class="cls-3" points="120 120 80 160 40 120 120 120"/>
  <polygon class="cls-6" points="40 40 40 120 0 80 40 40"/>
  <rect class="cls-1" x="51.72" y="51.72" width="56.57" height="56.57" transform="translate(-33.14 80) rotate(-45)"/>
  <polygon class="cls-2" points="240 0 160 80 160 0 240 0"/>
  <polygon class="cls-3" points="320 0 320 80 240 0 320 0"/>
  <polygon class="cls-6" points="320 80 320 160 240 160 320 80"/>
  <polygon class="cls-5" points="240 160 160 160 160 80 240 160"/>
  <polygon class="cls-4" points="280 40 200 40 240 0 280 40"/>
  <polygon class="cls-2" points="320 80 280 120 280 40 320 80"/>
  <polygon class="cls-3" points="280 120 240 160 200 120 280 120"/>
  <polygon class="cls-6" points="200 40 200 120 160 80 200 40"/>
  <rect class="cls-1" x="211.72" y="51.72" width="56.57" height="56.57" transform="translate(13.73 193.14) rotate(-45)"/>
  <polygon class="cls-2" points="400 0 320 80 320 0 400 0"/>
  <polygon class="cls-3" points="480 0 480 80 400 0 480 0"/>
  <polygon class="cls-6" points="480 80 480 160 400 160 480 80"/>
  <polygon class="cls-5" points="400 160 320 160 320 80 400 160"/>
  <polygon class="cls-4" points="440 40 360 40 400 0 440 40"/>
  <polygon class="cls-2" points="480 80 440 120 440 40 480 80"/>
  <polygon class="cls-3" points="440 120 400 160 360 120 440 120"/>
  <polygon class="cls-6" points="360 40 360 120 320 80 360 40"/>
  <rect class="cls-1" x="371.72" y="51.72" width="56.57" height="56.57" transform="translate(60.59 306.27) rotate(-45)"/>
  <polygon class="cls-2" points="80 160 0 240 0 160 80 160"/>
  <polygon class="cls-3" points="160 160 160 240 80 160 160 160"/>
  <polygon class="cls-6" points="160 240 160 320 80 320 160 240"/>
  <polygon class="cls-5" points="80 320 0 320 0 240 80 320"/>
  <polygon class="cls-4" points="120 200 40 200 80 160 120 200"/>
  <polygon class="cls-2" points="160 240 120 280 120 200 160 240"/>
  <polygon class="cls-3" points="120 280 80 320 40 280 120 280"/>
  <polygon class="cls-6" points="40 200 40 280 0 240 40 200"/>
  <rect class="cls-1" x="51.72" y="211.72" width="56.57" height="56.57" transform="translate(-146.27 126.86) rotate(-45)"/>
  <polygon class="cls-2" points="240 160 160 240 160 160 240 160"/>
  <polygon class="cls-3" points="320 160 320 240 240 160 320 160"/>
  <polygon class="cls-6" points="320 240 320 320 240 320 320 240"/>
  <polygon class="cls-5" points="240 320 160 320 160 240 240 320"/>
  <polygon class="cls-4" points="280 200 200 200 240 160 280 200"/>
  <polygon class="cls-2" points="320 240 280 280 280 200 320 240"/>
  <polygon class="cls-3" points="280 280 240 320 200 280 280 280"/>
  <polygon class="cls-6" points="200 200 200 280 160 240 200 200"/>
  <rect class="cls-1" x="211.72" y="211.72" width="56.57" height="56.57" transform="translate(-99.41 240) rotate(-45)"/>
  <polygon class="cls-2" points="400 160 320 240 320 160 400 160"/>
  <polygon class="cls-3" points="480 160 480 240 400 160 480 160"/>
  <polygon class="cls-6" points="480 240 480 320 400 320 480 240"/>
  <polygon class="cls-5" points="400 320 320 320 320 240 400 320"/>
  <polygon class="cls-4" points="440 200 360 200 400 160 440 200"/>
  <polygon class="cls-2" points="480 240 440 280 440 200 480 240"/>
  <polygon class="cls-3" points="440 280 400 320 360 280 440 280"/>
  <polygon class="cls-6" points="360 200 360 280 320 240 360 200"/>
  <rect class="cls-1" x="371.72" y="211.72" width="56.57" height="56.57" transform="translate(-52.55 353.14) rotate(-45)"/>
  <polygon class="cls-2" points="80 320 0 400 0 320 80 320"/>
  <polygon class="cls-3" points="160 320 160 400 80 320 160 320"/>
  <polygon class="cls-6" points="160 400 160 480 80 480 160 400"/>
  <polygon class="cls-5" points="80 480 0 480 0 400 80 480"/>
  <polygon class="cls-4" points="120 360 40 360 80 320 120 360"/>
  <polygon class="cls-2" points="160 400 120 440 120 360 160 400"/>
  <polygon class="cls-3" points="120 440 80 480 40 440 120 440"/>
  <polygon class="cls-6" points="40 360 40 440 0 400 40 360"/>
  <rect class="cls-1" x="51.72" y="371.72" width="56.57" height="56.57" transform="translate(-259.41 173.73) rotate(-45)"/>
  <polygon class="cls-3" points="320 320 320 400 240 320 320 320"/>
  <polygon class="cls-6" points="320 400 320 480 240 480 320 400"/>
  <polygon class="cls-5" points="240 480 160 480 160 400 240 480"/>
  <polygon class="cls-4" points="280 360 200 360 240 320 280 360"/>
  <polygon class="cls-2" points="240 320 160 400 160 320 240 320"/>
  <polygon class="cls-2" points="320 400 280 440 280 360 320 400"/>
  <polygon class="cls-3" points="280 440 240 480 200 440 280 440"/>
  <polygon class="cls-6" points="200 360 200 440 160 400 200 360"/>
  <rect class="cls-1" x="211.72" y="371.72" width="56.57" height="56.57" transform="translate(-212.55 286.86) rotate(-45)"/>
  <polygon class="cls-2" points="400 320 320 400 320 320 400 320"/>
  <polygon class="cls-3" points="480 320 480 400 400 320 480 320"/>
  <polygon class="cls-6" points="480 400 480 480 400 480 480 400"/>
  <polygon class="cls-5" points="400 480 320 480 320 400 400 480"/>
  <polygon class="cls-4" points="440 360 360 360 400 320 440 360"/>
  <polygon class="cls-2" points="480 400 440 440 440 360 480 400"/>
  <polygon class="cls-3" points="440 440 400 480 360 440 440 440"/>
  <polygon class="cls-6" points="360 360 360 440 320 400 360 360"/>
  <rect class="cls-1" x="371.72" y="371.72" width="56.57" height="56.57" transform="translate(-165.69 400) rotate(-45)"/>
  <polygon class="cls-5" points="80 40 40 80 40 40 80 40"/>
  <polygon class="cls-6" points="120 40 120 80 80 40 120 40"/>
  <polygon class="cls-4" points="120 80 120 120 80 120 120 80"/>
  <polygon class="cls-2" points="80 120 40 120 40 80 80 120"/>
  <rect class="cls-1" x="51.72" y="51.72" width="56.57" height="56.57" transform="translate(-33.14 80) rotate(-45)"/>
  <polygon class="cls-5" points="80 200 40 240 40 200 80 200"/>
  <polygon class="cls-6" points="120 200 120 240 80 200 120 200"/>
  <polygon class="cls-4" points="120 240 120 280 80 280 120 240"/>
  <polygon class="cls-2" points="80 280 40 280 40 240 80 280"/>
  <rect class="cls-1" x="51.72" y="211.72" width="56.57" height="56.57" transform="translate(-146.27 126.86) rotate(-45)"/>
  <polygon class="cls-5" points="80 360 40 400 40 360 80 360"/>
  <polygon class="cls-6" points="120 360 120 400 80 360 120 360"/>
  <polygon class="cls-4" points="120 400 120 440 80 440 120 400"/>
  <polygon class="cls-2" points="80 440 40 440 40 400 80 440"/>
  <rect class="cls-1" x="51.72" y="371.72" width="56.57" height="56.57" transform="translate(-259.41 173.73) rotate(-45)"/>
  <polygon class="cls-5" points="240 40 200 80 200 40 240 40"/>
  <polygon class="cls-6" points="280 40 280 80 240 40 280 40"/>
  <polygon class="cls-4" points="280 80 280 120 240 120 280 80"/>
  <polygon class="cls-2" points="240 120 200 120 200 80 240 120"/>
  <rect class="cls-1" x="211.72" y="51.72" width="56.57" height="56.57" transform="translate(13.73 193.14) rotate(-45)"/>
  <polygon class="cls-5" points="240 200 200 240 200 200 240 200"/>
  <polygon class="cls-6" points="280 200 280 240 240 200 280 200"/>
  <polygon class="cls-4" points="280 240 280 280 240 280 280 240"/>
  <polygon class="cls-2" points="240 280 200 280 200 240 240 280"/>
  <rect class="cls-1" x="211.72" y="211.72" width="56.57" height="56.57" transform="translate(-99.41 240) rotate(-45)"/>
  <polygon class="cls-5" points="240 360 200 400 200 360 240 360"/>
  <polygon class="cls-6" points="280 360 280 400 240 360 280 360"/>
  <polygon class="cls-4" points="280 400 280 440 240 440 280 400"/>
  <polygon class="cls-2" points="240 440 200 440 200 400 240 440"/>
  <rect class="cls-1" x="211.72" y="371.72" width="56.57" height="56.57" transform="translate(-212.55 286.86) rotate(-45)"/>
  <polygon class="cls-5" points="400 40 360 80 360 40 400 40"/>
  <polygon class="cls-6" points="440 40 440 80 400 40 440 40"/>
  <polygon class="cls-4" points="440 80 440 120 400 120 440 80"/>
  <polygon class="cls-2" points="400 120 360 120 360 80 400 120"/>
  <rect class="cls-1" x="371.72" y="51.72" width="56.57" height="56.57" transform="translate(60.59 306.27) rotate(-45)"/>
  <polygon class="cls-5" points="400 200 360 240 360 200 400 200"/>
  <polygon class="cls-6" points="440 200 440 240 400 200 440 200"/>
  <polygon class="cls-4" points="440 240 440 280 400 280 440 240"/>
  <polygon class="cls-2" points="400 280 360 280 360 240 400 280"/>
  <rect class="cls-1" x="371.72" y="211.72" width="56.57" height="56.57" transform="translate(-52.55 353.14) rotate(-45)"/>
  <polygon class="cls-5" points="400 360 360 400 360 360 400 360"/>
  <polygon class="cls-6" points="440 360 440 400 400 360 440 360"/>
  <polygon class="cls-4" points="440 400 440 440 400 440 440 400"/>
  <polygon class="cls-2" points="400 440 360 440 360 400 400 440"/>
  <rect class="cls-1" x="371.72" y="371.72" width="56.57" height="56.57" transform="translate(-165.69 400) rotate(-45)"/>
  <rect class="cls-1" x="51.72" y="211.72" width="56.57" height="56.57" transform="translate(-146.27 126.86) rotate(-45)"/>
  <rect class="cls-1" x="211.72" y="211.72" width="56.57" height="56.57" transform="translate(-99.41 240) rotate(-45)"/>
  <rect class="cls-1" x="371.72" y="211.72" width="56.57" height="56.57" transform="translate(-52.55 353.14) rotate(-45)"/>
  <rect class="cls-1" x="51.72" y="51.72" width="56.57" height="56.57" transform="translate(-33.14 80) rotate(-45)"/>
  <rect class="cls-1" x="211.72" y="51.72" width="56.57" height="56.57" transform="translate(13.73 193.14) rotate(-45)"/>
  <rect class="cls-1" x="371.72" y="51.72" width="56.57" height="56.57" transform="translate(60.59 306.27) rotate(-45)"/>
  <rect class="cls-1" x="51.72" y="371.72" width="56.57" height="56.57" transform="translate(-259.41 173.73) rotate(-45)"/>
  <rect class="cls-1" x="211.72" y="371.72" width="56.57" height="56.57" transform="translate(-212.55 286.86) rotate(-45)"/>
  <rect class="cls-1" x="371.72" y="371.72" width="56.57" height="56.57" transform="translate(-165.69 400) rotate(-45)"/>
</svg>