<?xml version="1.0" encoding="utf-8"?>
<!-- Generator: Adobe Illustrator 22.1.0, SVG Export Plug-In . SVG Version: 6.00 Build 0)  -->
<svg version="1.1" id="Layer_1" opacity="0.5" xmlns="http://www.w3.org/2000/svg" xmlns:xlink="http://www.w3.org/1999/xlink"
	 x="0px" y="0px" viewBox="0 0 136.6 199" style="enable-background:new 0 0 136.6 199;" xml:space="preserve">
<style type="text/css">
	.st0{opacity:0.5;fill:none;stroke:#00558B;stroke-width:0.45;stroke-miterlimit:10;enable-background:new    ;}
</style>
<title>Asset 1</title>
<g>
	<g id="Layer_2_1_">
		<g id="Layer_1-2">
			<path class="st0" d="M108.1,162.3c4.9-1.3,8.7-7.1,8.2-12.6c-1.2-11.2-2.6-22.3-3.7-33.5c-0.9-9.4-1.3-18.8-2.3-28.2
				c-1-11.3-6-21.8-14-29.8C89.6,51.5,83.7,44,77.2,37c-5.8-6.4-13.4-7.9-21.5-7.2c-3.5,0.3-6.9,0.9-10.4,1.1
				c-8.9,0.6-14.7,5.9-18.9,13.4S22,60,22.1,68.2c0.1,5.4,0.8,10.7,1.8,16c1.5,7.7,5.2,14.7,11.5,18.9c13.8,9.2,23.6,22.4,33.6,35.2
				c5.8,7.5,13.4,12.4,21.5,16.8c3.8,2,7.6,4.2,11.5,6c1.7,0.8,3.7,0.8,5.5,1.2 M112.5,177.6c7.6-1.7,10-7.4,11.2-14.5
				c2-11.4-0.8-22.2-2.6-33.2c-1.5-9.2-2.4-18.5-3.4-27.8c-0.9-8.9-0.9-17.9-2.4-26.6s-6.3-16-11.7-22.9c-5.5-7.2-10.8-14.6-16-22.1
				c-4.2-6-9.3-10.1-16.7-10.2c-4.3-0.1-8.7,0.2-13-0.1c-6.5-0.3-13,0.2-19.3,1.6c-9.9,2-16.8,7.4-20.5,17.4s-3.6,20.5-3.5,30.9
				c0.1,5.5,1.3,10.9,1.7,16.4c0.9,10.3,5.4,19,13.5,24.6c13.8,9.7,23.9,22.5,32.5,36.8c5,8.2,12.2,14.8,20.9,18.9
				c7.3,3.6,15,6.5,22.6,9.6c2,0.8,4.2,0.8,6.3,1.2 M115.2,187.9c7.3-0.8,10.8-6.3,12.8-12.3c2.7-7.9,3.3-16.5,1.7-24.7
				c-1.9-10.6-3.8-21.3-5.2-32c-1.1-8.3-1.2-16.8-2-25.1s-0.9-17.2-2.8-25.5c-1.3-5.8-4.5-11.5-8-16.3c-6.9-9.3-12.9-19.3-17.7-29.8
				c-3.8-8.6-9.9-11.4-19.7-11c-7,0.2-14.1,0.2-21.1,0.8c-7.9,0.7-16-0.1-23.8,2.5C17,18.5,11.5,28.2,9.4,40.4
				C7.9,49.6,7.6,59,8.5,68.2c0.8,8,0.5,16,1.3,24c1.1,11,6,19.5,15.4,25.7c10.2,6.7,19.3,14.8,25.4,26.1
				c3.7,6.9,7.8,13.5,11.8,20.2c2.9,4.8,6.8,8.9,11.6,11.3c6.2,3,13,4.8,19.6,7c3.4,1.2,6.9,2.5,10.4,3.4s7.2,1.3,10.7,2
				 M117.3,198.5c7.5-1.1,11.8-5.7,14.6-12.9c4.6-12.3,5-24.6,2.9-37.4c-2.4-14.6-4.5-29.2-6.3-43.8c-0.8-6.7-0.4-13.4-0.5-20.2
				c-0.1-9-0.8-18.1-4.6-26.2c-3.1-6.7-7.7-12.7-11.3-19.2c-2.6-4.6-4.9-9.3-7-14.1c-2.4-5.6-4.1-11.6-6.8-17.1s-8.1-7.3-13.6-7.2
				c-6.2,0.1-12.4,1.3-18.6,1.8c-4.3,0.3-8.7,0.2-13,0.5c-2.2,0.1-4.5,0.7-6.7,0.7c-4.3-0.1-8.7-0.6-13-0.7
				C20,2.3,10.7,9.1,5.4,21.4c-3.4,8.2-5.1,17-4.9,25.9c0.2,12.7,0.8,25.4,1,38.1c0.1,7-0.2,14-0.3,21s2.5,12.1,9.2,15
				c7.8,3.4,15.4,7.2,21.9,12.9c7.2,6.2,12,14.2,16,22.8c4,8.5,6.8,17.7,13.3,24.8c4.7,5.1,10.3,8.3,17.4,8.5
				c3.1,0.1,6.2,1.1,9.3,1.8c5.1,1.2,10.1,2.6,15.2,3.8c4.4,1,8.9,1.8,13.3,2.7 M83.2,101.8c4.4-2.4,4.5-7.2,0.4-11.1
				c-1.5-1.4-2.9-2.6-4.8-1.4c-2.1,1.3-1.8,3.6-1.1,5.7c0.9,2.9,2.4,5.4,5.2,6.9 M54.3,77.4c0.9-0.2,1.7-0.5,2.6-0.8
				c0.9-0.4,2.1-0.8,2.5-1.5c1.8-3.2,0.5-5.9-1.3-8.8s-4.3-5-7.5-4.3c-1.7,0.4-3.5,3.1-4,5.1c-0.8,2.9,0.7,5.7,3.2,7.6
				c1.3,1,2.7,1.8,4.1,2.7 M98.4,139.5c5.8-2.1,5.7-7.6,5.8-12.2c0.2-11.4,0-22.9-0.7-34.3c-0.7-11.1-5.8-20.1-14-27.5
				c-4.7-4.3-9.4-8.7-13.7-13.4s-8.9-8.8-14.5-11.3c-9.2-4.2-22.9,1.2-27.7,10.6c-4.4,8.6-4.5,17.7-2.3,27
				c2.1,8.8,7.3,14.4,14.5,19.2c7.5,4.8,14.1,10.9,19.5,18.1c5.2,7.2,10.5,14.4,18.5,18.7c4.5,2.4,8.8,5.9,14.5,5"/>
		</g>
	</g>
</g>
</svg>
