<?xml version="1.0" encoding="utf-8"?>
<!-- Generator: Adobe Illustrator 22.1.0, SVG Export Plug-In . SVG Version: 6.00 Build 0)  -->
<svg version="1.1" id="Layer_1" xmlns="http://www.w3.org/2000/svg" xmlns:xlink="http://www.w3.org/1999/xlink" x="0px" y="0px"
	 viewBox="0 0 302.3 216.1" style="enable-background:new 0 0 302.3 216.1;" xml:space="preserve">
<style type="text/css">
	.st0{opacity:5.000000e-02;}
</style>
<title>Asset 1</title>
<g id="Layer_2_1_">
	<g id="Layer_1-2">
		<g id="Layer_2-2">
			<g class="st0">
				<path d="M299.5,139.4c-2.1-3.9-5-7.5-8.4-10.4c-6.7-5.7-14.3-10.2-22.6-13.2c-16.5-6.4-34.5-8.4-52-5.7c-4.4,0.7-8.8,1.6-13,2.7
					s-8.5,2.5-12.6,4c-8.1,3.1-15.9,6.6-23.6,10.5c-7,3.5-13.6,6.5-20.3,8.3c-6.6,1.7-13.3,2.5-20.1,2.4l0,0
					c-4.3-0.1-8.6-0.8-12.7-1.9c-4.1-1.1-8.1-2.8-11.7-5c-3.6-2.1-6.9-4.7-9.8-7.8c-2.8-3-5.2-6.4-7-10.1c-1.8-3.7-3-7.6-3.6-11.6
					c-0.5-4.1-0.3-8.2,0.3-12.3c0.9-4.1,2.3-8.1,4.2-11.8c2.1-3.8,4.7-7.3,7.8-10.3c6.5-6.4,14.5-10.9,23.3-13.2l3.4-0.8
					c1.1-0.3,2.3-0.3,3.5-0.5c2.4-0.3,4.7-0.5,7.1-0.5c1.2,0,2.4,0.1,3.5,0.2l1.8,0.1c0.6,0,1.2,0.2,1.8,0.2l3.6,0.5l3.5,0.8
					c9.7,2.5,18.5,7.6,25.4,14.8c0.2,0.2,0.4,0.5,0.6,0.7c1.3,2.1,2.7,4.2,3.9,6.5l1.9,3.7c0.7,1.2,1.3,2.5,1.8,3.8l1.6,4
					c0.6,1.3,1.1,2.7,1.5,4.1c0.8,2.8,1.9,5.7,2.7,8.6c2.9-12.4,2.4-25.3-1.5-37.4c-4-12.5-10.7-23.9-19.8-33.4
					c-9.1-9.5-20.1-17-32.3-22c-24.5-9.9-51.9-9.9-76.3,0.2c-12.2,5-23.2,12.5-32.2,22.1C14.1,39.2,7.4,50.6,3.4,63.1
					c-3.8,12.3-4.6,25.5-1.5,37.4c5.8-23.7,19-41.8,35.6-53.8c16.4-11.7,36-18,56.1-18c10.2,0,20.3,1.6,29.9,4.8
					c-3-0.1-6.1,0.1-9.1,0.5c-13,1.5-25.2,6.7-35.3,15c-5.3,4.3-9.8,9.5-13.5,15.2c-3.8,6-6.6,12.5-8.4,19.3
					c-1.6,7-2.2,14.2-1.6,21.4c0.8,7.1,2.7,14.1,5.6,20.7c5.9,12.7,15.5,23.3,27.5,30.5c11.5,6.7,24.6,10.3,37.9,10.2h0.3
					c9.4-0.1,18.7-1.6,27.6-4.5c8.6-3,16.8-7,24.5-11.8c6.8-4.2,13.6-8,20.4-11.4c3.4-1.7,6.9-3.2,10.4-4.6c3.5-1.4,7-2.7,10.6-3.7
					c14.6-4.2,29.9-5,44.8-2.4c7.6,1.2,15.1,3.5,22,6.9c3.4,1.8,6.6,4.1,9.3,6.8c2.8,3,4.8,6.6,5.7,10.6
					C302.6,147.8,301.7,143.3,299.5,139.4z"/>
				<path d="M302,175c-26-5.9-51.2-5.4-74.4,1c-1.5,0.4-2.9,0.8-4.3,1.2s-2.9,0.8-4.3,1.4l-4.2,1.5l-4.1,1.7
					c-5.5,2.3-10.9,4.9-16.5,7.9l-17.2,9.1c-5.9,3-12.1,6-18.7,8.8c-6.7,2.7-13.7,4.9-20.8,6.4c-7.2,1.4-14.6,2.1-22,2.1
					c-14.8-0.3-29.7-3.8-42.8-11.2c-13.1-7.5-23.8-18.6-30.7-32c-6.7-13.1-9.2-28.4-5.7-41.9c4.9,24.4,22.1,44.6,45.5,53.3
					c10.6,3.7,21.9,5.3,33.2,4.5c5.6-0.4,11.2-1.2,16.7-2.6c5.6-1.4,11.2-3.2,16.5-5.4c5.6-2.2,11.2-4.8,17-7.6s11.8-5.6,18.1-8.3
					c12.4-5.4,26.6-9.9,40.7-11.1c7-0.7,14.1-0.8,21.1-0.3c6.9,0.5,13.8,1.6,20.5,3.4C278.8,160.4,291.2,166.5,302,175z"/>
			</g>
		</g>
	</g>
</g>
</svg>
