<?xml version="1.0" encoding="utf-8"?>
<!-- Generator: Adobe Illustrator 22.1.0, SVG Export Plug-In . SVG Version: 6.00 Build 0)  -->
<svg version="1.1" id="Layer_1" xmlns="http://www.w3.org/2000/svg" xmlns:xlink="http://www.w3.org/1999/xlink" x="0px" y="0px"
	 viewBox="0 0 481 512" style="enable-background:new 0 0 481 512;" xml:space="preserve">
<style type="text/css">
	.st0{opacity:4.000000e-02;}
</style>
<title>Asset 20</title>
<g id="Layer_2_1_" class="st0">
	<g id="Layer_1-2">
		<g>
			<path d="M470.8,131.8c-19.5-33.6-64.8-49.1-125.1-43.6c-1.9,0.2-3.7-0.9-4.5-2.6C315.8,31,279.5,0,240.5,0s-75.3,31-100.7,85.6
				c-0.8,1.7-2.6,2.8-4.5,2.6c-60.4-5.6-105.6,10-125.2,43.6S-0.4,212,34.6,261c1.1,1.5,1.1,3.6,0,5.2c-35,49.1-44,95.7-24.5,129.2
				c17,29.1,53.2,44.7,101.9,44.7c8.2,0,16.7-0.4,25.6-1.3c1.5-0.2,3,0.5,4,1.7c5.3,6.8,13.5,10.7,22.1,10.7c2.1,0,3.9,1.4,4.4,3.4
				c9.4,40,49.3,64.8,89.3,55.4c27.5-6.4,49-27.9,55.4-55.4c0.5-2,2.3-3.5,4.4-3.4c8.6,0,16.8-3.9,22.1-10.7c1-1.2,2.5-1.8,4-1.7
				c8.9,0.9,17.4,1.3,25.6,1.3c48.7,0,85-15.6,101.9-44.7c19.5-33.5,10.5-80.1-24.5-129.2c-1.1-1.5-1.1-3.6,0-5.2
				C481.4,211.9,490.4,165.3,470.8,131.8 M327.6,119.9c3.5,9.7,6.6,19.9,9.3,30.5c0.6,2.4-0.9,4.9-3.3,5.4c-1.4,0.3-2.9,0-4-1
				c-10.9-9.5-23.3-17.1-36.7-22.7c-2.3-0.9-3.3-3.5-2.4-5.8c0.5-1.3,1.6-2.3,3-2.6c9.9-2.7,19.6-4.9,29.1-6.7
				C324.7,116.6,326.8,117.8,327.6,119.9 M167.5,87.1c20.4-39.5,46.3-61.8,73-61.8s52.7,22.2,73,61.8c1.1,2.2,0.2,4.9-2,6
				c-0.4,0.2-0.8,0.3-1.2,0.4c-23.3,4.9-46.1,11.7-68.2,20.5c-1.1,0.4-2.2,0.4-3.3,0c-22.1-8.7-45-15.6-68.2-20.5
				c-2.4-0.5-4-2.8-3.5-5.3C167.2,87.9,167.3,87.5,167.5,87.1 M144.1,150.4c2.7-10.6,5.8-20.7,9.3-30.5c0.8-2.1,2.9-3.3,5.1-2.9
				c9.5,1.8,19.2,4,29.1,6.7c2.4,0.6,3.8,3,3.2,5.4c-0.3,1.4-1.3,2.5-2.6,3c-13.4,5.6-25.7,13.2-36.7,22.7c-1.9,1.6-4.7,1.5-6.4-0.4
				C144.1,153.3,143.8,151.8,144.1,150.4 M32.3,144.5c13.3-22.9,45.8-34.1,90.5-31.8c2.5,0.1,4.4,2.2,4.2,4.7c0,0.4-0.1,0.8-0.2,1.2
				c-7.4,22.4-12.8,45.4-16.2,68.7c-0.2,1.1-0.7,2.1-1.6,2.8c-18.7,14.6-36.1,30.8-52.1,48.4c-1.7,1.9-4.6,2-6.4,0.3
				c-0.3-0.3-0.5-0.6-0.8-0.9C25.3,200.8,18.9,167.4,32.3,144.5 M110.6,294.5c0.7,2.4-0.7,4.9-3.1,5.6c-1.5,0.4-3.1,0-4.3-1
				c-11.3-10.1-22-21-31.9-32.5c-1.4-1.7-1.4-4.1,0-5.8c8.4-9.7,17.4-19,26.8-27.8c1.8-1.7,4.7-1.6,6.4,0.3c0.8,0.9,1.2,2.1,1.2,3.3
				c-0.2,4-0.4,8-0.5,12v0.2c-0.1,2.4-0.2,4.8-0.2,7.3C104.9,269.1,106.8,282,110.6,294.5 M138.9,395c-2.2,4-3.3,8.5-3.3,13.1v1.4
				c0,2.3-1.8,4.2-4.1,4.5c-48.7,4.2-85.2-7.1-99.2-31.1c-13.4-22.9-6.9-56.3,17.4-93.5c1.4-2.1,4.2-2.7,6.3-1.3
				c0.3,0.2,0.6,0.4,0.9,0.7c21.2,23.6,47.4,46.3,77,66.8c1.3,0.9,2.1,2.5,1.9,4.1c-0.1,1-0.2,1.9-0.2,2.9v15.2
				c0,4.6,1.1,9.1,3.3,13.1C139.6,392.1,139.6,393.7,138.9,395 M285.2,457.3c-10.7,24.7-39.4,36-64.1,25.3
				c-11.3-4.9-20.4-14-25.3-25.3c-0.9-2.3,0.2-4.9,2.4-5.8c0.6-0.2,1.2-0.3,1.8-0.3h81c2.5,0,4.5,1.9,4.5,4.4
				C285.5,456.2,285.4,456.8,285.2,457.3 M319.8,421.4c0,2.5-2,4.5-4.5,4.5H165.7c-2.5,0-4.5-2-4.5-4.5V410c0-2.5,2-4.5,4.5-4.5
				h149.6c2.5,0,4.5,2,4.5,4.5L319.8,421.4z M319.8,375.7c0,2.5-2,4.5-4.5,4.5c0,0,0,0,0,0H165.7c-2.5,0-4.5-2-4.5-4.5c0,0,0,0,0,0
				v-11.3c0-2.5,2-4.5,4.5-4.5c0,0,0,0,0,0h149.6c2.5,0,4.5,2,4.5,4.5c0,0,0,0,0,0L319.8,375.7z M207.2,330.1v-78.4
				c0-2.5,2.1-4.5,4.6-4.5c1.2,0,2.3,0.5,3.1,1.3l22.4,22.2c1.8,1.7,4.6,1.7,6.4,0l22.3-22.2c1.8-1.8,4.6-1.7,6.4,0
				c0.8,0.8,1.3,2,1.3,3.1v78.4c0,2.5-2,4.5-4.5,4.5c0,0,0,0,0,0h-57.4C209.3,334.6,207.3,332.6,207.2,330.1
				C207.2,330.1,207.2,330.1,207.2,330.1 M318,333.3c-0.9,0.8-2,1.3-3.2,1.3h-11c-2.5,0-4.5-2-4.5-4.4c0,0,0,0,0,0V207.9
				c0-0.6-0.1-1.3-0.4-1.9c-4.6-9.7-15.5-10.6-21.4-4.6l-33.8,33.5c-1.8,1.7-4.6,1.7-6.4,0l-33.8-33.5c-5.9-5.9-16.8-5.1-21.4,4.6
				c-0.3,0.6-0.4,1.2-0.4,1.9v122.2c0,2.5-2,4.5-4.5,4.5c0,0,0,0,0,0h-11c-1.2,0-2.3-0.5-3.2-1.3c-20.3-20-32-47.2-32.4-75.7
				c0-2.6,0.1-5.2,0.1-7.8C134,192.6,182,147,240.5,147S347,192.6,350.3,249.8c0.1,2.6,0.1,5.2,0.1,7.7
				C350,286.1,338.4,313.3,318,333.3 M448.7,382.7c-14,24-50.6,35.3-99.2,31.1c-2.3-0.2-4.1-2.1-4.1-4.5v-1.4
				c0-4.6-1.2-9.1-3.4-13.1c-0.7-1.3-0.7-2.9,0-4.2c2.2-4,3.3-8.5,3.3-13.1v-15.2c0-1-0.1-1.9-0.2-2.9c-0.2-1.6,0.6-3.2,1.9-4.1
				c29.6-20.5,55.8-43.2,77-66.8c1.7-1.8,4.6-2,6.4-0.3c0.3,0.3,0.5,0.5,0.7,0.9C455.6,326.4,462,359.8,448.7,382.7 M375.8,248.7
				v-0.2c-0.1-4-0.3-8-0.5-12c-0.1-2.5,1.7-4.6,4.2-4.8c1.3-0.1,2.5,0.4,3.4,1.3c9.4,8.7,18.3,18,26.7,27.7c1.4,1.7,1.4,4.1,0,5.8
				c-9.9,11.5-20.6,22.3-31.9,32.5c-1.8,1.7-4.7,1.6-6.3-0.2c-1.1-1.2-1.5-2.8-1-4.3C374.1,282,376,269,376,256
				C376,253.6,375.9,251.1,375.8,248.7 M431.2,238c-1.4,2.1-4.2,2.7-6.3,1.3c-0.3-0.2-0.6-0.5-0.9-0.8c-16-17.6-33.4-33.8-52.1-48.4
				c-0.9-0.7-1.5-1.7-1.6-2.8c-3.4-23.3-8.9-46.3-16.2-68.7c-0.8-2.4,0.5-4.9,2.8-5.7c0.4-0.1,0.8-0.2,1.2-0.2
				c44.7-2.3,77.1,8.8,90.5,31.8S455.6,200.8,431.2,238"/>
		</g>
	</g>
</g>
</svg>
