<svg xmlns="http://www.w3.org/2000/svg" xmlns:xlink="http://www.w3.org/1999/xlink" viewBox="0 0 341.65 341.15"><defs><style>.cls-1{fill:none;stroke:#97d700;stroke-miterlimit:10;stroke-width:0.75px;}.cls-2{isolation:isolate;}.cls-3{clip-path:url(#clip-path);}.cls-4{clip-path:url(#clip-path-2);}.cls-5{clip-path:url(#clip-path-3);}.cls-6{clip-path:url(#clip-path-4);}</style><clipPath id="clip-path"><path class="cls-1" d="M254,22.82c2.95,1.71,6.87,4,9.68,5.93,4.45,3.06,10.27,7.31,14.49,10.68,5.8,4.63,12.78,11.68,17.92,17a113.37,113.37,0,0,1,10.35,12.49c2.59,3.7,6.1,8.59,8.5,12.4,2.08,3.3,4.61,7.84,6.44,11.29,2.06,3.89,4.51,9.25,6.22,13.32,1.53,3.66,3.21,8.68,4.58,12.4a103.89,103.89,0,0,1,3.93,14.16,239.24,239.24,0,0,1,4,26.88,148.84,148.84,0,0,1-.2,25.51c-.54,4.43-.95,10.39-1.88,14.75-.85,4-1.8,9.25-2.82,13.16a133.37,133.37,0,0,1-4.24,14c-1.44,3.68-3.23,8.63-4.84,12.24-1.78,4-4.36,9.25-6.46,13.09-1.86,3.38-4.49,7.82-6.62,11-2.46,3.72-5.81,8.64-8.65,12.07a221,221,0,0,1-16.73,18.4c-3.25,3.06-7.76,7-11.22,9.78-2.7,2.19-6.42,5-9.32,6.92-3.88,2.6-9.16,5.89-13.19,8.25-2.56,1.51-6.06,3.35-8.75,4.61s-6.12,2.87-8.79,4c-2.2.94-5.19,2.07-7.43,2.92-3.69,1.4-8.72,2.95-12.51,4-1.84.51-4.3,1.18-6.16,1.6-3.53.79-8.25,1.77-11.81,2.42-2.56.46-8.71,1.32-13.8,1.71a168.94,168.94,0,0,1-34.27-.67c-8-1-13.89-2.27-13.95-2.28-3.43-.77-8-1.86-11.37-2.77-2.26-.61-5.24-1.55-7.46-2.29-2.6-.85-6-2.1-8.58-3.1s-6.08-2.53-8.65-3.68c-4-1.8-9.27-4.6-13.15-6.73,23.92,13.59,52.54,19.53,83.27,15.39-30.73,4.14-59.35-1.8-83.27-15.39h0c-5.9-3.62-13.81-8.45-19.25-12.74-3.77-3-8.68-7.06-12.24-10.27-2.77-2.51-6.33-6-8.85-8.79-3.13-3.44-7.19-8.14-10.08-11.8-2.38-3-5.36-7.2-7.49-10.4-2.47-3.72-5.52-8.83-7.67-12.74-1.89-3.43-4.11-8.17-5.8-11.71-1.9-4-3.95-9.48-5.41-13.63-1.32-3.77-2.7-8.92-3.86-12.74A98.81,98.81,0,0,1,3.5,199.08C3,195,2.11,189.64,1.77,185.56c-.37-4.51-.62-10.54-.63-15.06A204.1,204.1,0,0,1,3.4,143.12a128.39,128.39,0,0,1,3.72-17c1.17-3.81,2.65-8.92,4-12.67,1.48-4.07,3.56-9.49,5.48-13.38,1.73-3.51,4-8.21,5.9-11.62,2.13-3.78,5.14-8.71,7.56-12.31a171.93,171.93,0,0,1,37.2-39.73c2.74-2.11,6.46-4.85,9.35-6.75,3.92-2.57,9.3-5.79,13.37-8.13a177.57,177.57,0,0,1,19.2-9c3.65-1.38,8.56-3.14,12.3-4.29s8.47-2.4,12.15-3.25A166.13,166.13,0,0,1,164.84.82,168.52,168.52,0,0,1,195.1,2.5c7.31,1.09,12.43,2.3,15.17,3,6.74,1.6,13.15,3.77,13.22,3.79A170.55,170.55,0,0,1,240.76,16C244.84,17.86,250.14,20.58,254,22.82Z"/></clipPath><clipPath id="clip-path-2"><path class="cls-1" d="M340.46,171.06a116.71,116.71,0,0,1-.69,15.07c-.53,4.05-1.07,9.48-1.77,13.51-.77,4.37-2,10.15-3.15,14.44-1,3.86-2.57,8.95-3.91,12.71-1.48,4.16-3.81,9.58-5.47,13.67A116.19,116.19,0,0,1,318.62,254c-3.92,6.61-9.69,15.1-14.25,21.28a112.17,112.17,0,0,1-10.22,11.87c-2.64,2.61-6,6.21-8.81,8.68-3.88,3.45-9.24,7.85-13.35,11-2.73,2.11-6.56,4.69-9.46,6.57s-6.85,4.14-9.82,5.87a140.78,140.78,0,0,1-17.55,8.44c-3.57,1.39-8.34,3.21-12,4.39s-8.66,2.56-12.41,3.51c-3.52.89-8.28,1.83-11.85,2.46-3.72.65-6.77,1-10,1.39-1.18.14-5.73.56-8.19.68-3.36.17-6.27.31-11.21.28a171.5,171.5,0,0,1-23.38-1.8c-3.77-.54-8.13-1.38-10.14-1.81-3.44-.74-8-1.9-11.4-2.81-2.55-.68-5.91-1.75-8.4-2.63-3.51-1.24-8.15-3-11.59-4.43-5.36-2.25-12.23-5.88-17.36-8.6-41.46-23.56-68.84-70.1-68.73-127.07C18.67,101.4,87.12,19.11,171.1,7.1c-84,12-152.43,94.3-152.6,184.16-.11,57,27.27,103.51,68.73,127.07-4-2.36-9.43-5.52-13.18-8.31-2.81-2.09-6.65-4.78-9.36-7a143.44,143.44,0,0,1-11.06-9.68c-2.62-2.69-6.22-6.16-8.72-9-2.9-3.25-6.64-7.71-9.28-11.18-2.33-3.06-5.3-7.26-7.38-10.5-2.33-3.64-5.33-8.57-7.31-12.41A172.17,172.17,0,0,1,10,225a215.7,215.7,0,0,1-6.53-26c-.85-4.38-1.46-10.3-1.83-14.75-.34-4.14-.41-9.68-.53-13.83a130.4,130.4,0,0,1,1-17.89c.5-4.05,1.22-9.45,2-13.45.84-4.35,2.18-10.11,3.38-14.37,1.08-3.83,2.71-8.89,4.1-12.62,1.55-4.14,4-9.53,5.71-13.59a120.35,120.35,0,0,1,6-11.55c2.25-3.9,5.56-8.91,8-12.7A135,135,0,0,1,41,61.57,180.69,180.69,0,0,1,58.3,43.83c4-3.44,9.45-7.81,13.65-10.95,2.75-2.06,6.61-4.53,9.49-6.39a177.52,177.52,0,0,1,19.08-10.3A165.11,165.11,0,0,1,125.43,7a173,173,0,0,1,17.72-4,162.62,162.62,0,0,1,17.92-2c2.9-.14,5.18-.26,7.42-.27,1.08,0,2.52,0,3.6,0s2.51.05,3.59.07,2.54.08,3.62.15A167.85,167.85,0,0,1,217.93,7.5c2.11.63,4.93,1.49,7,2.23,3.52,1.26,8.2,3,11.66,4.47A192.61,192.61,0,0,1,254,22.82a141.64,141.64,0,0,1,15,9.56c3.58,2.74,8.51,6.21,11.83,9.26,2.73,2.5,6.47,5.73,9.09,8.35,3.1,3.1,7.09,7.38,10,10.71a233.38,233.38,0,0,1,15.09,20.63c2.43,3.65,5.17,8.83,7.18,12.72a126,126,0,0,1,6,13.12,254,254,0,0,1,8,25.33c1.74,7.3,3,17.26,3.82,24.72C340.39,161.35,340.39,166.9,340.46,171.06Z"/></clipPath><clipPath id="clip-path-3"><path class="cls-1" d="M86.49,318.59c24.11,13.69,53,19.57,84,15.13-31,4.44-59.9-1.44-84-15.13a175.43,175.43,0,0,1-15.08-9.66c-3.6-2.73-8.4-6.39-11.86-9.31-2.83-2.39-6.52-5.7-9.08-8.39-3-3.19-7.08-7.44-9.95-10.78-2.49-2.92-5.63-7-7.88-10.07a163.8,163.8,0,0,1-14.3-23.5C16.49,243,14,237.7,12.41,233.67,10.92,230,9.2,224.94,8,221.14A159.3,159.3,0,0,1,2.55,198,204.41,204.41,0,0,1,.38,170.49c0-4.54.31-10.61.7-15.14.35-4.09,1.2-9.5,1.78-13.57A144.09,144.09,0,0,1,6,127.28c1-3.88,2.6-9,3.92-12.77,1.47-4.19,3.7-9.68,5.51-13.73,1.6-3.59,4.09-8.2,5.85-11.71a139,139,0,0,1,7.81-12.84C31.23,73,34.37,69,36.64,65.85A140.22,140.22,0,0,1,46.91,53.93c2.54-2.72,6.06-6.24,8.84-8.71,3.9-3.47,9.28-7.89,13.41-11.09,2.74-2.13,6.59-4.72,9.51-6.6s6.88-4.17,9.86-5.9a140,140,0,0,1,17.63-8.48c3.58-1.39,8.38-3.22,12-4.4s8.7-2.61,12.48-3.53c3.54-.87,8.3-1.89,11.89-2.47,1.69-.28,3.94-.65,5.64-.86,2.6-.33,6.07-.7,8.68-.94.19,0,4.84-.46,11.54-.56,4.79-.07,9,.12,11.06.21,2.44.11,8.07.54,11.88,1s3.79.48,9.1,1.35c1.46.24,3.4.65,4.85.93a173.91,173.91,0,0,1,20.35,5.56c3.52,1.26,8.18,3,11.64,4.46,2.66,1.11,6.15,2.71,8.72,4,3.73,1.89,8.63,4.55,12.23,6.68,3,1.76,6.91,4.26,9.72,6.29a175.69,175.69,0,0,1,20.52,16.75,170.76,170.76,0,0,1,18.07,20.23,168.91,168.91,0,0,1,14.76,23,229,229,0,0,1,10.55,24.14,142.64,142.64,0,0,1,4.2,14c1,3.93,1.95,9.27,2.78,13.24a116.93,116.93,0,0,1,1.83,14.82,152.49,152.49,0,0,1,.52,16.13c-.22,4.16-.36,9.71-.77,13.85A137.62,137.62,0,0,1,338.34,202c-.89,3.95-1.93,9.25-3,13.15-1.19,4.33-3,10-4.54,14.25-1.37,3.71-3.36,8.6-5,12.18-1.94,4.14-4.64,9.61-7,13.54-3.93,6.62-9.8,15.08-14.41,21.25-2.84,3.79-7.22,8.36-10.38,11.89a114.67,114.67,0,0,1-8.88,8.62c-4,3.47-9.46,7.84-13.61,11.08a118.79,118.79,0,0,1-11.34,7.62c-5.08,3-12,6.72-17.31,9.3a165.87,165.87,0,0,1-25.45,9.42,175.31,175.31,0,0,1-18,4.05c-3.25.59-9.69,1.45-14.44,1.82-5.17.39-7.26.45-8,.47-5.59.14-5.81.14-11.29,0-1.17,0-7.46-.19-15.81-1.19-4.89-.59-9.15-1.37-9.2-1.37-1.6-.3-3.74-.7-5.33-1s-4-.9-5.67-1.29c-2.18-.5-5.05-1.31-7.2-1.94s-4.94-1.54-7-2.23c-3.53-1.17-8.18-2.9-11.57-4.43C98.59,324.81,91.64,321.32,86.49,318.59Z"/></clipPath><clipPath id="clip-path-4"><path class="cls-1" d="M193.82,339.22a171.6,171.6,0,0,1-28.09,1.47c-7.95-.27-12.47-.8-15.76-1.19-2.89-.33-3.36-.41-9.09-1.35-1.47-.24-3.42-.64-4.88-.93-2.66-.51-8.53-1.91-12.12-3-4.29-1.26-10-3.13-14.16-4.71-3.08-1.16-7.14-2.84-10.11-4.25-4-1.88-9.24-4.59-13.12-6.71C45.05,295,17.72,248.4,17.82,191.35,18,101.09,86.76,18.44,171.1,7.1,86.76,18.44,18,101.09,17.82,191.35,17.72,248.4,45.05,295,86.49,318.59c-2.91-1.79-6.88-4-9.69-5.95-4.48-3.09-10.35-7.38-14.59-10.78-5.8-4.65-12.77-11.74-17.91-17.1A113.32,113.32,0,0,1,34,272.17c-2.58-3.73-6.08-8.65-8.48-12.49-2.06-3.32-4.71-7.83-6.39-11.36-1.91-4-4.48-9.32-6.17-13.41-1.53-3.69-3.33-8.69-4.53-12.49C7,218.2,5.5,212.49,4.51,208.17c-.9-4-1.81-9.33-2.44-13.35A163.64,163.64,0,0,1,.38,170.49,238.79,238.79,0,0,1,2.65,143a112.57,112.57,0,0,1,3-14.44c1.15-3.84,2.52-9,3.83-12.81a137.88,137.88,0,0,1,5.29-13.53c1.72-3.54,3.88-8.32,5.75-11.78,2.08-3.82,5-8.82,7.4-12.47,2.1-3.22,5.06-7.43,7.41-10.48,2.69-3.47,6.39-8,9.38-11.23,2.54-2.73,6-6.34,8.7-8.89,3.27-3.07,7.77-7,11.28-9.82,2.73-2.18,6.45-5,9.35-6.95C78,28,83.28,24.69,87.32,22.31a178.94,178.94,0,0,1,18.84-9.16c3.72-1.46,8.73-3.34,12.54-4.57S127.39,6,131.16,5.1A164.74,164.74,0,0,1,156.88,1,168.92,168.92,0,0,1,183.29.84c6.15.42,12.24,1.34,12.3,1.35,2.87.46,6.69,1.13,9.55,1.69,1.75.34,4.06.9,5.8,1.3,4.41,1,8.72,2.37,13.28,3.81,2.63.83,6.06,2.11,8.62,3.12s6.14,2.47,8.69,3.69c4,1.92,9.33,4.58,13.21,6.77a154.8,154.8,0,0,1,19.34,12.79c3.74,3,8.71,7.09,12.28,10.31,2.79,2.52,6.33,6.09,8.9,8.83,3.19,3.41,7.22,8.18,10.12,11.85,2.4,3,5.3,7.29,7.52,10.45,2.58,3.67,5.55,8.87,7.71,12.8,1.9,3.44,4.22,8.16,5.83,11.76,1.8,4,4,9.52,5.43,13.69,1.33,3.79,2.72,9,3.88,12.8a137.26,137.26,0,0,1,3.1,14.49c.69,4,1.21,9.51,1.73,13.59a136.22,136.22,0,0,1,.64,15.13c0,8.27-1.21,19.28-2.27,27.49a106.94,106.94,0,0,1-3.27,15.33c-1.15,3.84-2.56,9-3.89,12.78-1.45,4.11-3.59,9.52-5.37,13.5a169,169,0,0,1-13.27,24.14,142.55,142.55,0,0,1-8.77,12.09c-4.82,5.71-11.54,13.08-16.87,18.31a142.26,142.26,0,0,1-11.35,9.75c-4.11,3.18-9.75,7.23-14.15,10-5,3.14-11.93,7-17.25,9.55a165.48,165.48,0,0,1-16.8,7A176.37,176.37,0,0,1,193.82,339.22Z"/></clipPath></defs><title>Asset 7</title><g id="Layer_2" data-name="Layer 2"><g id="Layer_2-2" data-name="Layer 2"><g class="cls-2"><g class="cls-2"><g class="cls-3"><g class="cls-2"><path class="cls-1" d="M171.1,7.1c-84,12-152.43,94.3-152.6,184.16,41.24,23.43,142.87,33.25,227,21.94C245.64,123.35,212.28,31.21,171.1,7.1Z"/><path class="cls-1" d="M94.25,40.21C115.05,52,166.3,57,208.72,51.28"/><path class="cls-1" d="M39.47,106.24c35.61,20.23,123.34,28.72,196,19"/><path class="cls-1" d="M171.1,7.1C119.37,29.38,77.15,120,77,209.87"/><path class="cls-1" d="M171.1,7.1c-6.83,26.62-12.52,120.79-12.69,210.65"/><path class="cls-1" d="M171.1,7.1c41.18,24.11,74.54,116.25,74.38,206.1,84.11-11.31,118.86-39.47,77.62-62.9C323.26,60.44,255.09-3.48,171.1,7.1Z"/><path class="cls-1" d="M208.72,51.28c42.43-5.7,60-19.91,39.15-31.72"/><path class="cls-1" d="M235.42,125.19c72.61-9.76,102.61-34.08,67-54.31"/><path class="cls-1" d="M171.1,7.1c78,15.22,141.22,100.12,141,190"/><path class="cls-1" d="M171.1,7.1C264.4,9.87,340.16,84.65,340,174.51"/><path class="cls-1" d="M171.1,7.1c84-10.58,152.16,53.34,152,143.2-41.25-23.44-142.87-33.26-227-22C96.29,38.49,129.92-15.58,171.1,7.1Z"/><path class="cls-1" d="M247.87,19.56C227.07,7.74,175.82,2.78,133.4,8.49"/><path class="cls-1" d="M302.43,70.88C266.82,50.66,179.1,42.17,106.48,51.94"/><path class="cls-1" d="M171.1,7.1c51.73-20.84,93.68,34.72,93.51,124.58"/><path class="cls-1" d="M171.1,7.1c6.83-25.18,12.25,26.85,12.08,116.7"/><path class="cls-1" d="M171.1,7.1c-41.18-22.68-74.81,31.39-75,121.25C12,139.66-22.74,167.82,18.5,191.26,18.67,101.4,87.12,19.11,171.1,7.1Z"/><path class="cls-1" d="M133.4,8.49C91,14.19,73.45,28.4,94.25,40.21"/><path class="cls-1" d="M106.48,51.94C33.87,61.7,3.87,86,39.47,106.24"/><path class="cls-1" d="M171.1,7.1C93.16-6.68,29.61,54.62,29.45,144.48"/><path class="cls-1" d="M171.1,7.1C77.8,5.76,1.77,77.19,1.6,167.05"/><path class="cls-1" d="M18.5,191.26c-.17,89.84,68,153.76,152,142.46,41.18,23.4,74.81-30.67,75-120.52C161.37,224.51,59.74,214.69,18.5,191.26Z"/><path class="cls-1" d="M39.17,270.63c35.6,20.23,123.33,28.72,196,18.95"/><path class="cls-1" d="M93.73,321.77c20.8,11.82,72.05,16.78,114.47,11.07"/><path class="cls-1" d="M77,209.87c-.17,89.85,41.77,145.41,93.51,123.85"/><path class="cls-1" d="M158.41,217.75c-.16,89.85,5.26,141.88,12.09,116"/><path class="cls-1" d="M245.48,213.2c-.17,89.85-33.8,143.92-75,120.52,84-11.29,152.43-93.58,152.6-183.42C364.34,173.73,329.59,201.89,245.48,213.2Z"/><path class="cls-1" d="M235.12,289.58c72.61-9.76,102.61-34.08,67-54.31"/><path class="cls-1" d="M208.2,332.84c42.42-5.7,59.95-19.91,39.15-31.72"/><path class="cls-1" d="M312.15,197.07C312,286.92,248.44,348.23,170.5,333.72"/><path class="cls-1" d="M340,174.51c-.17,89.84-76.2,161.27-169.5,159.21"/><path class="cls-1" d="M323.1,150.3c-.17,89.84-68.62,172.13-152.6,183.42C129.32,310.33,96,218.2,96.12,128.35,180.23,117,281.85,126.86,323.1,150.3Z"/><path class="cls-1" d="M302.12,235.27c-35.6-20.23-123.33-28.71-195.94-18.94"/><path class="cls-1" d="M247.35,301.12c-20.8-11.82-72-16.78-114.48-11.07"/><path class="cls-1" d="M264.61,131.68c-.16,89.84-42.38,180.48-94.11,202"/><path class="cls-1" d="M183.18,123.8c-.16,89.85-5.85,184-12.68,209.92"/><path class="cls-1" d="M96.12,128.35c-.17,89.85,33.2,182,74.38,205.37-84,11.3-152.17-52.62-152-142.46C-22.74,167.82,12,139.66,96.12,128.35Z"/><path class="cls-1" d="M106.18,216.33c-72.62,9.76-102.62,34.08-67,54.3"/><path class="cls-1" d="M132.87,290.05c-42.42,5.7-59.94,19.91-39.14,31.72"/><path class="cls-1" d="M29.45,144.48c-.17,89.84,63.1,174.74,141.05,189.24"/><path class="cls-1" d="M1.6,167.05c-.17,89.84,75.59,164.62,168.9,166.67"/></g><path class="cls-1" d="M254,22.82c2.95,1.71,6.87,4,9.68,5.93,4.45,3.06,10.27,7.31,14.49,10.68,5.8,4.63,12.78,11.68,17.92,17a113.37,113.37,0,0,1,10.35,12.49c2.59,3.7,6.1,8.59,8.5,12.4,2.08,3.3,4.61,7.84,6.44,11.29,2.06,3.89,4.51,9.25,6.22,13.32,1.53,3.66,3.21,8.68,4.58,12.4a103.89,103.89,0,0,1,3.93,14.16,239.24,239.24,0,0,1,4,26.88,148.84,148.84,0,0,1-.2,25.51c-.54,4.43-.95,10.39-1.88,14.75-.85,4-1.8,9.25-2.82,13.16a133.37,133.37,0,0,1-4.24,14c-1.44,3.68-3.23,8.63-4.84,12.24-1.78,4-4.36,9.25-6.46,13.09-1.86,3.38-4.49,7.82-6.62,11-2.46,3.72-5.81,8.64-8.65,12.07a221,221,0,0,1-16.73,18.4c-3.25,3.06-7.76,7-11.22,9.78-2.7,2.19-6.42,5-9.32,6.92-3.88,2.6-9.16,5.89-13.19,8.25-2.56,1.51-6.06,3.35-8.75,4.61s-6.12,2.87-8.79,4c-2.2.94-5.19,2.07-7.43,2.92-3.69,1.4-8.72,2.95-12.51,4-1.84.51-4.3,1.18-6.16,1.6-3.53.79-8.25,1.77-11.81,2.42-2.56.46-8.71,1.32-13.8,1.71a168.94,168.94,0,0,1-34.27-.67c-8-1-13.89-2.27-13.95-2.28-3.43-.77-8-1.86-11.37-2.77-2.26-.61-5.24-1.55-7.46-2.29-2.6-.85-6-2.1-8.58-3.1s-6.08-2.53-8.65-3.68c-4-1.8-9.27-4.6-13.15-6.73,23.92,13.59,52.54,19.53,83.27,15.39-30.73,4.14-59.35-1.8-83.27-15.39h0c-5.9-3.62-13.81-8.45-19.25-12.74-3.77-3-8.68-7.06-12.24-10.27-2.77-2.51-6.33-6-8.85-8.79-3.13-3.44-7.19-8.14-10.08-11.8-2.38-3-5.36-7.2-7.49-10.4-2.47-3.72-5.52-8.83-7.67-12.74-1.89-3.43-4.11-8.17-5.8-11.71-1.9-4-3.95-9.48-5.41-13.63-1.32-3.77-2.7-8.92-3.86-12.74A98.81,98.81,0,0,1,3.5,199.08C3,195,2.11,189.64,1.77,185.56c-.37-4.51-.62-10.54-.63-15.06A204.1,204.1,0,0,1,3.4,143.12a128.39,128.39,0,0,1,3.72-17c1.17-3.81,2.65-8.92,4-12.67,1.48-4.07,3.56-9.49,5.48-13.38,1.73-3.51,4-8.21,5.9-11.62,2.13-3.78,5.14-8.71,7.56-12.31a171.93,171.93,0,0,1,37.2-39.73c2.74-2.11,6.46-4.85,9.35-6.75,3.92-2.57,9.3-5.79,13.37-8.13a177.57,177.57,0,0,1,19.2-9c3.65-1.38,8.56-3.14,12.3-4.29s8.47-2.4,12.15-3.25A166.13,166.13,0,0,1,164.84.82,168.52,168.52,0,0,1,195.1,2.5c7.31,1.09,12.43,2.3,15.17,3,6.74,1.6,13.15,3.77,13.22,3.79A170.55,170.55,0,0,1,240.76,16C244.84,17.86,250.14,20.58,254,22.82Z"/></g><path class="cls-1" d="M254,22.82c2.95,1.71,6.87,4,9.68,5.93,4.45,3.06,10.27,7.31,14.49,10.68,5.8,4.63,12.78,11.68,17.92,17a113.37,113.37,0,0,1,10.35,12.49c2.59,3.7,6.1,8.59,8.5,12.4,2.08,3.3,4.61,7.84,6.44,11.29,2.06,3.89,4.51,9.25,6.22,13.32,1.53,3.66,3.21,8.68,4.58,12.4a103.89,103.89,0,0,1,3.93,14.16,239.24,239.24,0,0,1,4,26.88,148.84,148.84,0,0,1-.2,25.51c-.54,4.43-.95,10.39-1.88,14.75-.85,4-1.8,9.25-2.82,13.16a133.37,133.37,0,0,1-4.24,14c-1.44,3.68-3.23,8.63-4.84,12.24-1.78,4-4.36,9.25-6.46,13.09-1.86,3.38-4.49,7.82-6.62,11-2.46,3.72-5.81,8.64-8.65,12.07a221,221,0,0,1-16.73,18.4c-3.25,3.06-7.76,7-11.22,9.78-2.7,2.19-6.42,5-9.32,6.92-3.88,2.6-9.16,5.89-13.19,8.25-2.56,1.51-6.06,3.35-8.75,4.61s-6.12,2.87-8.79,4c-2.2.94-5.19,2.07-7.43,2.92-3.69,1.4-8.72,2.95-12.51,4-1.84.51-4.3,1.18-6.16,1.6-3.53.79-8.25,1.77-11.81,2.42-2.56.46-8.71,1.32-13.8,1.71a168.94,168.94,0,0,1-34.27-.67c-8-1-13.89-2.27-13.95-2.28-3.43-.77-8-1.86-11.37-2.77-2.26-.61-5.24-1.55-7.46-2.29-2.6-.85-6-2.1-8.58-3.1s-6.08-2.53-8.65-3.68c-4-1.8-9.27-4.6-13.15-6.73,23.92,13.59,52.54,19.53,83.27,15.39-30.73,4.14-59.35-1.8-83.27-15.39h0c-5.9-3.62-13.81-8.45-19.25-12.74-3.77-3-8.68-7.06-12.24-10.27-2.77-2.51-6.33-6-8.85-8.79-3.13-3.44-7.19-8.14-10.08-11.8-2.38-3-5.36-7.2-7.49-10.4-2.47-3.72-5.52-8.83-7.67-12.74-1.89-3.43-4.11-8.17-5.8-11.71-1.9-4-3.95-9.48-5.41-13.63-1.32-3.77-2.7-8.92-3.86-12.74A98.81,98.81,0,0,1,3.5,199.08C3,195,2.11,189.64,1.77,185.56c-.37-4.51-.62-10.54-.63-15.06A204.1,204.1,0,0,1,3.4,143.12a128.39,128.39,0,0,1,3.72-17c1.17-3.81,2.65-8.92,4-12.67,1.48-4.07,3.56-9.49,5.48-13.38,1.73-3.51,4-8.21,5.9-11.62,2.13-3.78,5.14-8.71,7.56-12.31a171.93,171.93,0,0,1,37.2-39.73c2.74-2.11,6.46-4.85,9.35-6.75,3.92-2.57,9.3-5.79,13.37-8.13a177.57,177.57,0,0,1,19.2-9c3.65-1.38,8.56-3.14,12.3-4.29s8.47-2.4,12.15-3.25A166.13,166.13,0,0,1,164.84.82,168.52,168.52,0,0,1,195.1,2.5c7.31,1.09,12.43,2.3,15.17,3,6.74,1.6,13.15,3.77,13.22,3.79A170.55,170.55,0,0,1,240.76,16C244.84,17.86,250.14,20.58,254,22.82Z"/></g><g class="cls-2"><g class="cls-4"><g class="cls-2"><path class="cls-1" d="M171.1,7.1c-84,12-152.43,94.3-152.6,184.16,41.24,23.43,142.87,33.25,227,21.94C245.64,123.35,212.28,31.21,171.1,7.1Z"/><path class="cls-1" d="M94.25,40.21C115.05,52,166.3,57,208.72,51.28"/><path class="cls-1" d="M39.47,106.24c35.61,20.23,123.34,28.72,196,19"/><path class="cls-1" d="M171.1,7.1C119.37,29.38,77.15,120,77,209.87"/><path class="cls-1" d="M171.1,7.1c-6.83,26.62-12.52,120.79-12.69,210.65"/><path class="cls-1" d="M171.1,7.1c41.18,24.11,74.54,116.25,74.38,206.1,84.11-11.31,118.86-39.47,77.62-62.9C323.26,60.44,255.09-3.48,171.1,7.1Z"/><path class="cls-1" d="M208.72,51.28c42.43-5.7,60-19.91,39.15-31.72"/><path class="cls-1" d="M235.42,125.19c72.61-9.76,102.61-34.08,67-54.31"/><path class="cls-1" d="M171.1,7.1c78,15.22,141.22,100.12,141,190"/><path class="cls-1" d="M171.1,7.1C264.4,9.87,340.16,84.65,340,174.51"/><path class="cls-1" d="M171.1,7.1c84-10.58,152.16,53.34,152,143.2-41.25-23.44-142.87-33.26-227-22C96.29,38.49,129.92-15.58,171.1,7.1Z"/><path class="cls-1" d="M247.87,19.56C227.07,7.74,175.82,2.78,133.4,8.49"/><path class="cls-1" d="M302.43,70.88C266.82,50.66,179.1,42.17,106.48,51.94"/><path class="cls-1" d="M171.1,7.1c51.73-20.84,93.68,34.72,93.51,124.58"/><path class="cls-1" d="M171.1,7.1c6.83-25.18,12.25,26.85,12.08,116.7"/><path class="cls-1" d="M171.1,7.1c-41.18-22.68-74.81,31.39-75,121.25C12,139.66-22.74,167.82,18.5,191.26,18.67,101.4,87.12,19.11,171.1,7.1Z"/><path class="cls-1" d="M133.4,8.49C91,14.19,73.45,28.4,94.25,40.21"/><path class="cls-1" d="M106.48,51.94C33.87,61.7,3.87,86,39.47,106.24"/><path class="cls-1" d="M171.1,7.1C93.16-6.68,29.61,54.62,29.45,144.48"/><path class="cls-1" d="M171.1,7.1C77.8,5.76,1.77,77.19,1.6,167.05"/><path class="cls-1" d="M18.5,191.26c-.17,89.84,68,153.76,152,142.46,41.18,23.4,74.81-30.67,75-120.52C161.37,224.51,59.74,214.69,18.5,191.26Z"/><path class="cls-1" d="M39.17,270.63c35.6,20.23,123.33,28.72,196,18.95"/><path class="cls-1" d="M93.73,321.77c20.8,11.82,72.05,16.78,114.47,11.07"/><path class="cls-1" d="M77,209.87c-.17,89.85,41.77,145.41,93.51,123.85"/><path class="cls-1" d="M158.41,217.75c-.16,89.85,5.26,141.88,12.09,116"/><path class="cls-1" d="M245.48,213.2c-.17,89.85-33.8,143.92-75,120.52,84-11.29,152.43-93.58,152.6-183.42C364.34,173.73,329.59,201.89,245.48,213.2Z"/><path class="cls-1" d="M235.12,289.58c72.61-9.76,102.61-34.08,67-54.31"/><path class="cls-1" d="M208.2,332.84c42.42-5.7,59.95-19.91,39.15-31.72"/><path class="cls-1" d="M312.15,197.07C312,286.92,248.44,348.23,170.5,333.72"/><path class="cls-1" d="M340,174.51c-.17,89.84-76.2,161.27-169.5,159.21"/><path class="cls-1" d="M323.1,150.3c-.17,89.84-68.62,172.13-152.6,183.42C129.32,310.33,96,218.2,96.12,128.35,180.23,117,281.85,126.86,323.1,150.3Z"/><path class="cls-1" d="M302.12,235.27c-35.6-20.23-123.33-28.71-195.94-18.94"/><path class="cls-1" d="M247.35,301.12c-20.8-11.82-72-16.78-114.48-11.07"/><path class="cls-1" d="M264.61,131.68c-.16,89.84-42.38,180.48-94.11,202"/><path class="cls-1" d="M183.18,123.8c-.16,89.85-5.85,184-12.68,209.92"/><path class="cls-1" d="M96.12,128.35c-.17,89.85,33.2,182,74.38,205.37-84,11.3-152.17-52.62-152-142.46C-22.74,167.82,12,139.66,96.12,128.35Z"/><path class="cls-1" d="M106.18,216.33c-72.62,9.76-102.62,34.08-67,54.3"/><path class="cls-1" d="M132.87,290.05c-42.42,5.7-59.94,19.91-39.14,31.72"/><path class="cls-1" d="M29.45,144.48c-.17,89.84,63.1,174.74,141.05,189.24"/><path class="cls-1" d="M1.6,167.05c-.17,89.84,75.59,164.62,168.9,166.67"/></g><path class="cls-1" d="M340.46,171.06a116.71,116.71,0,0,1-.69,15.07c-.53,4.05-1.07,9.48-1.77,13.51-.77,4.37-2,10.15-3.15,14.44-1,3.86-2.57,8.95-3.91,12.71-1.48,4.16-3.81,9.58-5.47,13.67A116.19,116.19,0,0,1,318.62,254c-3.92,6.61-9.69,15.1-14.25,21.28a112.17,112.17,0,0,1-10.22,11.87c-2.64,2.61-6,6.21-8.81,8.68-3.88,3.45-9.24,7.85-13.35,11-2.73,2.11-6.56,4.69-9.46,6.57s-6.85,4.14-9.82,5.87a140.78,140.78,0,0,1-17.55,8.44c-3.57,1.39-8.34,3.21-12,4.39s-8.66,2.56-12.41,3.51c-3.52.89-8.28,1.83-11.85,2.46-3.72.65-6.77,1-10,1.39-1.18.14-5.73.56-8.19.68-3.36.17-6.27.31-11.21.28a171.5,171.5,0,0,1-23.38-1.8c-3.77-.54-8.13-1.38-10.14-1.81-3.44-.74-8-1.9-11.4-2.81-2.55-.68-5.91-1.75-8.4-2.63-3.51-1.24-8.15-3-11.59-4.43-5.36-2.25-12.23-5.88-17.36-8.6-41.46-23.56-68.84-70.1-68.73-127.07C18.67,101.4,87.12,19.11,171.1,7.1c-84,12-152.43,94.3-152.6,184.16-.11,57,27.27,103.51,68.73,127.07-4-2.36-9.43-5.52-13.18-8.31-2.81-2.09-6.65-4.78-9.36-7a143.44,143.44,0,0,1-11.06-9.68c-2.62-2.69-6.22-6.16-8.72-9-2.9-3.25-6.64-7.71-9.28-11.18-2.33-3.06-5.3-7.26-7.38-10.5-2.33-3.64-5.33-8.57-7.31-12.41A172.17,172.17,0,0,1,10,225a215.7,215.7,0,0,1-6.53-26c-.85-4.38-1.46-10.3-1.83-14.75-.34-4.14-.41-9.68-.53-13.83a130.4,130.4,0,0,1,1-17.89c.5-4.05,1.22-9.45,2-13.45.84-4.35,2.18-10.11,3.38-14.37,1.08-3.83,2.71-8.89,4.1-12.62,1.55-4.14,4-9.53,5.71-13.59a120.35,120.35,0,0,1,6-11.55c2.25-3.9,5.56-8.91,8-12.7A135,135,0,0,1,41,61.57,180.69,180.69,0,0,1,58.3,43.83c4-3.44,9.45-7.81,13.65-10.95,2.75-2.06,6.61-4.53,9.49-6.39a177.52,177.52,0,0,1,19.08-10.3A165.11,165.11,0,0,1,125.43,7a173,173,0,0,1,17.72-4,162.62,162.62,0,0,1,17.92-2c2.9-.14,5.18-.26,7.42-.27,1.08,0,2.52,0,3.6,0s2.51.05,3.59.07,2.54.08,3.62.15A167.85,167.85,0,0,1,217.93,7.5c2.11.63,4.93,1.49,7,2.23,3.52,1.26,8.2,3,11.66,4.47A192.61,192.61,0,0,1,254,22.82a141.64,141.64,0,0,1,15,9.56c3.58,2.74,8.51,6.21,11.83,9.26,2.73,2.5,6.47,5.73,9.09,8.35,3.1,3.1,7.09,7.38,10,10.71a233.38,233.38,0,0,1,15.09,20.63c2.43,3.65,5.17,8.83,7.18,12.72a126,126,0,0,1,6,13.12,254,254,0,0,1,8,25.33c1.74,7.3,3,17.26,3.82,24.72C340.39,161.35,340.39,166.9,340.46,171.06Z"/></g><path class="cls-1" d="M340.46,171.06a116.71,116.71,0,0,1-.69,15.07c-.53,4.05-1.07,9.48-1.77,13.51-.77,4.37-2,10.15-3.15,14.44-1,3.86-2.57,8.95-3.91,12.71-1.48,4.16-3.81,9.58-5.47,13.67A116.19,116.19,0,0,1,318.62,254c-3.92,6.61-9.69,15.1-14.25,21.28a112.17,112.17,0,0,1-10.22,11.87c-2.64,2.61-6,6.21-8.81,8.68-3.88,3.45-9.24,7.85-13.35,11-2.73,2.11-6.56,4.69-9.46,6.57s-6.85,4.14-9.82,5.87a140.78,140.78,0,0,1-17.55,8.44c-3.57,1.39-8.34,3.21-12,4.39s-8.66,2.56-12.41,3.51c-3.52.89-8.28,1.83-11.85,2.46-3.72.65-6.77,1-10,1.39-1.18.14-5.73.56-8.19.68-3.36.17-6.27.31-11.21.28a171.5,171.5,0,0,1-23.38-1.8c-3.77-.54-8.13-1.38-10.14-1.81-3.44-.74-8-1.9-11.4-2.81-2.55-.68-5.91-1.75-8.4-2.63-3.51-1.24-8.15-3-11.59-4.43-5.36-2.25-12.23-5.88-17.36-8.6-41.46-23.56-68.84-70.1-68.73-127.07C18.67,101.4,87.12,19.11,171.1,7.1c-84,12-152.43,94.3-152.6,184.16-.11,57,27.27,103.51,68.73,127.07-4-2.36-9.43-5.52-13.18-8.31-2.81-2.09-6.65-4.78-9.36-7a143.44,143.44,0,0,1-11.06-9.68c-2.62-2.69-6.22-6.16-8.72-9-2.9-3.25-6.64-7.71-9.28-11.18-2.33-3.06-5.3-7.26-7.38-10.5-2.33-3.64-5.33-8.57-7.31-12.41A172.17,172.17,0,0,1,10,225a215.7,215.7,0,0,1-6.53-26c-.85-4.38-1.46-10.3-1.83-14.75-.34-4.14-.41-9.68-.53-13.83a130.4,130.4,0,0,1,1-17.89c.5-4.05,1.22-9.45,2-13.45.84-4.35,2.18-10.11,3.38-14.37,1.08-3.83,2.71-8.89,4.1-12.62,1.55-4.14,4-9.53,5.71-13.59a120.35,120.35,0,0,1,6-11.55c2.25-3.9,5.56-8.91,8-12.7A135,135,0,0,1,41,61.57,180.69,180.69,0,0,1,58.3,43.83c4-3.44,9.45-7.81,13.65-10.95,2.75-2.06,6.61-4.53,9.49-6.39a177.52,177.52,0,0,1,19.08-10.3A165.11,165.11,0,0,1,125.43,7a173,173,0,0,1,17.72-4,162.62,162.62,0,0,1,17.92-2c2.9-.14,5.18-.26,7.42-.27,1.08,0,2.52,0,3.6,0s2.51.05,3.59.07,2.54.08,3.62.15A167.85,167.85,0,0,1,217.93,7.5c2.11.63,4.93,1.49,7,2.23,3.52,1.26,8.2,3,11.66,4.47A192.61,192.61,0,0,1,254,22.82a141.64,141.64,0,0,1,15,9.56c3.58,2.74,8.51,6.21,11.83,9.26,2.73,2.5,6.47,5.73,9.09,8.35,3.1,3.1,7.09,7.38,10,10.71a233.38,233.38,0,0,1,15.09,20.63c2.43,3.65,5.17,8.83,7.18,12.72a126,126,0,0,1,6,13.12,254,254,0,0,1,8,25.33c1.74,7.3,3,17.26,3.82,24.72C340.39,161.35,340.39,166.9,340.46,171.06Z"/></g><g class="cls-2"><g class="cls-5"><g class="cls-2"><path class="cls-1" d="M170.5,333.72C86.15,345.78,17.65,281.59,17.82,191.35c41.43,23.53,143.5,33.4,228,22C245.64,303.64,211.85,357.94,170.5,333.72Z"/><path class="cls-1" d="M93.39,322.23c20.89,11.87,72.37,16.84,115,11.11"/><path class="cls-1" d="M38.59,271.05c35.76,20.32,123.88,28.84,196.81,19"/><path class="cls-1" d="M170.5,333.72c-52,22.38-94.1-33.43-93.93-123.67"/><path class="cls-1" d="M170.5,333.72c-6.86,26.74-12.31-25.52-12.14-115.76"/><path class="cls-1" d="M170.5,333.72c41.35,24.22,75.14-30.08,75.31-120.33,84.49-11.36,119.39-39.65,78-63.19C323.61,240.45,254.84,323.1,170.5,333.72Z"/><path class="cls-1" d="M208.37,333.34c42.6-5.73,60.21-20,39.32-31.86"/><path class="cls-1" d="M235.4,290.08c72.94-9.81,103.07-34.23,67.31-54.55"/><path class="cls-1" d="M170.5,333.72C248.78,349,312.61,287.44,312.78,197.19"/><path class="cls-1" d="M170.5,333.72c93.7,2.79,170.08-69,170.25-159.2"/><path class="cls-1" d="M170.5,333.72c84.34-10.62,153.11-93.27,153.28-183.52-41.43-23.53-143.51-33.4-228-22C95.62,218.4,129.14,310.94,170.5,333.72Z"/><path class="cls-1" d="M247.69,301.48c-20.9-11.87-72.37-16.85-115-11.12"/><path class="cls-1" d="M302.71,235.53c-35.77-20.32-123.88-28.84-196.82-19"/><path class="cls-1" d="M170.5,333.72c51.95-20.93,94.36-112,94.53-202.22"/><path class="cls-1" d="M170.5,333.72c6.85-25.29,12.57-119.88,12.74-210.13"/><path class="cls-1" d="M170.5,333.72C129.14,310.94,95.62,218.4,95.79,128.16c-84.49,11.36-119.4,39.65-78,63.19C17.65,281.59,86.15,345.78,170.5,333.72Z"/><path class="cls-1" d="M132.71,290.36c-42.61,5.73-60.21,20-39.32,31.87"/><path class="cls-1" d="M105.89,216.5C33,226.31,2.82,250.73,38.59,271.05"/><path class="cls-1" d="M170.5,333.72C92.21,319.88,28.65,234.61,28.82,144.36"/><path class="cls-1" d="M170.5,333.72C76.79,332.38.68,257.27.85,167"/><path class="cls-1" d="M17.82,191.35C18,101.09,86.76,18.44,171.1,7.1c41.36,23.5,74.88,116,74.71,206.29C161.32,224.75,59.25,214.88,17.82,191.35Z"/><path class="cls-1" d="M38.89,106c35.76,20.32,123.88,28.84,196.82,19"/><path class="cls-1" d="M93.91,39.85c20.9,11.87,72.37,16.85,115,11.12"/><path class="cls-1" d="M76.57,210.05c.16-90.26,42.58-181.3,94.53-203"/><path class="cls-1" d="M158.36,218c.17-90.26,5.88-184.85,12.74-210.86"/><path class="cls-1" d="M245.81,213.39C246,123.14,212.46,30.6,171.1,7.1,255.45-4.24,323.94,60,323.78,150.2,365.2,173.74,330.3,202,245.81,213.39Z"/><path class="cls-1" d="M235.71,125c72.93-9.81,103.07-34.23,67.3-54.55"/><path class="cls-1" d="M208.89,51c42.61-5.73,60.21-20,39.32-31.87"/><path class="cls-1" d="M312.78,197.19C313,106.94,249.39,21.67,171.1,7.1"/><path class="cls-1" d="M340.75,174.52C340.92,84.27,264.81,9.17,171.1,7.1"/><path class="cls-1" d="M323.78,150.2C323.94,60,255.45-4.24,171.1,7.1,129.74-16.4,96,37.9,95.79,128.16,180.27,116.8,282.35,126.67,323.78,150.2Z"/><path class="cls-1" d="M303,70.47c-35.76-20.32-123.88-28.84-196.81-19"/><path class="cls-1" d="M248.21,19.1C227.32,7.23,175.84,2.26,133.23,8"/><path class="cls-1" d="M265,131.5c.17-90.25-42-146-93.93-124.4"/><path class="cls-1" d="M183.24,123.59C183.41,33.34,178-18.91,171.1,7.1"/><path class="cls-1" d="M95.79,128.16C96,37.9,129.74-16.4,171.1,7.1,86.76,18.44,18,101.09,17.82,191.35-23.61,167.81,11.3,139.52,95.79,128.16Z"/><path class="cls-1" d="M106.2,51.44C33.26,61.25,3.13,85.67,38.89,106"/><path class="cls-1" d="M133.23,8C90.62,13.72,73,28,93.91,39.85"/><path class="cls-1" d="M28.82,144.36C29,54.11,92.82-7.46,171.1,7.1"/><path class="cls-1" d="M.85,167C1,76.77,77.4,5,171.1,7.1"/></g><path class="cls-1" d="M86.49,318.59c24.11,13.69,53,19.57,84,15.13-31,4.44-59.9-1.44-84-15.13a175.43,175.43,0,0,1-15.08-9.66c-3.6-2.73-8.4-6.39-11.86-9.31-2.83-2.39-6.52-5.7-9.08-8.39-3-3.19-7.08-7.44-9.95-10.78-2.49-2.92-5.63-7-7.88-10.07a163.8,163.8,0,0,1-14.3-23.5C16.49,243,14,237.7,12.41,233.67,10.92,230,9.2,224.94,8,221.14A159.3,159.3,0,0,1,2.55,198,204.41,204.41,0,0,1,.38,170.49c0-4.54.31-10.61.7-15.14.35-4.09,1.2-9.5,1.78-13.57A144.09,144.09,0,0,1,6,127.28c1-3.88,2.6-9,3.92-12.77,1.47-4.19,3.7-9.68,5.51-13.73,1.6-3.59,4.09-8.2,5.85-11.71a139,139,0,0,1,7.81-12.84C31.23,73,34.37,69,36.64,65.85A140.22,140.22,0,0,1,46.91,53.93c2.54-2.72,6.06-6.24,8.84-8.71,3.9-3.47,9.28-7.89,13.41-11.09,2.74-2.13,6.59-4.72,9.51-6.6s6.88-4.17,9.86-5.9a140,140,0,0,1,17.63-8.48c3.58-1.39,8.38-3.22,12-4.4s8.7-2.61,12.48-3.53c3.54-.87,8.3-1.89,11.89-2.47,1.69-.28,3.94-.65,5.64-.86,2.6-.33,6.07-.7,8.68-.94.19,0,4.84-.46,11.54-.56,4.79-.07,9,.12,11.06.21,2.44.11,8.07.54,11.88,1s3.79.48,9.1,1.35c1.46.24,3.4.65,4.85.93a173.91,173.91,0,0,1,20.35,5.56c3.52,1.26,8.18,3,11.64,4.46,2.66,1.11,6.15,2.71,8.72,4,3.73,1.89,8.63,4.55,12.23,6.68,3,1.76,6.91,4.26,9.72,6.29a175.69,175.69,0,0,1,20.52,16.75,170.76,170.76,0,0,1,18.07,20.23,168.91,168.91,0,0,1,14.76,23,229,229,0,0,1,10.55,24.14,142.64,142.64,0,0,1,4.2,14c1,3.93,1.95,9.27,2.78,13.24a116.93,116.93,0,0,1,1.83,14.82,152.49,152.49,0,0,1,.52,16.13c-.22,4.16-.36,9.71-.77,13.85A137.62,137.62,0,0,1,338.34,202c-.89,3.95-1.93,9.25-3,13.15-1.19,4.33-3,10-4.54,14.25-1.37,3.71-3.36,8.6-5,12.18-1.94,4.14-4.64,9.61-7,13.54-3.93,6.62-9.8,15.08-14.41,21.25-2.84,3.79-7.22,8.36-10.38,11.89a114.67,114.67,0,0,1-8.88,8.62c-4,3.47-9.46,7.84-13.61,11.08a118.79,118.79,0,0,1-11.34,7.62c-5.08,3-12,6.72-17.31,9.3a165.87,165.87,0,0,1-25.45,9.42,175.31,175.31,0,0,1-18,4.05c-3.25.59-9.69,1.45-14.44,1.82-5.17.39-7.26.45-8,.47-5.59.14-5.81.14-11.29,0-1.17,0-7.46-.19-15.81-1.19-4.89-.59-9.15-1.37-9.2-1.37-1.6-.3-3.74-.7-5.33-1s-4-.9-5.67-1.29c-2.18-.5-5.05-1.31-7.2-1.94s-4.94-1.54-7-2.23c-3.53-1.17-8.18-2.9-11.57-4.43C98.59,324.81,91.64,321.32,86.49,318.59Z"/></g><path class="cls-1" d="M86.49,318.59c24.11,13.69,53,19.57,84,15.13-31,4.44-59.9-1.44-84-15.13a175.43,175.43,0,0,1-15.08-9.66c-3.6-2.73-8.4-6.39-11.86-9.31-2.83-2.39-6.52-5.7-9.08-8.39-3-3.19-7.08-7.44-9.95-10.78-2.49-2.92-5.63-7-7.88-10.07a163.8,163.8,0,0,1-14.3-23.5C16.49,243,14,237.7,12.41,233.67,10.92,230,9.2,224.94,8,221.14A159.3,159.3,0,0,1,2.55,198,204.41,204.41,0,0,1,.38,170.49c0-4.54.31-10.61.7-15.14.35-4.09,1.2-9.5,1.78-13.57A144.09,144.09,0,0,1,6,127.28c1-3.88,2.6-9,3.92-12.77,1.47-4.19,3.7-9.68,5.51-13.73,1.6-3.59,4.09-8.2,5.85-11.71a139,139,0,0,1,7.81-12.84C31.23,73,34.37,69,36.64,65.85A140.22,140.22,0,0,1,46.91,53.93c2.54-2.72,6.06-6.24,8.84-8.71,3.9-3.47,9.28-7.89,13.41-11.09,2.74-2.13,6.59-4.72,9.51-6.6s6.88-4.17,9.86-5.9a140,140,0,0,1,17.63-8.48c3.58-1.39,8.38-3.22,12-4.4s8.7-2.61,12.48-3.53c3.54-.87,8.3-1.89,11.89-2.47,1.69-.28,3.94-.65,5.64-.86,2.6-.33,6.07-.7,8.68-.94.19,0,4.84-.46,11.54-.56,4.79-.07,9,.12,11.06.21,2.44.11,8.07.54,11.88,1s3.79.48,9.1,1.35c1.46.24,3.4.65,4.85.93a173.91,173.91,0,0,1,20.35,5.56c3.52,1.26,8.18,3,11.64,4.46,2.66,1.11,6.15,2.71,8.72,4,3.73,1.89,8.63,4.55,12.23,6.68,3,1.76,6.91,4.26,9.72,6.29a175.69,175.69,0,0,1,20.52,16.75,170.76,170.76,0,0,1,18.07,20.23,168.91,168.91,0,0,1,14.76,23,229,229,0,0,1,10.55,24.14,142.64,142.64,0,0,1,4.2,14c1,3.93,1.95,9.27,2.78,13.24a116.93,116.93,0,0,1,1.83,14.82,152.49,152.49,0,0,1,.52,16.13c-.22,4.16-.36,9.71-.77,13.85A137.62,137.62,0,0,1,338.34,202c-.89,3.95-1.93,9.25-3,13.15-1.19,4.33-3,10-4.54,14.25-1.37,3.71-3.36,8.6-5,12.18-1.94,4.14-4.64,9.61-7,13.54-3.93,6.62-9.8,15.08-14.41,21.25-2.84,3.79-7.22,8.36-10.38,11.89a114.67,114.67,0,0,1-8.88,8.62c-4,3.47-9.46,7.84-13.61,11.08a118.79,118.79,0,0,1-11.34,7.62c-5.08,3-12,6.72-17.31,9.3a165.87,165.87,0,0,1-25.45,9.42,175.31,175.31,0,0,1-18,4.05c-3.25.59-9.69,1.45-14.44,1.82-5.17.39-7.26.45-8,.47-5.59.14-5.81.14-11.29,0-1.17,0-7.46-.19-15.81-1.19-4.89-.59-9.15-1.37-9.2-1.37-1.6-.3-3.74-.7-5.33-1s-4-.9-5.67-1.29c-2.18-.5-5.05-1.31-7.2-1.94s-4.94-1.54-7-2.23c-3.53-1.17-8.18-2.9-11.57-4.43C98.59,324.81,91.64,321.32,86.49,318.59Z"/></g><g class="cls-2"><g class="cls-6"><g class="cls-2"><path class="cls-1" d="M170.5,333.72C86.15,345.78,17.65,281.59,17.82,191.35c41.43,23.53,143.5,33.4,228,22C245.64,303.64,211.85,357.94,170.5,333.72Z"/><path class="cls-1" d="M93.39,322.23c20.89,11.87,72.37,16.84,115,11.11"/><path class="cls-1" d="M38.59,271.05c35.76,20.32,123.88,28.84,196.81,19"/><path class="cls-1" d="M170.5,333.72c-52,22.38-94.1-33.43-93.93-123.67"/><path class="cls-1" d="M170.5,333.72c-6.86,26.74-12.31-25.52-12.14-115.76"/><path class="cls-1" d="M170.5,333.72c41.35,24.22,75.14-30.08,75.31-120.33,84.49-11.36,119.39-39.65,78-63.19C323.61,240.45,254.84,323.1,170.5,333.72Z"/><path class="cls-1" d="M208.37,333.34c42.6-5.73,60.21-20,39.32-31.86"/><path class="cls-1" d="M235.4,290.08c72.94-9.81,103.07-34.23,67.31-54.55"/><path class="cls-1" d="M170.5,333.72C248.78,349,312.61,287.44,312.78,197.19"/><path class="cls-1" d="M170.5,333.72c93.7,2.79,170.08-69,170.25-159.2"/><path class="cls-1" d="M170.5,333.72c84.34-10.62,153.11-93.27,153.28-183.52-41.43-23.53-143.51-33.4-228-22C95.62,218.4,129.14,310.94,170.5,333.72Z"/><path class="cls-1" d="M247.69,301.48c-20.9-11.87-72.37-16.85-115-11.12"/><path class="cls-1" d="M302.71,235.53c-35.77-20.32-123.88-28.84-196.82-19"/><path class="cls-1" d="M170.5,333.72c51.95-20.93,94.36-112,94.53-202.22"/><path class="cls-1" d="M170.5,333.72c6.85-25.29,12.57-119.88,12.74-210.13"/><path class="cls-1" d="M170.5,333.72C129.14,310.94,95.62,218.4,95.79,128.16c-84.49,11.36-119.4,39.65-78,63.19C17.65,281.59,86.15,345.78,170.5,333.72Z"/><path class="cls-1" d="M132.71,290.36c-42.61,5.73-60.21,20-39.32,31.87"/><path class="cls-1" d="M105.89,216.5C33,226.31,2.82,250.73,38.59,271.05"/><path class="cls-1" d="M170.5,333.72C92.21,319.88,28.65,234.61,28.82,144.36"/><path class="cls-1" d="M170.5,333.72C76.79,332.38.68,257.27.85,167"/><path class="cls-1" d="M17.82,191.35C18,101.09,86.76,18.44,171.1,7.1c41.36,23.5,74.88,116,74.71,206.29C161.32,224.75,59.25,214.88,17.82,191.35Z"/><path class="cls-1" d="M38.89,106c35.76,20.32,123.88,28.84,196.82,19"/><path class="cls-1" d="M93.91,39.85c20.9,11.87,72.37,16.85,115,11.12"/><path class="cls-1" d="M76.57,210.05c.16-90.26,42.58-181.3,94.53-203"/><path class="cls-1" d="M158.36,218c.17-90.26,5.88-184.85,12.74-210.86"/><path class="cls-1" d="M245.81,213.39C246,123.14,212.46,30.6,171.1,7.1,255.45-4.24,323.94,60,323.78,150.2,365.2,173.74,330.3,202,245.81,213.39Z"/><path class="cls-1" d="M235.71,125c72.93-9.81,103.07-34.23,67.3-54.55"/><path class="cls-1" d="M208.89,51c42.61-5.73,60.21-20,39.32-31.87"/><path class="cls-1" d="M312.78,197.19C313,106.94,249.39,21.67,171.1,7.1"/><path class="cls-1" d="M340.75,174.52C340.92,84.27,264.81,9.17,171.1,7.1"/><path class="cls-1" d="M323.78,150.2C323.94,60,255.45-4.24,171.1,7.1,129.74-16.4,96,37.9,95.79,128.16,180.27,116.8,282.35,126.67,323.78,150.2Z"/><path class="cls-1" d="M303,70.47c-35.76-20.32-123.88-28.84-196.81-19"/><path class="cls-1" d="M248.21,19.1C227.32,7.23,175.84,2.26,133.23,8"/><path class="cls-1" d="M265,131.5c.17-90.25-42-146-93.93-124.4"/><path class="cls-1" d="M183.24,123.59C183.41,33.34,178-18.91,171.1,7.1"/><path class="cls-1" d="M95.79,128.16C96,37.9,129.74-16.4,171.1,7.1,86.76,18.44,18,101.09,17.82,191.35-23.61,167.81,11.3,139.52,95.79,128.16Z"/><path class="cls-1" d="M106.2,51.44C33.26,61.25,3.13,85.67,38.89,106"/><path class="cls-1" d="M133.23,8C90.62,13.72,73,28,93.91,39.85"/><path class="cls-1" d="M28.82,144.36C29,54.11,92.82-7.46,171.1,7.1"/><path class="cls-1" d="M.85,167C1,76.77,77.4,5,171.1,7.1"/></g><path class="cls-1" d="M193.82,339.22a171.6,171.6,0,0,1-28.09,1.47c-7.95-.27-12.47-.8-15.76-1.19-2.89-.33-3.36-.41-9.09-1.35-1.47-.24-3.42-.64-4.88-.93-2.66-.51-8.53-1.91-12.12-3-4.29-1.26-10-3.13-14.16-4.71-3.08-1.16-7.14-2.84-10.11-4.25-4-1.88-9.24-4.59-13.12-6.71C45.05,295,17.72,248.4,17.82,191.35,18,101.09,86.76,18.44,171.1,7.1,86.76,18.44,18,101.09,17.82,191.35,17.72,248.4,45.05,295,86.49,318.59c-2.91-1.79-6.88-4-9.69-5.95-4.48-3.09-10.35-7.38-14.59-10.78-5.8-4.65-12.77-11.74-17.91-17.1A113.32,113.32,0,0,1,34,272.17c-2.58-3.73-6.08-8.65-8.48-12.49-2.06-3.32-4.71-7.83-6.39-11.36-1.91-4-4.48-9.32-6.17-13.41-1.53-3.69-3.33-8.69-4.53-12.49C7,218.2,5.5,212.49,4.51,208.17c-.9-4-1.81-9.33-2.44-13.35A163.64,163.64,0,0,1,.38,170.49,238.79,238.79,0,0,1,2.65,143a112.57,112.57,0,0,1,3-14.44c1.15-3.84,2.52-9,3.83-12.81a137.88,137.88,0,0,1,5.29-13.53c1.72-3.54,3.88-8.32,5.75-11.78,2.08-3.82,5-8.82,7.4-12.47,2.1-3.22,5.06-7.43,7.41-10.48,2.69-3.47,6.39-8,9.38-11.23,2.54-2.73,6-6.34,8.7-8.89,3.27-3.07,7.77-7,11.28-9.82,2.73-2.18,6.45-5,9.35-6.95C78,28,83.28,24.69,87.32,22.31a178.94,178.94,0,0,1,18.84-9.16c3.72-1.46,8.73-3.34,12.54-4.57S127.39,6,131.16,5.1A164.74,164.74,0,0,1,156.88,1,168.92,168.92,0,0,1,183.29.84c6.15.42,12.24,1.34,12.3,1.35,2.87.46,6.69,1.13,9.55,1.69,1.75.34,4.06.9,5.8,1.3,4.41,1,8.72,2.37,13.28,3.81,2.63.83,6.06,2.11,8.62,3.12s6.14,2.47,8.69,3.69c4,1.92,9.33,4.58,13.21,6.77a154.8,154.8,0,0,1,19.34,12.79c3.74,3,8.71,7.09,12.28,10.31,2.79,2.52,6.33,6.09,8.9,8.83,3.19,3.41,7.22,8.18,10.12,11.85,2.4,3,5.3,7.29,7.52,10.45,2.58,3.67,5.55,8.87,7.71,12.8,1.9,3.44,4.22,8.16,5.83,11.76,1.8,4,4,9.52,5.43,13.69,1.33,3.79,2.72,9,3.88,12.8a137.26,137.26,0,0,1,3.1,14.49c.69,4,1.21,9.51,1.73,13.59a136.22,136.22,0,0,1,.64,15.13c0,8.27-1.21,19.28-2.27,27.49a106.94,106.94,0,0,1-3.27,15.33c-1.15,3.84-2.56,9-3.89,12.78-1.45,4.11-3.59,9.52-5.37,13.5a169,169,0,0,1-13.27,24.14,142.55,142.55,0,0,1-8.77,12.09c-4.82,5.71-11.54,13.08-16.87,18.31a142.26,142.26,0,0,1-11.35,9.75c-4.11,3.18-9.75,7.23-14.15,10-5,3.14-11.93,7-17.25,9.55a165.48,165.48,0,0,1-16.8,7A176.37,176.37,0,0,1,193.82,339.22Z"/></g><path class="cls-1" d="M193.82,339.22a171.6,171.6,0,0,1-28.09,1.47c-7.95-.27-12.47-.8-15.76-1.19-2.89-.33-3.36-.41-9.09-1.35-1.47-.24-3.42-.64-4.88-.93-2.66-.51-8.53-1.91-12.12-3-4.29-1.26-10-3.13-14.16-4.71-3.08-1.16-7.14-2.84-10.11-4.25-4-1.88-9.24-4.59-13.12-6.71C45.05,295,17.72,248.4,17.82,191.35,18,101.09,86.76,18.44,171.1,7.1,86.76,18.44,18,101.09,17.82,191.35,17.72,248.4,45.05,295,86.49,318.59c-2.91-1.79-6.88-4-9.69-5.95-4.48-3.09-10.35-7.38-14.59-10.78-5.8-4.65-12.77-11.74-17.91-17.1A113.32,113.32,0,0,1,34,272.17c-2.58-3.73-6.08-8.65-8.48-12.49-2.06-3.32-4.71-7.83-6.39-11.36-1.91-4-4.48-9.32-6.17-13.41-1.53-3.69-3.33-8.69-4.53-12.49C7,218.2,5.5,212.49,4.51,208.17c-.9-4-1.81-9.33-2.44-13.35A163.64,163.64,0,0,1,.38,170.49,238.79,238.79,0,0,1,2.65,143a112.57,112.57,0,0,1,3-14.44c1.15-3.84,2.52-9,3.83-12.81a137.88,137.88,0,0,1,5.29-13.53c1.72-3.54,3.88-8.32,5.75-11.78,2.08-3.82,5-8.82,7.4-12.47,2.1-3.22,5.06-7.43,7.41-10.48,2.69-3.47,6.39-8,9.38-11.23,2.54-2.73,6-6.34,8.7-8.89,3.27-3.07,7.77-7,11.28-9.82,2.73-2.18,6.45-5,9.35-6.95C78,28,83.28,24.69,87.32,22.31a178.94,178.94,0,0,1,18.84-9.16c3.72-1.46,8.73-3.34,12.54-4.57S127.39,6,131.16,5.1A164.74,164.74,0,0,1,156.88,1,168.92,168.92,0,0,1,183.29.84c6.15.42,12.24,1.34,12.3,1.35,2.87.46,6.69,1.13,9.55,1.69,1.75.34,4.06.9,5.8,1.3,4.41,1,8.72,2.37,13.28,3.81,2.63.83,6.06,2.11,8.62,3.12s6.14,2.47,8.69,3.69c4,1.92,9.33,4.58,13.21,6.77a154.8,154.8,0,0,1,19.34,12.79c3.74,3,8.71,7.09,12.28,10.31,2.79,2.52,6.33,6.09,8.9,8.83,3.19,3.41,7.22,8.18,10.12,11.85,2.4,3,5.3,7.29,7.52,10.45,2.58,3.67,5.55,8.87,7.71,12.8,1.9,3.44,4.22,8.16,5.83,11.76,1.8,4,4,9.52,5.43,13.69,1.33,3.79,2.72,9,3.88,12.8a137.26,137.26,0,0,1,3.1,14.49c.69,4,1.21,9.51,1.73,13.59a136.22,136.22,0,0,1,.64,15.13c0,8.27-1.21,19.28-2.27,27.49a106.94,106.94,0,0,1-3.27,15.33c-1.15,3.84-2.56,9-3.89,12.78-1.45,4.11-3.59,9.52-5.37,13.5a169,169,0,0,1-13.27,24.14,142.55,142.55,0,0,1-8.77,12.09c-4.82,5.71-11.54,13.08-16.87,18.31a142.26,142.26,0,0,1-11.35,9.75c-4.11,3.18-9.75,7.23-14.15,10-5,3.14-11.93,7-17.25,9.55a165.48,165.48,0,0,1-16.8,7A176.37,176.37,0,0,1,193.82,339.22Z"/></g></g></g></g></svg>