<?xml version="1.0" encoding="UTF-8"?>
<svg id="Layer_1" data-name="Layer 1" xmlns="http://www.w3.org/2000/svg" viewBox="0 0 480 480">
  <defs>
    <style>
      .cls-1 {
        fill: none;
      }

      .cls-2 {
        fill: #fb5222;
      }

      .cls-3 {
        fill: #fad937;
      }

      .cls-4 {
        fill: #010101;
      }

      .cls-5 {
        fill: #fcc5d5;
      }

      .cls-6 {
        fill: #1c6ae4;
      }
    </style>
  </defs>
  <path class="cls-5" d="m120,200v40C53.73,240,0,186.27,0,120h40c0,44.18,35.82,80,80,80Z"/>
  <path class="cls-4" d="m120,0v40c-44.18,0-80,35.82-80,80H0C0,53.73,53.73,0,120,0Z"/>
  <path class="cls-6" d="m240,120h-40c0-44.18-35.82-80-80-80V0c66.27,0,120,53.73,120,120Z"/>
  <path class="cls-4" d="m240,360c0,66.27-53.73,120-120,120v-40c44.18,0,80-35.82,80-80h40Z"/>
  <path class="cls-6" d="m120,440v40C53.73,480,0,426.27,0,360h40c0,44.18,35.82,80,80,80Z"/>
  <path class="cls-3" d="m120,240v40c-44.18,0-80,35.82-80,80H0c0-66.27,53.73-120,120-120Z"/>
  <path class="cls-5" d="m480,360h-40c0-44.18-35.82-80-80-80v-40c66.27,0,120,53.73,120,120Z"/>
  <path class="cls-4" d="m480,360c0,66.27-53.73,120-120,120v-40c44.18,0,80-35.82,80-80h40Z"/>
  <path class="cls-6" d="m360,440v40c-66.27,0-120-53.73-120-120h40c0,44.18,35.82,80,80,80Z"/>
  <path class="cls-4" d="m360,0v40c-44.18,0-80,35.82-80,80h-40C240,53.73,293.73,0,360,0Z"/>
  <path class="cls-6" d="m480,120h-40c0-44.18-35.82-80-80-80V0c66.27,0,120,53.73,120,120Z"/>
  <path class="cls-3" d="m480,120c0,66.27-53.73,120-120,120v-40c44.18,0,80-35.82,80-80h40Z"/>
  <path class="cls-5" d="m240,360h-40c0-44.18-35.82-80-80-80v-40c66.27,0,120,53.73,120,120Z"/>
  <path class="cls-5" d="m360,200v40c-66.27,0-120-53.73-120-120h40c0,44.18,35.82,80,80,80Z"/>
  <path class="cls-3" d="m360,240v40c-44.18,0-80,35.82-80,80h-40c0-66.27,53.73-120,120-120Z"/>
  <path class="cls-3" d="m240,120c0,66.27-53.73,120-120,120v-40c44.18,0,80-35.82,80-80h40Z"/>
  <path class="cls-1" d="m360,240c-66.27,0-120,53.73-120,120,0-66.27-53.73-120-120-120,66.27,0,120-53.73,120-120,0,66.27,53.73,120,120,120Z"/>
  <path class="cls-2" d="m200,120h-40c0-22.09-17.91-40-40-40v-40c44.18,0,80,35.82,80,80Z"/>
  <path class="cls-3" d="m120,40v40c-22.09,0-40,17.91-40,40h-40c0-44.18,35.82-80,80-80Z"/>
  <path class="cls-6" d="m120,160v40c-44.18,0-80-35.82-80-80h40c0,22.09,17.91,40,40,40Z"/>
  <path class="cls-4" d="m200,120c0,44.18-35.82,80-80,80v-40c22.09,0,40-17.91,40-40h40Z"/>
  <path class="cls-2" d="m120,400v40c-44.18,0-80-35.82-80-80h40c0,22.09,17.91,40,40,40Z"/>
  <path class="cls-3" d="m200,360c0,44.18-35.82,80-80,80v-40c22.09,0,40-17.91,40-40h40Z"/>
  <path class="cls-6" d="m200,360h-40c0-22.09-17.91-40-40-40v-40c44.18,0,80,35.82,80,80Z"/>
  <path class="cls-4" d="m120,280v40c-22.09,0-40,17.91-40,40h-40c0-44.18,35.82-80,80-80Z"/>
  <path class="cls-2" d="m360,400v40c-44.18,0-80-35.82-80-80h40c0,22.09,17.91,40,40,40Z"/>
  <path class="cls-3" d="m440,360c0,44.18-35.82,80-80,80v-40c22.09,0,40-17.91,40-40h40Z"/>
  <path class="cls-6" d="m440,360h-40c0-22.09-17.91-40-40-40v-40c44.18,0,80,35.82,80,80Z"/>
  <path class="cls-4" d="m360,280v40c-22.09,0-40,17.91-40,40h-40c0-44.18,35.82-80,80-80Z"/>
  <path class="cls-2" d="m440,120h-40c0-22.09-17.91-40-40-40v-40c44.18,0,80,35.82,80,80Z"/>
  <path class="cls-3" d="m360,40v40c-22.09,0-40,17.91-40,40h-40c0-44.18,35.82-80,80-80Z"/>
  <path class="cls-6" d="m360,160v40c-44.18,0-80-35.82-80-80h40c0,22.09,17.91,40,40,40Z"/>
  <path class="cls-4" d="m440,120c0,44.18-35.82,80-80,80v-40c22.09,0,40-17.91,40-40h40Z"/>
</svg>